<?xml version="1.0" encoding="UTF-8" standalone="no"?>
<svg
   xmlns:dc="http://purl.org/dc/elements/1.1/"
   xmlns:cc="http://creativecommons.org/ns#"
   xmlns:rdf="http://www.w3.org/1999/02/22-rdf-syntax-ns#"
   xmlns:svg="http://www.w3.org/2000/svg"
   xmlns="http://www.w3.org/2000/svg"
   xmlns:sodipodi="http://sodipodi.sourceforge.net/DTD/sodipodi-0.dtd"
   xmlns:inkscape="http://www.inkscape.org/namespaces/inkscape"
   width="48"
   height="48"
   viewBox="0 0 48 48"
   id="svg2"
   version="1.1"
   inkscape:version="0.48.4 r9939"
   sodipodi:docname="media-player-banshee (copie).svg">
  <metadata
     id="metadata21">
    <rdf:RDF>
      <cc:Work
         rdf:about="">
        <dc:format>image/svg+xml</dc:format>
        <dc:type
           rdf:resource="http://purl.org/dc/dcmitype/StillImage" />
      </cc:Work>
    </rdf:RDF>
  </metadata>
  <sodipodi:namedview
     pagecolor="#ffffff"
     bordercolor="#666666"
     borderopacity="1"
     objecttolerance="10"
     gridtolerance="10"
     guidetolerance="10"
     inkscape:pageopacity="0"
     inkscape:pageshadow="2"
     inkscape:window-width="1280"
     inkscape:window-height="1000"
     id="namedview19"
     showgrid="false"
     inkscape:zoom="4.9166667"
     inkscape:cx="20.847458"
     inkscape:cy="23.59322"
     inkscape:window-x="0"
     inkscape:window-y="24"
     inkscape:window-maximized="1"
     inkscape:current-layer="svg2" />
  <defs
     id="defs4">
    <radialGradient
       cx="148.004"
       cy="160"
       gradientTransform="matrix(.1831 0 0 .1831 -3.10029 -5.29688)"
       id="radial0"
       r="128"
       gradientUnits="userSpaceOnUse">
      <stop
         offset="0"
         style="stop-color:#f8e2c1"
         id="stop7" />
      <stop
         offset="1"
         style="stop-color:#c37910"
         id="stop9" />
    </radialGradient>
  </defs>
  <path
     style="fill:url(#radial0)"
     d="M 47.4375 11.546875 L 47.4375 36.453125 C 47.4375 46.703125 47.4375 47.4375 36.453125 47.4375 L 11.550781 47.4375 C 0.5625 47.4375 0.5625 46.703125 0.5625 36.453125 L 0.5625 11.546875 C 0.5625 1.296875 0.5625 0.5625 11.550781 0.5625 L 36.453125 0.5625 C 47.4375 0.5625 47.4375 1.296875 47.4375 11.546875 Z "
     id="path11" />
  <path
     style="fill:#fff;fill-opacity:.051"
     d="M 38.265625 47.4375 C 40.808594 47.425781 42.644531 47.355469 43.976562 46.996094 L 39.746094 39.746094 L 35.261719 47.4375 L 36.453125 47.4375 C 37.09375 47.4375 37.695312 47.4375 38.265625 47.4375 Z M 39.746094 39.746094 L 34.621094 30.957031 L 29.492188 39.746094 Z M 39.746094 39.746094 L 47.398438 39.746094 C 47.429688 38.773438 47.4375 37.683594 47.4375 36.449219 L 47.4375 35.351562 L 44.875 30.957031 Z M 44.875 30.957031 L 39.746094 22.167969 L 34.621094 30.957031 Z M 44.875 30.957031 L 47.4375 30.957031 L 47.4375 26.5625 Z M 34.621094 30.957031 L 29.492188 22.167969 L 24.367188 30.957031 Z M 24.367188 30.957031 L 19.238281 39.746094 L 29.492188 39.746094 Z M 24.367188 30.957031 L 19.238281 22.167969 L 14.113281 30.957031 Z M 14.113281 30.957031 L 8.984375 39.746094 L 19.238281 39.746094 Z M 14.113281 30.957031 L 8.984375 22.167969 L 3.859375 30.957031 Z M 3.859375 30.957031 L 0.5625 36.605469 C 0.5625 37.773438 0.574219 38.816406 0.601562 39.746094 L 8.984375 39.746094 Z M 3.859375 30.957031 L 0.5625 25.308594 L 0.5625 30.957031 Z M 8.984375 39.746094 L 4.671875 47.140625 C 6.269531 47.433594 8.480469 47.4375 11.550781 47.4375 L 13.472656 47.4375 Z M 8.984375 22.167969 L 3.859375 13.378906 L 0.5625 19.027344 L 0.5625 22.167969 Z M 8.984375 22.167969 L 19.238281 22.167969 L 14.113281 13.378906 Z M 14.113281 13.378906 L 8.984375 4.589844 L 3.859375 13.378906 Z M 14.113281 13.378906 L 24.367188 13.378906 L 19.238281 4.589844 Z M 19.238281 4.589844 L 16.886719 0.5625 L 11.546875 0.5625 C 11.472656 0.5625 11.410156 0.5625 11.335938 0.5625 L 8.984375 4.589844 Z M 19.238281 4.589844 L 29.492188 4.589844 L 27.140625 0.5625 L 21.589844 0.5625 Z M 29.492188 4.589844 L 39.746094 4.589844 L 37.394531 0.5625 C 37.082031 0.5625 36.785156 0.5625 36.449219 0.5625 L 31.84375 0.5625 Z M 29.492188 4.589844 L 24.367188 13.378906 L 34.621094 13.378906 Z M 34.621094 13.378906 L 44.875 13.378906 L 39.746094 4.589844 Z M 34.621094 13.378906 L 29.492188 22.167969 L 39.746094 22.167969 Z M 39.746094 22.167969 L 47.4375 22.167969 L 47.4375 17.773438 L 44.875 13.378906 Z M 44.875 13.378906 L 47.4375 13.378906 L 47.4375 11.546875 C 47.4375 10.632812 47.429688 9.796875 47.414062 9.023438 Z M 29.492188 22.167969 L 24.367188 13.378906 L 19.238281 22.167969 Z M 39.746094 4.589844 L 47.054688 4.589844 C 46.5 1.832031 45.167969 0.960938 42.023438 0.6875 Z M 8.984375 4.589844 L 6.679688 0.636719 C 3.019531 0.84375 1.539062 1.632812 0.945312 4.589844 Z M 3.859375 13.378906 L 0.621094 7.824219 C 0.578125 8.898438 0.5625 10.132812 0.5625 11.546875 L 0.5625 13.378906 Z M 19.238281 39.746094 L 14.753906 47.4375 L 23.726562 47.4375 Z M 29.492188 39.746094 L 25.007812 47.4375 L 33.980469 47.4375 Z M 2.59375 46.367188 L 0.992188 43.621094 C 1.285156 44.9375 1.777344 45.800781 2.59375 46.367188 Z "
     id="path13" />
  <path
     style="fill:#ffffff"
     inkscape:connector-curvature="0"
     id="path18"
     d="m 23.69697,9.5416386 c -2.238826,0 -4.053037,1.8142994 -4.053037,4.0530994 0,1.8871 1.322316,3.4498 3.068187,3.9015 l 0,2.0833 c -4.012157,0.4866 -7.121224,3.8867 -7.121224,8.0304 0,1.1194 0.233813,2.1741 0.643941,3.1439 l -1.363639,0.7955 c -1.266586,-1.2499 -3.23276,-1.5768 -4.848492,-0.644 -1.9388795,1.1194 -2.5966885,3.5914 -1.4772755,5.5303 1.119413,1.9389 3.5914325,2.5967 5.5303125,1.4773 1.660986,-0.959 2.385971,-2.8989 1.856063,-4.6591 l 1.32576,-0.7576 c 1.480059,1.9518 3.800389,3.2197 6.439404,3.2197 2.816768,0 5.289666,-1.4186 6.742434,-3.5985 l 1.704548,0.9849 c -0.6243,1.8 0.06917,3.8227 1.780306,4.8106 1.938879,1.1194 4.410899,0.4616 5.530312,-1.4773 1.119412,-1.9389 0.461604,-4.4109 -1.477275,-5.5303 -1.571022,-0.907 -3.465156,-0.634 -4.734856,0.5303 l -1.931821,-1.0985 c 0.304748,-0.8527 0.492425,-1.7696 0.492425,-2.7272 0,-4.1307 -3.089541,-7.5269 -7.083345,-8.0304 l 0,-2.0833 c 1.745871,-0.4517 3.030308,-2.0144 3.030308,-3.9015 0,-2.2388 -1.814211,-4.0530994 -4.053036,-4.0530994 z m 1.136365,13.1818994 c 0.554217,0 1.018832,0.051 1.401517,0.1894 0.389268,0.1385 0.70284,0.3126 0.946971,0.5303 0.250711,0.2177 0.45601,0.487 0.568183,0.7576 0.112158,0.2638 0.151507,0.5315 0.151516,0.7954 -10e-6,0.4552 -0.09191,0.8492 -0.303031,1.2121 -0.211142,0.3629 -0.536201,0.6897 -0.98485,0.947 -0.448665,0.2573 -1.043056,0.4296 -1.742427,0.5682 -0.699383,0.1385 -1.52352,0.2273 -2.500004,0.2273 l -1.060608,0 c -0.04618,0.2177 -0.09384,0.4014 -0.113636,0.606 -0.0132,0.2045 0,0.4279 0,0.6061 -1e-6,0.6597 0.169125,1.1654 0.492425,1.5151 0.329892,0.3497 0.85854,0.4925 1.590911,0.4925 0.42226,0 0.799867,-0.016 1.136366,-0.076 0.336486,-0.067 0.627084,-0.1168 0.871213,-0.1894 0.250713,-0.073 0.447705,-0.1679 0.606062,-0.2273 0.158342,-0.067 0.28152,-0.076 0.340909,-0.076 0.05937,0 0.08723,0.03 0.113637,0.076 0.03298,0.04 0.03788,0.073 0.03788,0.1516 -9e-6,0.067 0.01313,0.1727 0,0.2651 -0.0132,0.092 -0.04937,0.1661 -0.07576,0.2652 -0.0264,0.092 -0.06745,0.1794 -0.113637,0.2651 -0.03959,0.086 -0.06086,0.1679 -0.113636,0.2273 -0.07918,0.079 -0.21214,0.148 -0.416667,0.2273 -0.197944,0.073 -0.442594,0.1613 -0.719698,0.2272 -0.277118,0.059 -0.579204,0.1122 -0.909093,0.1515 -0.3299,0.04 -0.65496,0.038 -0.98485,0.038 -0.587216,0 -1.110976,-0.058 -1.553032,-0.1894 -0.442063,-0.132 -0.801584,-0.3355 -1.098487,-0.606 -0.29031,-0.2772 -0.536666,-0.6137 -0.681819,-1.0228 -0.145154,-0.4089 -0.189394,-0.8852 -0.189394,-1.4394 0,-0.4289 0.03446,-0.9132 0.113636,-1.4015 0.08577,-0.4948 0.200644,-0.9577 0.378789,-1.4394 0.178142,-0.4815 0.398108,-0.9594 0.681819,-1.4015 0.283708,-0.442 0.633449,-0.8377 1.022729,-1.1742 0.395871,-0.3365 0.848998,-0.591 1.363638,-0.7955 0.514631,-0.2046 1.095827,-0.303 1.742427,-0.303 z m -0.113637,1.2879 c -0.428868,0 -0.806475,0.076 -1.136365,0.2272 -0.3299,0.1452 -0.651778,0.3174 -0.909092,0.5682 -0.250724,0.2507 -0.459203,0.5726 -0.643941,0.9091 -0.178147,0.33 -0.304504,0.6533 -0.416667,1.0227 l 0.98485,0 c 0.692776,0 1.280568,-0.027 1.742427,-0.1136 0.468444,-0.086 0.859247,-0.1957 1.136365,-0.3409 0.283704,-0.1518 0.456012,-0.3325 0.568183,-0.5303 0.118752,-0.198 0.189387,-0.3884 0.189394,-0.6061 -7e-6,-0.3365 -0.152759,-0.6287 -0.416667,-0.8333 -0.263923,-0.2112 -0.610248,-0.303 -1.098487,-0.303 z" />
</svg>
