<?xml version="1.0" encoding="UTF-8" standalone="no"?>
<svg
   xmlns:dc="http://purl.org/dc/elements/1.1/"
   xmlns:cc="http://creativecommons.org/ns#"
   xmlns:rdf="http://www.w3.org/1999/02/22-rdf-syntax-ns#"
   xmlns:svg="http://www.w3.org/2000/svg"
   xmlns="http://www.w3.org/2000/svg"
   xmlns:sodipodi="http://sodipodi.sourceforge.net/DTD/sodipodi-0.dtd"
   xmlns:inkscape="http://www.inkscape.org/namespaces/inkscape"
   width="48"
   height="48"
   viewBox="0 0 48 48"
   id="svg2"
   version="1.1"
   inkscape:version="0.48.4 r9939"
   sodipodi:docname="chromium (copie).svg">
  <metadata
     id="metadata35">
    <rdf:RDF>
      <cc:Work
         rdf:about="">
        <dc:format>image/svg+xml</dc:format>
        <dc:type
           rdf:resource="http://purl.org/dc/dcmitype/StillImage" />
      </cc:Work>
    </rdf:RDF>
  </metadata>
  <sodipodi:namedview
     pagecolor="#ffffff"
     bordercolor="#666666"
     borderopacity="1"
     objecttolerance="10"
     gridtolerance="10"
     guidetolerance="10"
     inkscape:pageopacity="0"
     inkscape:pageshadow="2"
     inkscape:window-width="1280"
     inkscape:window-height="1000"
     id="namedview33"
     showgrid="false"
     inkscape:zoom="4.9166667"
     inkscape:cx="20.847458"
     inkscape:cy="23.59322"
     inkscape:window-x="0"
     inkscape:window-y="24"
     inkscape:window-maximized="1"
     inkscape:current-layer="svg2" />
  <defs
     id="defs4">
    <radialGradient
       cx="148.004"
       cy="160"
       gradientTransform="matrix(.1831 0 0 .1831 -3.10029 -5.29688)"
       id="radial0"
       r="128"
       gradientUnits="userSpaceOnUse">
      <stop
         offset="0"
         style="stop-color:#abd5f8"
         id="stop7" />
      <stop
         offset="1"
         style="stop-color:#3177c8"
         id="stop9" />
    </radialGradient>
  </defs>
  <path
     style="fill:url(#radial0)"
     d="M 47.4375 11.546875 L 47.4375 36.453125 C 47.4375 46.703125 47.4375 47.4375 36.453125 47.4375 L 11.550781 47.4375 C 0.5625 47.4375 0.5625 46.703125 0.5625 36.453125 L 0.5625 11.546875 C 0.5625 1.296875 0.5625 0.5625 11.550781 0.5625 L 36.453125 0.5625 C 47.4375 0.5625 47.4375 1.296875 47.4375 11.546875 Z "
     id="path11" />
  <path
     style="fill:#fff;fill-opacity:.051"
     d="M 38.265625 47.4375 C 40.808594 47.425781 42.644531 47.355469 43.976562 46.996094 L 39.746094 39.746094 L 35.261719 47.4375 L 36.453125 47.4375 C 37.09375 47.4375 37.695312 47.4375 38.265625 47.4375 Z M 39.746094 39.746094 L 34.621094 30.957031 L 29.492188 39.746094 Z M 39.746094 39.746094 L 47.398438 39.746094 C 47.429688 38.773438 47.4375 37.683594 47.4375 36.449219 L 47.4375 35.351562 L 44.875 30.957031 Z M 44.875 30.957031 L 39.746094 22.167969 L 34.621094 30.957031 Z M 44.875 30.957031 L 47.4375 30.957031 L 47.4375 26.5625 Z M 34.621094 30.957031 L 29.492188 22.167969 L 24.367188 30.957031 Z M 24.367188 30.957031 L 19.238281 39.746094 L 29.492188 39.746094 Z M 24.367188 30.957031 L 19.238281 22.167969 L 14.113281 30.957031 Z M 14.113281 30.957031 L 8.984375 39.746094 L 19.238281 39.746094 Z M 14.113281 30.957031 L 8.984375 22.167969 L 3.859375 30.957031 Z M 3.859375 30.957031 L 0.5625 36.605469 C 0.5625 37.773438 0.574219 38.816406 0.601562 39.746094 L 8.984375 39.746094 Z M 3.859375 30.957031 L 0.5625 25.308594 L 0.5625 30.957031 Z M 8.984375 39.746094 L 4.671875 47.140625 C 6.269531 47.433594 8.480469 47.4375 11.550781 47.4375 L 13.472656 47.4375 Z M 8.984375 22.167969 L 3.859375 13.378906 L 0.5625 19.027344 L 0.5625 22.167969 Z M 8.984375 22.167969 L 19.238281 22.167969 L 14.113281 13.378906 Z M 14.113281 13.378906 L 8.984375 4.589844 L 3.859375 13.378906 Z M 14.113281 13.378906 L 24.367188 13.378906 L 19.238281 4.589844 Z M 19.238281 4.589844 L 16.886719 0.5625 L 11.550781 0.5625 C 11.472656 0.5625 11.410156 0.5625 11.335938 0.5625 L 8.984375 4.589844 Z M 19.238281 4.589844 L 29.492188 4.589844 L 27.140625 0.5625 L 21.589844 0.5625 Z M 29.492188 4.589844 L 39.746094 4.589844 L 37.394531 0.5625 C 37.082031 0.5625 36.785156 0.5625 36.453125 0.5625 L 31.84375 0.5625 Z M 29.492188 4.589844 L 24.367188 13.378906 L 34.621094 13.378906 Z M 34.621094 13.378906 L 44.875 13.378906 L 39.746094 4.589844 Z M 34.621094 13.378906 L 29.492188 22.167969 L 39.746094 22.167969 Z M 39.746094 22.167969 L 47.4375 22.167969 L 47.4375 17.773438 L 44.875 13.378906 Z M 44.875 13.378906 L 47.4375 13.378906 L 47.4375 11.546875 C 47.4375 10.632812 47.429688 9.796875 47.414062 9.023438 Z M 29.492188 22.167969 L 24.367188 13.378906 L 19.238281 22.167969 Z M 39.746094 4.589844 L 47.054688 4.589844 C 46.5 1.832031 45.167969 0.960938 42.023438 0.6875 Z M 8.984375 4.589844 L 6.679688 0.636719 C 3.019531 0.84375 1.539062 1.632812 0.945312 4.589844 Z M 3.859375 13.378906 L 0.621094 7.824219 C 0.578125 8.898438 0.5625 10.132812 0.5625 11.546875 L 0.5625 13.378906 Z M 19.238281 39.746094 L 14.753906 47.4375 L 23.726562 47.4375 Z M 29.492188 39.746094 L 25.007812 47.4375 L 33.980469 47.4375 Z M 2.59375 46.367188 L 0.992188 43.621094 C 1.285156 44.9375 1.777344 45.800781 2.59375 46.367188 Z "
     id="path13" />
  <path
     inkscape:connector-curvature="0"
     id="path18"
     d="m 23.236478,9.8248408 c -0.06702,0.3910002 -0.142351,0.7831002 -0.221313,1.1730002 -6.279515,0.3983 -12.712074,5.3332 -13.0795739,13.3451 l -0.132787,0 0,1.4607 c -1.4042162,0.4837 -1.9472602,2.757 -1.7705012,4.05 0.122388,1.6642 0.538891,2.9132 2.2573881,3.4746 0.0114,-0.171 0.03088,-0.3569 0.04426,-0.5312 l 0.02213,0.5976 c 0.523045,0.1034 0.885757,0.15 1.128694,0.066 l 0.02213,0.8188 c 0.437979,0.1746 0.681611,0.2133 0.818856,-0.1106 0.005,0.094 0.01668,0.1939 0.02213,0.2877 0.547757,0.2632 1.460042,0.3266 2.013945,0.1106 0.177898,-0.1132 0.306142,-0.4861 0.420494,-0.9959 2.99702,4.3805 8.852873,5.7205 14.141875,3.6517 1.628419,-0.5308 3.260252,-1.6052 4.40412,-3.0099 0.09147,0.2737 0.189061,0.4986 0.309838,0.5755 0.553902,0.216 1.466188,0.1525 2.013944,-0.1107 0.0055,-0.094 0.01716,-0.1932 0.02213,-0.2877 0.137245,0.3239 0.380878,0.2852 0.818856,0.1107 l 0.02213,-0.8189 c 0.242937,0.084 0.60565,0.037 1.128695,-0.066 l 0.02213,-0.5975 c 0.01339,0.1742 0.03287,0.3602 0.04426,0.5311 1.718498,-0.5614 2.135001,-1.8104 2.257389,-3.4746 0.176759,-1.293 -0.366286,-3.5662 -1.770501,-4.05 l 0,-1.4607 -0.110656,0 c -0.243887,-2.9955 -1.285263,-6.0214 -3.186901,-8.4541 -2.340245,-2.9939 -5.985574,-5.0875 -10.932842,-5.1345 -0.0874,-8e-4 -0.178006,-9e-4 -0.265575,0 -0.167254,-0.3813 -0.323968,-0.7573 -0.464756,-1.1508002 z m 0.796725,1.8590002 c 4.715846,0.063 8.081525,2.0423 10.291035,4.8689 1.789905,2.2898 2.787351,5.1629 3.031982,8.0115 l -0.154919,0 0,1.3058 c -0.228527,-0.035 -0.447193,-0.066 -0.486887,-0.066 -0.02295,0.016 -0.04537,0.041 -0.06639,0.066 l 0.02213,-1.0402 c 0,0 -0.691627,-0.2213 -0.752462,-0.2213 -0.007,0.01 -0.01543,0.032 -0.02213,0.044 -0.01479,-0.013 -0.02798,-0.036 -0.04426,-0.044 l -1.438532,0 c -0.462756,0.206 -0.724474,0.6649 -0.907382,1.1729 -2.461357,-4.9093 -7.003593,-9.0198 -9.472185,-14.0976 z m -1.305744,0.066 c 0.04371,0 0.08909,0 0.132787,0 -0.100373,0.4458 -0.212695,0.8876 -0.331969,1.3279 -0.972934,4.7091 -4.730057,8.0382 -7.281184,11.9287 -0.216828,0.3274 -0.415105,0.6829 -0.597544,1.0402 -0.193402,-0.6959 -0.451689,-1.388 -1.062301,-1.6598 l -1.438532,0 c -0.01628,0.01 -0.02947,0.032 -0.04426,0.044 -0.0067,-0.013 -0.01512,-0.034 -0.02213,-0.044 -0.06083,0 -0.752462,0.2213 -0.752462,0.2213 l 0.02213,1.0402 c -0.02102,-0.025 -0.04344,-0.051 -0.06639,-0.066 -0.0397,0 -0.25836,0.032 -0.486888,0.066 l 0,-1.3058 -0.154919,0 c 0.358922,-7.4969 6.262037,-12.072 12.083662,-12.5927 z m 1.549188,14.2968 c 2.922253,0 5.837168,0.2576 8.941028,0.664 -0.03331,0.1257 -0.05342,0.2594 -0.08853,0.3762 -0.04243,0.1863 -0.07948,0.423 -0.110656,0.6639 -0.287068,-0.031 -0.57606,-0.053 -0.863119,-0.088 0.431573,0.7539 0.35616,2.463 -0.110657,3.1856 -0.585164,0.9057 -1.743277,1.5931 -3.209032,1.682 -0.674879,0.029 -1.420092,0 -2.10247,-0.1549 -0.676366,-0.1579 -1.28772,-0.4529 -1.659844,-0.9738 l 0,-0.022 c -0.420717,-0.5301 -0.547403,-1.1308 -0.553281,-1.7263 -0.0059,-0.6017 0.08845,-2.0488 0.06639,-2.5438 -0.368136,0 -0.738198,0.015 -1.106562,0.022 -0.01928,0.4913 0.05014,1.9282 0.04426,2.5217 -0.0059,0.6018 -0.09931,1.2148 -0.53115,1.7484 -0.370965,0.5298 -0.999598,0.8146 -1.681976,0.9738 -0.682378,0.1619 -1.427591,0.1839 -2.102469,0.1549 -1.465756,-0.089 -2.623868,-0.7763 -3.209034,-1.682 -0.426045,-0.6595 -0.533784,-2.2806 -0.221312,-2.9864 -0.253603,0.045 -0.496526,0.084 -0.752463,0.1328 -0.03666,-0.4047 -0.07032,-0.771 -0.132788,-1.0623 3.288205,-0.6329 6.341985,-0.8923 9.383655,-0.8853 z m 1.637713,1.0844 c -0.341387,0.043 -0.637613,0.1046 -0.840988,0.1771 -2.12e-4,0.4951 -0.07114,1.0037 -0.06639,1.4828 0.0054,0.5505 0.104409,1.0427 0.442625,1.4607 l 0,0.022 c 0.268236,0.383 0.77725,0.6306 1.39427,0.7746 0.61702,0.1442 1.325348,0.1825 1.969682,0.1549 1.328612,-0.081 2.347292,-0.7092 2.832801,-1.4607 0.46237,-0.7157 0.453575,-1.4908 -0.17705,-2.1688 -1.904888,-0.2194 -3.737636,-0.3839 -5.554946,-0.4427 z m -3.895101,0.022 c -1.823917,0.083 -3.695809,0.279 -5.621341,0.5975 -0.004,0.01 0.0039,0.015 0,0.022 -0.456521,0.6285 -0.416268,1.3253 0,1.9696 0.485509,0.7515 1.504188,1.3802 2.832802,1.4607 0.644334,0.028 1.352662,-0.011 1.969682,-0.1549 0.61702,-0.144 1.126033,-0.3916 1.394269,-0.7746 l 0,-0.022 c 0.338218,-0.418 0.437243,-0.9102 0.442625,-1.4607 0.0047,-0.4791 -0.04403,-0.9877 -0.04426,-1.4828 -0.187889,-0.069 -0.460659,-0.1131 -0.774594,-0.1549 l -0.199181,0 z"
     style="fill:#ffffff;fill-rule:evenodd" />
</svg>
