<?xml version="1.0" encoding="UTF-8" standalone="no"?>
<svg
   xmlns:dc="http://purl.org/dc/elements/1.1/"
   xmlns:cc="http://creativecommons.org/ns#"
   xmlns:rdf="http://www.w3.org/1999/02/22-rdf-syntax-ns#"
   xmlns:svg="http://www.w3.org/2000/svg"
   xmlns="http://www.w3.org/2000/svg"
   xmlns:xlink="http://www.w3.org/1999/xlink"
   xmlns:sodipodi="http://sodipodi.sourceforge.net/DTD/sodipodi-0.dtd"
   xmlns:inkscape="http://www.inkscape.org/namespaces/inkscape"
   viewBox="0 0 48 48"
   id="svg2"
   version="1.1"
   inkscape:version="0.48.3.1 r9886"
   width="100%"
   height="100%"
   sodipodi:docname="asunder.svg">
  <metadata
     id="metadata26">
    <rdf:RDF>
      <cc:Work
         rdf:about="">
        <dc:format>image/svg+xml</dc:format>
        <dc:type
           rdf:resource="http://purl.org/dc/dcmitype/StillImage" />
      </cc:Work>
    </rdf:RDF>
  </metadata>
  <sodipodi:namedview
     pagecolor="#ffffff"
     bordercolor="#666666"
     borderopacity="1"
     objecttolerance="10"
     gridtolerance="10"
     guidetolerance="10"
     inkscape:pageopacity="0"
     inkscape:pageshadow="2"
     inkscape:window-width="1280"
     inkscape:window-height="1000"
     id="namedview24"
     showgrid="false"
     inkscape:zoom="6.6756466"
     inkscape:cx="36.881356"
     inkscape:cy="22.779661"
     inkscape:window-x="0"
     inkscape:window-y="24"
     inkscape:window-maximized="1"
     inkscape:current-layer="svg2" />
  <defs
     id="defs4">
    <linearGradient
       id="linearGradient3895-9-0-3-2-4-0">
      <stop
         offset="0"
         style="stop-color:#8fdff6"
         id="stop7" />
      <stop
         offset="1"
         style="stop-color:#0b7492"
         id="stop9" />
    </linearGradient>
    <radialGradient
       cx="148.004"
       cy="160"
       gradientTransform="matrix(0.97656,0,0,0.97656,-16.5349,-236.25)"
       r="128"
       id="radialGradient4432"
       xlink:href="#linearGradient3895-9-0-3-2-4-0"
       gradientUnits="userSpaceOnUse" />
  </defs>
  <g
     id="g2989"
     transform="matrix(0.1875,0,0,0.18742503,-5e-4,0.01946449)">
    <g
       id="g12"
       transform="translate(0,208)">
      <path
         id="path14"
         d="m 253,-146.40625 0,132.8125 C 253,41.09375 253,45 194.40625,45 L 61.59375,45 C 3,45 3,41.09375 3,-13.59375 l 0,-132.8125 C 3,-201.09375 3,-205 61.59375,-205 l 132.8125,0 C 253,-205 253,-201.09375 253,-146.40625 z"
         style="color:#bebebe;fill:url(#radialGradient4432)"
         inkscape:connector-curvature="0" />
    </g>
    <path
       style="opacity:0.05;fill:#ffffff"
       d="m 204.0803,252.99366 c 13.5552,-0.064 23.3486,-0.43514 30.4566,-2.34978 l -22.5525,-38.66464 -23.9258,41.01442 6.3477,0 c 3.4179,0 6.6413,0.0143 9.674,0 z m 7.9041,-41.01442 -27.3438,-46.87362 -27.3437,46.87362 54.6875,0 z m 0,0 40.802,0 C 252.9509,206.79625 253,200.97746 253,194.40163 l 0,-5.8592 -13.6719,-23.43681 -27.3437,46.87362 z m 27.3437,-46.87362 -27.3437,-46.87362 -27.3438,46.87362 54.6875,0 z m 0,0 13.6719,0 0,-23.43681 -13.6719,23.43681 z m -54.6875,0 -27.3437,-46.87362 -27.3438,46.87362 54.6875,0 z m -54.6875,0 -27.3437,46.87362 54.6875,0 -27.3438,-46.87362 z m 0,0 -27.3437,-46.87362 -27.3438,46.87362 54.6875,0 z m -54.6875,0 -27.3437,46.87362 54.6875,0 -27.3438,-46.87362 z m 0,0 -27.3437,-46.87362 -27.3438,46.87362 54.6875,0 z m -54.6875,0 L 3,195.22558 c 0,6.22608 0.056,11.79835 0.2136,16.75366 l 44.7083,0 -27.3438,-46.87362 z m 0,0 L 3,134.98565 l 0,30.11997 17.5781,0 z m 27.3438,46.87362 -23.0103,39.42755 c 8.527,1.57164 20.3118,1.58687 36.6822,1.58687 l 10.2539,0 -23.9258,-41.01442 z m 0,-93.74724 L 20.5781,71.35839 3,101.47834 3,118.232 l 44.9219,0 z m 0,0 54.6875,0 L 75.2656,71.35839 47.9219,118.232 z M 75.2656,71.35839 47.9219,24.48475 20.5781,71.35839 l 54.6875,0 z m 0,0 54.6875,0 L 102.6094,24.48475 75.2656,71.35839 z M 102.6094,24.48475 90.0666,3.00101 l -28.4728,0 c -0.399,0 -0.7356,-1e-5 -1.1292,0 l -12.5427,21.48374 54.6875,0 z m 0,0 54.6875,0 -12.5428,-21.48374 -29.602,0 -12.5427,21.48374 z m 54.6875,0 54.6875,0 -12.5428,-21.48374 c -1.6732,-0.002 -3.2563,0 -5.0353,0 l -24.5667,0 -12.5427,21.48374 z m 0,0 -27.3438,46.87364 54.6875,0 -27.3437,-46.87364 z m 27.3437,46.87364 54.6875,0 -27.3437,-46.87364 -27.3438,46.87364 z m 0,0 -27.3437,46.87361 54.6875,0 -27.3438,-46.87361 z m 27.3438,46.87361 41.0156,0 0,-23.43681 -13.6719,-23.4368 -27.3437,46.87361 z m 27.3437,-46.87361 13.6719,0 0,-9.76535 c 0,-4.89463 -0.04,-9.34683 -0.1221,-13.45786 L 239.3281,71.35839 z M 157.2969,118.232 129.9531,71.35839 102.6094,118.232 l 54.6875,0 z m 54.6875,-93.74725 38.9709,0 C 248.0057,9.76953 240.9039,5.12877 224.1304,3.67238 l -12.146,20.81237 z m -164.0625,0 L 35.6233,3.39773 C 16.114,4.50716 8.2069,8.70873 5.0447,24.48475 l 42.8772,0 z M 20.5781,71.35839 3.3052,41.72668 C 3.0746,47.46067 3,54.03485 3,61.59304 l 0,9.76535 17.5781,0 z m 82.0313,140.62085 -23.9258,41.01442 47.8516,0 -23.9258,-41.01442 z m 54.6875,0 -23.9258,41.01442 47.8516,0 -23.9258,-41.01442 z m -143.4632,35.3078 -8.5449,-14.648 c 1.5724,7.02888 4.1916,11.64072 8.5449,14.648 z"
       id="path18"
       inkscape:connector-curvature="0" />
    <path
       id="path20-7"
       d="m 128.20833,28.00007 2.08334,22.49998 -8.54167,13.95831 19.16666,21.87504 -6.875,11.04162 c 14.32226,2.84223 25.20834,15.4848 25.20834,30.62505 0,17.2218 -14.02813,31.24998 -31.25,31.24998 -17.22187,0 -31.249997,-14.02818 -31.249997,-31.24998 0,-16.8596 13.485057,-30.46851 30.208327,-31.04172 L 130.29167,88.83336 109.25,65.2917 l 10,-18.12501 -8.95834,-17.50001 C 63.506687,38.02368 28,78.81214 28,128.00007 c 0,55.22844 44.77154,100 100,100 55.22852,0 100,-44.77156 100,-100 0,-55.15824 -44.66013,-99.8862 -99.79167,-100 z m -0.20833,75 c -13.84411,0 -25.00001,11.15556 -25.00001,25 0,13.84438 11.1559,25 25.00001,25 13.84414,0 24.99999,-11.15562 24.99999,-25 0,-13.84444 -11.15585,-25 -24.99999,-25 z m 0,9.37501 c 8.62946,0 15.62499,6.99552 15.62499,15.62499 0,8.62947 -6.99553,15.62499 -15.62499,15.62499 -8.62943,0 -15.62501,-6.99552 -15.62501,-15.62499 0,-8.62947 6.99558,-15.62499 15.62501,-15.62499 z"
       style="fill:#ffffff"
       inkscape:connector-curvature="0" />
  </g>
</svg>
