<?xml version="1.0" encoding="UTF-8" standalone="no"?>
<svg
   xmlns:dc="http://purl.org/dc/elements/1.1/"
   xmlns:cc="http://creativecommons.org/ns#"
   xmlns:rdf="http://www.w3.org/1999/02/22-rdf-syntax-ns#"
   xmlns:svg="http://www.w3.org/2000/svg"
   xmlns="http://www.w3.org/2000/svg"
   xmlns:xlink="http://www.w3.org/1999/xlink"
   xmlns:sodipodi="http://sodipodi.sourceforge.net/DTD/sodipodi-0.dtd"
   xmlns:inkscape="http://www.inkscape.org/namespaces/inkscape"
   viewBox="0 0 48 48"
   id="svg2"
   version="1.1"
   inkscape:version="0.48.3.1 r9886"
   width="100%"
   height="100%"
   sodipodi:docname="avidemux.svg">
  <metadata
     id="metadata36">
    <rdf:RDF>
      <cc:Work
         rdf:about="">
        <dc:format>image/svg+xml</dc:format>
        <dc:type
           rdf:resource="http://purl.org/dc/dcmitype/StillImage" />
        <dc:title />
      </cc:Work>
    </rdf:RDF>
  </metadata>
  <sodipodi:namedview
     pagecolor="#ffffff"
     bordercolor="#666666"
     borderopacity="1"
     objecttolerance="10"
     gridtolerance="10"
     guidetolerance="10"
     inkscape:pageopacity="0"
     inkscape:pageshadow="2"
     inkscape:window-width="1280"
     inkscape:window-height="1000"
     id="namedview34"
     showgrid="false"
     inkscape:snap-global="false"
     inkscape:zoom="8.3597832"
     inkscape:cx="33.749368"
     inkscape:cy="14.190075"
     inkscape:window-x="0"
     inkscape:window-y="24"
     inkscape:window-maximized="1"
     inkscape:current-layer="svg2" />
  <defs
     id="defs4">
    <linearGradient
       id="linearGradient3895-9-0-3-2-4-0">
      <stop
         offset="0"
         style="stop-color:#a8c0f1"
         id="stop7" />
      <stop
         offset="1"
         style="stop-color:#082050"
         id="stop9" />
    </linearGradient>
    <radialGradient
       cx="148.004"
       cy="160"
       gradientTransform="matrix(0.97656,0,0,0.97656,-16.5349,-236.25)"
       r="128"
       id="radialGradient4432"
       xlink:href="#linearGradient3895-9-0-3-2-4-0"
       gradientUnits="userSpaceOnUse" />
    <radialGradient
       cx="148.004"
       cy="160"
       gradientTransform="matrix(0.97656,0,0,0.97656,-16.5349,-236.25)"
       r="128"
       id="radialGradient4432-3"
       xlink:href="#linearGradient3895-9-0-3-2-4-0-0"
       gradientUnits="userSpaceOnUse" />
    <linearGradient
       id="linearGradient3895-9-0-3-2-4-0-0">
      <stop
         offset="0"
         style="stop-color:#a8c0f1"
         id="stop7-0" />
      <stop
         offset="1"
         style="stop-color:#082050"
         id="stop9-9" />
    </linearGradient>
    <radialGradient
       inkscape:collect="always"
       xlink:href="#linearGradient3895-9-0-3-2-4-0"
       id="radialGradient3015"
       gradientUnits="userSpaceOnUse"
       gradientTransform="matrix(0.97656,0,0,0.97656,-16.5349,-236.25)"
       cx="148.004"
       cy="160"
       r="128" />
    <radialGradient
       inkscape:collect="always"
       xlink:href="#linearGradient3895-9-0-3-2-4-0"
       id="radialGradient3037"
       gradientUnits="userSpaceOnUse"
       gradientTransform="matrix(0.97656,0,0,0.97656,-16.5349,-236.25)"
       cx="148.004"
       cy="160"
       r="128" />
    <radialGradient
       inkscape:collect="always"
       xlink:href="#linearGradient3895-9-0-3-2-4-0"
       id="radialGradient3056"
       gradientUnits="userSpaceOnUse"
       gradientTransform="matrix(0.97656,0,0,0.97656,-16.5349,-236.25)"
       cx="148.004"
       cy="160"
       r="128" />
    <radialGradient
       inkscape:collect="always"
       xlink:href="#linearGradient3895-9-0-3-2-4-0"
       id="radialGradient3070"
       gradientUnits="userSpaceOnUse"
       gradientTransform="matrix(0.97656,0,0,0.97656,-16.5349,-236.25)"
       cx="148.004"
       cy="160"
       r="128" />
  </defs>
  <g
     id="g3058"
     transform="matrix(0.1875,0,0,0.1875,-0.03456313,39.02541)">
    <g
       transform="translate(0.18167,-0.13285444)"
       id="g12">
      <path
         inkscape:connector-curvature="0"
         id="path14"
         d="m 253,-146.40625 0,132.8125 C 253,41.09375 253,45 194.40625,45 L 61.59375,45 C 3,45 3,41.09375 3,-13.59375 l 0,-132.8125 C 3,-201.09375 3,-205 61.59375,-205 l 132.8125,0 C 253,-205 253,-201.09375 253,-146.40625 z"
         style="color:#bebebe;fill:url(#radialGradient3070)" />
    </g>
    <path
       style="opacity:0.05;fill:#ffffff"
       d="m 204.26199,44.860736 c 13.55517,-0.064 23.34858,-0.43514 30.45654,-2.34978 L 212.16605,3.8463154 188.24026,44.860736 l 6.34766,0 c 3.41797,0 6.64139,0.0143 9.67407,0 z M 212.16605,3.8463154 184.8223,-43.027304 157.47855,3.8463154 l 54.6875,0 z m 0,0 40.802,0 c 0.16456,-5.18299 0.21362,-11.00178 0.21362,-17.5776094 l 0,-5.8592 -13.67187,-23.43681 -27.34375,46.8736194 z m 27.34375,-46.8736194 -27.34375,-46.87362 -27.34375,46.87362 54.6875,0 z m 0,0 13.67187,0 0,-23.43681 -13.67187,23.43681 z m -54.6875,0 -27.34375,-46.87362 -27.34376,46.87362 54.68751,0 z m -54.68751,0 -27.34374,46.8736194 54.6875,0 -27.34376,-46.8736194 z m 0,0 -27.34374,-46.87362 -27.34375,46.87362 54.68749,0 z m -54.68749,0 -27.34375,46.8736194 54.6875,0 L 75.4473,-43.027304 z m 0,0 -27.34375,-46.87362 -27.34376,46.87362 54.68751,0 z m -54.68751,0 -17.57812,30.11996 c 0.003,6.2260794 0.0559,11.7983494 0.21361,16.7536594 l 44.70827,0 -27.34376,-46.8736194 z m 0,0 -17.57812,-30.11997 0,30.11997 17.57812,0 z M 48.10355,3.8463154 25.09328,43.273866 c 8.52703,1.57164 20.31178,1.58687 36.68214,1.58687 l 10.2539,0 L 48.10355,3.8463154 z m 0,-93.7472394 -27.34376,-46.873606 -17.57812,30.11995 0,16.753656 44.92188,0 z m 0,0 54.6875,0 -27.34375,-46.873606 -27.34375,46.873606 z m 27.34375,-46.873606 -27.34375,-46.87364 -27.34376,46.87364 54.68751,0 z m 0,0 54.68749,0 -27.34374,-46.87364 -27.34375,46.87364 z m 27.34375,-46.87364 -12.54273,-21.48374 -28.4729,0 c -0.39895,0 -0.7356,-1e-5 -1.12916,0 l -12.54271,21.48374 54.6875,0 z m 0,0 54.6875,0 -12.54273,-21.48374 -29.60205,0 -12.54272,21.48374 z m 54.6875,0 54.6875,0 -12.54273,-21.48374 c -1.67321,-0.002 -3.25633,0 -5.0354,0 l -24.56665,0 -12.54272,21.48374 z m 0,0 -27.34376,46.87364 54.68751,0 -27.34375,-46.87364 z m 27.34375,46.87364 54.6875,0 -27.34375,-46.87364 -27.34375,46.87364 z m 0,0 -27.34375,46.873606 54.6875,0 -27.34375,-46.873606 z m 27.34375,46.873606 41.01562,0 0,-23.436806 -13.67187,-23.4368 -27.34375,46.873606 z m 27.34375,-46.873606 13.67187,0 0,-9.76535 c 0,-4.89463 -0.0402,-9.34683 -0.12207,-13.45786 l -13.5498,23.22321 z m -82.03125,46.873606 -27.34376,-46.873606 -27.34374,46.873606 54.6875,0 z m 54.6875,-93.747246 38.97094,0 c -2.94957,-14.71522 -10.05142,-19.35598 -26.82494,-20.81237 l -12.146,20.81237 z m -164.0625,0 -12.2986,-21.08702 c -19.50933,1.10943 -27.41641,5.311 -30.57861,21.08702 l 42.87721,0 z m -27.34376,46.87364 -17.27295,-29.63171 c -0.23062,5.73399 -0.30517,12.30817 -0.30517,19.86636 l 0,9.76535 17.57812,0 z M 102.79105,3.8463154 78.86526,44.860736 l 47.85157,0 -23.92578,-41.0144206 z m 54.6875,0 -23.92579,41.0144206 47.85157,0 L 157.47855,3.8463154 z M 14.01541,39.154116 5.47049,24.506116 c 1.57234,7.02888 4.1916,11.64072 8.54492,14.648 z"
       id="path18"
       inkscape:connector-curvature="0" />
    <g
       id="g3048">
      <path
         style="color:#bebebe;fill:#ffffff"
         d="m 75.78125,-178.3125 c -44.715929,0 -46.054461,2.9999 -46.09375,42.46875 l 196.625,0 c -0.0393,-39.46885 -1.37782,-42.46875 -46.09375,-42.46875 l -104.4375,0 z m -0.4375,9.53125 14.40625,0 7.1875,11.6875 -7.1875,11.71875 -14.40625,0 7.1875,-11.71875 -7.1875,-11.6875 z m 28.46875,0 14.40625,0 7.1875,11.6875 -7.1875,11.71875 -14.40625,0 7.1875,-11.71875 -7.1875,-11.6875 z m 27.5625,0 14.375,0 7.1875,11.6875 -7.1875,11.71875 -14.375,0 7.1875,-11.71875 -7.1875,-11.6875 z m 27.6875,0 14.40625,0 7.1875,11.6875 -7.1875,11.71875 -14.40625,0 7.1875,-11.71875 -7.1875,-11.6875 z"
         id="path3005"
         inkscape:connector-curvature="0" />
      <path
         style="color:#bebebe;fill:#ffffff"
         d="M 29.6875,-24.15625 C 29.72679,15.3126 31.065321,18.3125 75.78125,18.3125 l 104.4375,0 c 44.71593,0 46.05446,-2.9999 46.09375,-42.46875 l -196.625,0 z m 45.65625,9.53125 14.40625,0 7.1875,11.71875 -7.1875,11.6875 -14.40625,0 7.1875,-11.6875 -7.1875,-11.71875 z m 28.46875,0 14.40625,0 7.1875,11.71875 -7.1875,11.6875 -14.40625,0 L 111,-2.90625 103.8125,-14.625 z m 27.5625,0 14.375,0 7.1875,11.71875 -7.1875,11.6875 -14.375,0 7.1875,-11.6875 -7.1875,-11.71875 z m 27.6875,0 14.40625,0 7.1875,11.71875 -7.1875,11.6875 -14.40625,0 7.1875,-11.6875 -7.1875,-11.71875 z"
         id="path3015"
         inkscape:connector-curvature="0" />
      <g
         transform="matrix(16.199012,0,0,16.199012,18.27872,-189.72128)"
         id="g3078"
         style="fill:#ffffff">
        <g
           id="g72"
           transform="matrix(0.254,0,0,0.254,3.21733,3.72533)"
           style="fill:#ffffff">
          <path
             inkscape:connector-curvature="0"
             id="path74"
             d="M 6,2 C 6,13 11,11 16.78,15.66 16.29,16.32 16,17.11 16,18 c 0,2.21 1.79,4 4,4 2.21,0 4,-1.79 4,-4 0,-0.36 -0.1,-0.7 -0.16,-1.03 L 24,17 23.78,16.72 c -0.3,-0.88 -0.91,-1.6 -1.69,-2.1 z m 14,14 c 1.1,0 2,0.9 2,2 0,1.1 -0.9,2 -2,2 -1.1,0 -2,-0.9 -2,-2 0,-1.1 0.9,-2 2,-2 z"
             style="fill:#ffffff" />
        </g>
        <path
           inkscape:connector-curvature="0"
           id="path76-6"
           d="m 8.8053336,4.2333333 c 0,2.7940001 -1.2700001,2.2860001 -2.7381201,3.4696402 0.12446,0.16764 0.19812,0.3683 0.19812,0.59436 0,0.56134 -0.45466,1.016 -1.016,1.016 -0.5613401,0 -1.0160001,-0.45466 -1.0160001,-1.016 0,-0.09144 0.01778,-0.1778 0.04064,-0.26162 l -0.04064,0.00762 0.05588,-0.07112 c 0.0762,-0.22352 0.23114,-0.4064 0.42926,-0.5334001 z M 5.2493335,7.7893335 c -0.2794001,0 -0.5080001,0.2286 -0.5080001,0.508 0,0.2794 0.2286,0.508 0.5080001,0.508 0.2794,0 0.508,-0.2286 0.508,-0.508 0,-0.2794 -0.2286,-0.508 -0.508,-0.508 z"
           style="fill:#ffffff" />
      </g>
    </g>
  </g>
</svg>
