<?xml version="1.0" encoding="UTF-8" standalone="no"?>
<svg
   xmlns:dc="http://purl.org/dc/elements/1.1/"
   xmlns:cc="http://creativecommons.org/ns#"
   xmlns:rdf="http://www.w3.org/1999/02/22-rdf-syntax-ns#"
   xmlns:svg="http://www.w3.org/2000/svg"
   xmlns="http://www.w3.org/2000/svg"
   xmlns:sodipodi="http://sodipodi.sourceforge.net/DTD/sodipodi-0.dtd"
   xmlns:inkscape="http://www.inkscape.org/namespaces/inkscape"
   width="48"
   height="48"
   viewBox="0 0 48 48"
   id="svg2"
   version="1.1"
   inkscape:version="0.48.4 r9939"
   sodipodi:docname="bluefish.svg">
  <metadata
     id="metadata25">
    <rdf:RDF>
      <cc:Work
         rdf:about="">
        <dc:format>image/svg+xml</dc:format>
        <dc:type
           rdf:resource="http://purl.org/dc/dcmitype/StillImage" />
      </cc:Work>
    </rdf:RDF>
  </metadata>
  <sodipodi:namedview
     pagecolor="#ffffff"
     bordercolor="#666666"
     borderopacity="1"
     objecttolerance="10"
     gridtolerance="10"
     guidetolerance="10"
     inkscape:pageopacity="0"
     inkscape:pageshadow="2"
     inkscape:window-width="1280"
     inkscape:window-height="1000"
     id="namedview23"
     showgrid="false"
     inkscape:zoom="3.4766083"
     inkscape:cx="19.995827"
     inkscape:cy="23.18644"
     inkscape:window-x="0"
     inkscape:window-y="24"
     inkscape:window-maximized="1"
     inkscape:current-layer="svg2" />
  <defs
     id="defs4">
    <radialGradient
       cx="148.004"
       cy="160"
       gradientTransform="matrix(.1831 0 0 .1831 -3.10029 -5.29688)"
       id="radial0"
       r="128"
       gradientUnits="userSpaceOnUse">
      <stop
         offset="0"
         style="stop-color:#d1eefa"
         id="stop7" />
      <stop
         offset="1"
         style="stop-color:#17789c"
         id="stop9" />
    </radialGradient>
  </defs>
  <path
     style="fill:url(#radial0)"
     d="M 47.4375 11.546875 L 47.4375 36.453125 C 47.4375 46.703125 47.4375 47.4375 36.453125 47.4375 L 11.550781 47.4375 C 0.5625 47.4375 0.5625 46.703125 0.5625 36.453125 L 0.5625 11.546875 C 0.5625 1.296875 0.5625 0.5625 11.550781 0.5625 L 36.453125 0.5625 C 47.4375 0.5625 47.4375 1.296875 47.4375 11.546875 Z "
     id="path11" />
  <path
     inkscape:connector-curvature="0"
     id="path15"
     d="m 38.265625,47.4375 c 2.542969,-0.01172 4.378906,-0.08203 5.710937,-0.441406 l -4.230468,-7.25 -4.484375,7.691406 1.191406,0 c 0.640625,0 1.242187,0 1.8125,0 z m 1.480469,-7.691406 -5.125,-8.789063 -5.128906,8.789063 z m 0,0 7.652344,0 c 0.03125,-0.972656 0.03906,-2.0625 0.03906,-3.296875 l 0,-1.097657 -2.5625,-4.394531 z m 5.128906,-8.789063 -5.128906,-8.789062 -5.125,8.789062 z m 0,0 2.5625,0 0,-4.394531 z m -10.253906,0 -5.128906,-8.789062 -5.125,8.789062 z m -10.253906,0 -5.128907,8.789063 10.253907,0 z m 0,0 -5.128907,-8.789062 -5.125,8.789062 z m -10.253907,0 -5.128906,8.789063 10.253906,0 z m 0,0 -5.128906,-8.789062 -5.125,8.789062 z m -10.253906,0 -3.296875,5.648438 c 0,1.167969 0.011719,2.210937 0.039062,3.140625 l 8.382813,0 z m 0,0 -3.296875,-5.648437 0,5.648437 z m 5.125,8.789063 -4.3125,7.394531 c 1.597656,0.292969 3.808594,0.296875 6.878906,0.296875 l 1.921875,0 z m 0,-17.578125 -5.125,-8.789063 -3.296875,5.648438 0,3.140625 z m 0,0 10.253906,0 -5.125,-8.789063 z m 5.128906,-8.789063 -5.128906,-8.789062 -5.125,8.789062 z m 0,0 10.253907,0 -5.128907,-8.789062 z m 5.125,-8.789062 -2.351562,-4.027344 -5.339844,0 c -0.07422,0 -0.136719,0 -0.210937,0 L 8.984375,4.589844 z m 0,0 10.253907,0 -2.351563,-4.027344 -5.550781,0 z m 10.253907,0 10.253906,0 L 37.394531,0.5625 c -0.3125,0 -0.609375,0 -0.945312,0 l -4.605469,0 z m 0,0 -5.125,8.789062 10.253906,0 z m 5.128906,8.789062 10.253906,0 -5.128906,-8.789062 z m 0,0 -5.128906,8.789063 10.253906,0 z m 5.125,8.789063 7.691406,0 0,-4.394531 -2.5625,-4.394532 z m 5.128906,-8.789063 2.5625,0 0,-1.832031 c 0,-0.914063 -0.0078,-1.75 -0.02344,-2.523437 z m -15.382812,8.789063 -5.125,-8.789063 -5.128907,8.789063 z m 10.253906,-17.578125 7.308594,0 C 46.5,1.832031 45.167969,0.960938 42.023438,0.6875 z m -30.761719,0 L 6.679688,0.636719 C 3.019531,0.84375 1.539062,1.632812 0.945312,4.589844 z m -5.125,8.789062 L 0.621094,7.824219 C 0.578125,8.898438 0.5625,10.132812 0.5625,11.546875 l 0,1.832031 z m 15.378906,26.367188 -4.484375,7.691406 8.972656,0 z m 10.253907,0 -4.484376,7.691406 8.972657,0 z M 2.59375,46.367188 0.992188,43.621094 c 0.292968,1.316406 0.785156,2.179687 1.601562,2.746094 z"
     style="fill:#ffffff;fill-opacity:0.05100002" />
  <path
     sodipodi:type="arc"
     style="fill:#17789c;fill-opacity:0.72687227;stroke:none"
     id="path3755"
     sodipodi:cx="-10.211102"
     sodipodi:cy="21.825064"
     sodipodi:rx="5.1774597"
     sodipodi:ry="6.3999157"
     d="m -5.0336418,21.825064 a 5.1774597,6.3999157 0 1 1 -10.3549192,0 5.1774597,6.3999157 0 1 1 10.3549192,0 z"
     transform="matrix(2.1249999,0,0,1.7921348,42.264611,-14.5918)" />
  <path
     style="fill:#ffffff"
     inkscape:connector-curvature="0"
     id="path20"
     d="m 39.532644,9.6875 c 0,0 -3.60425,0.54599 -5.65625,3.4375 -1.539,2.16863 -1.4161,5.12648 -1.25,6.46875 -2.8357,-3.79649 -7.6883,-7.40625 -11.9375,-7.40625 -1.4325,0 -2.7934,0.2906 -4.0625,0.8125 -0.6975,-0.24047 -2.246,-0.69353 -3.75,-0.34375 -2.0054,0.46637 -2.9898998,1.40038 -4.0625,3.3125 -1.0727,1.91213 -0.81205,4.34898 -0.71875,5.375 0.093,1.02602 0.78125,1.8125 0.78125,1.8125 L 8.938894,22.75 8.720144,22.59375 c 0,0 -0.37455,-1.70716 -0.28125,-2.5 0.093,-0.79283 0.4105,-1.64324 1.2500002,-2.15625 0.5935998,-0.36281 1.0770998,-0.29692 1.4374998,-0.21875 -0.3355,0.52513 -0.64195,1.0786 -0.90625,1.65625 -0.1227,-0.0519 -0.2333998,-0.09375 -0.3749998,-0.09375 -0.5667002,0 -1.0312502,0.43335 -1.0312502,1 0,0.45119 0.2828,0.83133 0.6875,0.96875 -0.3631,1.2545 -0.5625,2.60975 -0.5625,4 0,1.80299 0.343,3.56203 0.9375002,5.125 C 9.016994,30.8022 8.162844,31.82439 9.6576442,32.84375 9.550144,32.88955 9.464944,32.92851 9.407644,33 c -0.7462,0.93274 0.9414,1.6591 1.6875,2.21875 0.4023,0.30166 1.53745,0.78305 3.09375,0.9375 1.862,1.3787 4.0949,2.15625 6.5,2.15625 4.7845,0 10.32815,-3.98565 12.90625,-8.375 0.6339,0.48809 1.51515,1.11698 2.59375,1.65625 2.052,1.02601 3.8125,0.46875 3.8125,0.46875 0,0 -2.22255,-2.51046 -2.96875,-4.5625 -0.7462,-2.05203 0.06525,-4.94273 0.53125,-5.96875 0.4664,-1.02602 0.874,-5.88736 0.6875,-8.3125 -0.1865,-2.42513 1.28125,-3.53125 1.28125,-3.53125 z m -16,3.59375 c 0.4703,0.0263 0.88415,0.15759 1.15625,0.28125 0.7254,0.32978 1.90625,2.15625 1.90625,2.15625 0,0 -2.06295,-2.69425 -3.84375,-1.96875 -1.7807,0.7255 -2.71185,2.22251 -2.84375,3.34375 -0.037,0.31415 -0.0435,0.66434 -0.0625,0.96875 0.3945,-0.21368 0.9476,-0.42223 1.75,-0.46875 0.2639,-0.0153 0.5601,0.0077 0.875,0.03125 2.311002,0.171187 3.380529,0.475503 4.1875,1.03125 l 0.0625,0.0625 c 0.04832,0.03468 0.109337,0.05726 0.15625,0.09375 0.08161,0.06348 0.142927,0.144671 0.21875,0.21875 0.02166,0.02116 0.04133,0.04066 0.0625,0.0625 l 0.15625,0.125 c 0.111607,0.08929 0.224909,0.22123 0.34375,0.375 -0.110901,-0.887862 -0.305396,-2.265266 -0.5625,-2.84375 l -0.34375,-0.8125 c 0,0 0.790179,0.866071 1.28125,2.875 0.491072,2.008928 0.977679,2.03125 0.84375,3.28125 l -0.03125,0.21875 c 0.0034,0.02166 -0.003,0.0411 0,0.0625 0.01956,0.139815 0.03125,0.28042 0.03125,0.40625 0,1.160714 -1.28125,3.25 -1.28125,3.25 0,0 0.616072,-1.205357 0.75,-2.8125 0.0594,-0.712794 -0.03781,-1.204936 -0.15625,-1.5625 -0.126924,1.289733 -0.59083,3.621053 -2.53125,4.15625 -2.6088,0.71965 -4.5491,0.65147 -5.9375,-2.03125 0.018,0.0851 0.0415,0.16994 0.0625,0.25 0.3958,1.51697 1.93105,2.90986 3.84375,3.4375 0.9334,0.25751 1.7603,0.09703 2.375,-0.125 -0.7169,0.32447 -1.67615,0.6658 -2.46875,0.59375 -1.451,-0.13191 -3.6665,-1.61658 -4.6875,-3.21875 -0.8607,-1.35061 -0.66085,-2.59692 -0.78125,-4.75 0.077,-1.96898 0.68475,-4.04553 2.53125,-5.5625 1.1542,-0.94811 2.1537,-1.16879 2.9375,-1.125 z m 1.15625,5.90625 c -0.747,0 -1.34375,0.62805 -1.34375,1.375 0,0.74696 0.59675,1.34375 1.34375,1.34375 0.747,0 1.34375,-0.59679 1.34375,-1.34375 0,-0.74695 -0.59675,-1.375 -1.34375,-1.375 z m -1.09375,9.625 c 0.05056,0.01765 0.115,0.05904 0.15625,0.125 0.3297,0.52764 -0.21215,1.58024 -1.53125,3.03125 -1.3191,1.451 -2.375,2.28125 -2.375,2.28125 0,0 1.6561,-1.67714 1.0625,-1.875 -0.5936,-0.19786 -1.44955,1.21596 -4.96875,1.4375 -2.1981,0.13836 -5.78125,-0.5625 -5.78125,-0.5625 0,0 3.43745,0.49295 5.90625,0.125 2.7053,-0.40325 5.60725,-1.9722 4.15625,-1.90625 -1.451,0.066 -2.28125,0.03125 -2.28125,0.03125 0,0 1.9831,-0.5245 3.5,-1.25 1.1377,-0.54413 1.6599,-1.27949 2,-1.40625 0.0567,-0.02115 0.105688,-0.0489 0.15625,-0.03125 z" />
</svg>
