<?xml version="1.0" encoding="UTF-8" standalone="no"?>
<svg
   xmlns:dc="http://purl.org/dc/elements/1.1/"
   xmlns:cc="http://creativecommons.org/ns#"
   xmlns:rdf="http://www.w3.org/1999/02/22-rdf-syntax-ns#"
   xmlns:svg="http://www.w3.org/2000/svg"
   xmlns="http://www.w3.org/2000/svg"
   xmlns:sodipodi="http://sodipodi.sourceforge.net/DTD/sodipodi-0.dtd"
   xmlns:inkscape="http://www.inkscape.org/namespaces/inkscape"
   width="48"
   height="48"
   viewBox="0 0 48 48"
   id="svg2"
   version="1.1"
   inkscape:version="0.48.4 r9939"
   sodipodi:docname="comix.svg">
  <metadata
     id="metadata27">
    <rdf:RDF>
      <cc:Work
         rdf:about="">
        <dc:format>image/svg+xml</dc:format>
        <dc:type
           rdf:resource="http://purl.org/dc/dcmitype/StillImage" />
      </cc:Work>
    </rdf:RDF>
  </metadata>
  <sodipodi:namedview
     pagecolor="#ffffff"
     bordercolor="#666666"
     borderopacity="1"
     objecttolerance="10"
     gridtolerance="10"
     guidetolerance="10"
     inkscape:pageopacity="0"
     inkscape:pageshadow="2"
     inkscape:window-width="1440"
     inkscape:window-height="838"
     id="namedview25"
     showgrid="false"
     inkscape:zoom="4.9166667"
     inkscape:cx="20.440678"
     inkscape:cy="24"
     inkscape:window-x="1272"
     inkscape:window-y="-8"
     inkscape:window-maximized="1"
     inkscape:current-layer="svg2" />
  <defs
     id="defs4">
    <radialGradient
       cx="148.004"
       cy="160"
       gradientTransform="matrix(.1831 0 0 .1831 -3.10029 -5.29688)"
       id="radial0"
       r="128"
       gradientUnits="userSpaceOnUse">
      <stop
         offset="0"
         style="stop-color:#b3ea69"
         id="stop7" />
      <stop
         offset="1"
         style="stop-color:#4f8505"
         id="stop9" />
    </radialGradient>
  </defs>
  <path
     style="fill:url(#radial0)"
     d="M 47.4375 11.546875 L 47.4375 36.453125 C 47.4375 46.703125 47.4375 47.4375 36.453125 47.4375 L 11.550781 47.4375 C 0.5625 47.4375 0.5625 46.703125 0.5625 36.453125 L 0.5625 11.546875 C 0.5625 1.296875 0.5625 0.5625 11.550781 0.5625 L 36.453125 0.5625 C 47.4375 0.5625 47.4375 1.296875 47.4375 11.546875 Z "
     id="path11" />
  <path
     inkscape:connector-curvature="0"
     id="path15"
     d="m 38.265625,47.4375 c 2.542969,-0.01172 4.378906,-0.08203 5.710937,-0.441406 l -4.230468,-7.25 -4.484375,7.691406 1.191406,0 c 0.640625,0 1.242187,0 1.8125,0 z m 1.480469,-7.691406 -5.125,-8.789063 -5.128906,8.789063 z m 0,0 7.652344,0 c 0.03125,-0.972656 0.03906,-2.0625 0.03906,-3.296875 l 0,-1.097657 -2.5625,-4.394531 z m 5.128906,-8.789063 -5.128906,-8.789062 -5.125,8.789062 z m 0,0 2.5625,0 0,-4.394531 z m -10.253906,0 -5.128906,-8.789062 -5.125,8.789062 z m -10.253906,0 -5.128907,8.789063 10.253907,0 z m 0,0 -5.128907,-8.789062 -5.125,8.789062 z m -10.253907,0 -5.128906,8.789063 10.253906,0 z m 0,0 -5.128906,-8.789062 -5.125,8.789062 z m -10.253906,0 -3.296875,5.648438 c 0,1.167969 0.011719,2.210937 0.039062,3.140625 l 8.382813,0 z m 0,0 -3.296875,-5.648437 0,5.648437 z m 5.125,8.789063 -4.3125,7.394531 c 1.597656,0.292969 3.808594,0.296875 6.875,0.296875 l 1.925781,0 z m 0,-17.578125 -5.125,-8.789063 -3.296875,5.648438 0,3.140625 z m 0,0 10.253906,0 -5.125,-8.789063 z m 5.128906,-8.789063 -5.128906,-8.789062 -5.125,8.789062 z m 0,0 10.253907,0 -5.128907,-8.789062 z m 5.125,-8.789062 -2.351562,-4.027344 -5.339844,0 c -0.07422,0 -0.136719,0 -0.210937,0 L 8.984375,4.589844 z m 0,0 10.253907,0 -2.351563,-4.027344 -5.550781,0 z m 10.253907,0 10.253906,0 L 37.394531,0.5625 c -0.3125,0 -0.609375,0 -0.945312,0 l -4.605469,0 z m 0,0 -5.125,8.789062 10.253906,0 z m 5.128906,8.789062 10.253906,0 -5.128906,-8.789062 z m 0,0 -5.128906,8.789063 10.253906,0 z m 5.125,8.789063 7.691406,0 0,-4.394531 -2.5625,-4.394532 z m 5.128906,-8.789063 2.5625,0 0,-1.832031 c 0,-0.914063 -0.0078,-1.75 -0.02344,-2.523437 z m -15.382812,8.789063 -5.125,-8.789063 -5.128907,8.789063 z m 10.253906,-17.578125 7.308594,0 C 46.5,1.832031 45.167969,0.960938 42.023438,0.6875 z m -30.761719,0 L 6.679688,0.636719 C 3.019531,0.84375 1.539062,1.632812 0.945312,4.589844 z m -5.125,8.789062 L 0.621094,7.824219 C 0.578125,8.898438 0.5625,10.132812 0.5625,11.546875 l 0,1.832031 z m 15.378906,26.367188 -4.484375,7.691406 8.972656,0 z m 10.253907,0 -4.484376,7.691406 8.972657,0 z M 2.59375,46.367188 0.992188,43.621094 c 0.292968,1.316406 0.785156,2.179687 1.601562,2.746094 z"
     style="fill:#ffffff;fill-opacity:0.05100002" />
  <g
     style="fill:#ffffff"
     transform="matrix(0.86029,0,0,0.86029,-1408.0953,-311.67366)"
     id="g18">
    <path
       inkscape:connector-curvature="0"
       d="m 24,9.25 c -0.5258,0 -1.02345,0.03975 -1.53125,0.09375 C 22.06525,9.38665 21.6495,9.43615 21.25,9.5 l 0,0.03125 c -1.2985,0.22473 -2.5648,0.56749 -3.75,1.0625 -2.0702,0.86463 -3.63405,1.73977 -5.21875,3.28125 0.4766,0.92996 1.4009,2.56491 2,3.34375 l -4.625,0 c -0.9952,1.42538 -1.6473,2.55811 -2.1875,4.25 -0.5405,1.69189 -0.84375,3.50542 -0.84375,5.375 0,8.69581 6.3331,15.92423 14.625,17.34375 l 0,0.03125 c 0.3875,0.061 0.7935,0.0889 1.1875,0.125 0.5193,0.0476 1.0293,0.09375 1.5625,0.09375 0.074,9.2e-4 0.14435,0 0.21875,0 0.5346,0 1.07305,-0.04595 1.59375,-0.09375 0.3926,-0.0361 0.77015,-0.0642 1.15625,-0.125 l 0,-0.03125 c 8.2968,-1.41542 14.625,-8.64444 14.625,-17.34375 0,-1.86958 -0.30345,-3.68311 -0.84375,-5.375 -0.5403,-1.69189 -1.1925,-2.82462 -2.1875,-4.25 l -4.625,0 c 0.5991,-0.77884 1.5233,-2.41379 2,-3.34375 -1.5847,-1.54148 -3.14865,-2.41662 -5.21875,-3.28125 -1.1853,-0.49501 -2.4515,-0.83777 -3.75,-1.0625 l 0,-0.03125 C 26.56015,9.4347 26.1628,9.38704 25.75,9.34375 25.2511,9.29145 24.73495,9.25 24.21875,9.25 24.14475,9.24907 24.0743,9.25 24,9.25 z m -9.46875,15.6875 c 1.415651,0 2.5625,1.146849 2.5625,2.5625 0,1.415651 -1.146849,2.5625 -2.5625,2.5625 -1.415651,0 -2.5625,-1.146849 -2.5625,-2.5625 0,-1.415651 1.146849,-2.5625 2.5625,-2.5625 z m 19.15625,0 c 1.415651,0 2.5625,1.146849 2.5625,2.5625 0,1.415651 -1.146849,2.5625 -2.5625,2.5625 -1.415651,0 -2.5625,-1.146849 -2.5625,-2.5625 0,-1.415651 1.146849,-2.5625 2.5625,-2.5625 z m -22.3125,8.78125 9.875,0 5.71875,0 9.875,0 0,0.53125 -2.1875,0 c -0.035,1.84639 -1.30445,2.84419 -2.46875,3.9375 -1.178,-1.25799 -1.81805,-2.61595 -1.40625,-3.9375 l -3.8125,0 -5.71875,0 -3.8125,0 c 0.4118,1.32155 -0.22845,2.67951 -1.40625,3.9375 C 14.86695,37.09419 13.5975,36.09639 13.5625,34.25 l -2.1875,0 0,-0.53125 z"
       transform="translate(1640.5564,364.34714)"
       id="path20"
       style="fill:#ffffff" />
    <path
       inkscape:connector-curvature="0"
       d="m 1675.3024,381.1186 c 1.6012,-2.08161 2.0521,-3.99255 5.1654,-9.53038 1.282,1.3691 1.6035,7.12252 -1.4154,9.53038 z"
       id="path22"
       style="fill:#ffffff" />
    <path
       inkscape:connector-curvature="0"
       d="m 1653.8104,381.1186 c -1.6012,-2.08161 -2.0521,-3.99255 -5.1654,-9.53038 -1.282,1.3691 -1.6035,7.12252 1.4154,9.53038 z"
       id="path24"
       style="fill:#ffffff" />
  </g>
</svg>
