<?xml version="1.0" encoding="UTF-8" standalone="no"?>
<svg
   xmlns:dc="http://purl.org/dc/elements/1.1/"
   xmlns:cc="http://creativecommons.org/ns#"
   xmlns:rdf="http://www.w3.org/1999/02/22-rdf-syntax-ns#"
   xmlns:svg="http://www.w3.org/2000/svg"
   xmlns="http://www.w3.org/2000/svg"
   xmlns:sodipodi="http://sodipodi.sourceforge.net/DTD/sodipodi-0.dtd"
   xmlns:inkscape="http://www.inkscape.org/namespaces/inkscape"
   width="48"
   height="48"
   viewBox="0 0 48 48"
   id="svg2"
   version="1.1"
   inkscape:version="0.48.4 r9939"
   sodipodi:docname="gnome-clocks (copie).svg">
  <metadata
     id="metadata35">
    <rdf:RDF>
      <cc:Work
         rdf:about="">
        <dc:format>image/svg+xml</dc:format>
        <dc:type
           rdf:resource="http://purl.org/dc/dcmitype/StillImage" />
      </cc:Work>
    </rdf:RDF>
  </metadata>
  <sodipodi:namedview
     pagecolor="#ffffff"
     bordercolor="#666666"
     borderopacity="1"
     objecttolerance="10"
     gridtolerance="10"
     guidetolerance="10"
     inkscape:pageopacity="0"
     inkscape:pageshadow="2"
     inkscape:window-width="1280"
     inkscape:window-height="1000"
     id="namedview33"
     showgrid="false"
     inkscape:zoom="4.9166667"
     inkscape:cx="20.847458"
     inkscape:cy="23.59322"
     inkscape:window-x="0"
     inkscape:window-y="24"
     inkscape:window-maximized="1"
     inkscape:current-layer="svg2" />
  <defs
     id="defs4">
    <radialGradient
       cx="148.004"
       cy="160"
       gradientTransform="matrix(.1831 0 0 .1831 -3.10029 -5.29688)"
       id="radial0"
       r="128"
       gradientUnits="userSpaceOnUse">
      <stop
         offset="0"
         style="stop-color:#a3d05c"
         id="stop7" />
      <stop
         offset="1"
         style="stop-color:#7c9f00"
         id="stop9" />
    </radialGradient>
  </defs>
  <path
     style="fill:url(#radial0)"
     d="M 47.4375 11.546875 L 47.4375 36.453125 C 47.4375 46.703125 47.4375 47.4375 36.453125 47.4375 L 11.550781 47.4375 C 0.5625 47.4375 0.5625 46.703125 0.5625 36.453125 L 0.5625 11.546875 C 0.5625 1.296875 0.5625 0.5625 11.550781 0.5625 L 36.453125 0.5625 C 47.4375 0.5625 47.4375 1.296875 47.4375 11.546875 Z "
     id="path11" />
  <path
     style="fill:#fff;fill-opacity:.051"
     d="M 38.265625 47.4375 C 40.808594 47.425781 42.644531 47.355469 43.976562 46.996094 L 39.746094 39.746094 L 35.261719 47.4375 L 36.453125 47.4375 C 37.09375 47.4375 37.695312 47.4375 38.265625 47.4375 Z M 39.746094 39.746094 L 34.621094 30.957031 L 29.492188 39.746094 Z M 39.746094 39.746094 L 47.398438 39.746094 C 47.429688 38.773438 47.4375 37.683594 47.4375 36.449219 L 47.4375 35.351562 L 44.875 30.957031 Z M 44.875 30.957031 L 39.746094 22.167969 L 34.621094 30.957031 Z M 44.875 30.957031 L 47.4375 30.957031 L 47.4375 26.5625 Z M 34.621094 30.957031 L 29.492188 22.167969 L 24.367188 30.957031 Z M 24.367188 30.957031 L 19.238281 39.746094 L 29.492188 39.746094 Z M 24.367188 30.957031 L 19.238281 22.167969 L 14.113281 30.957031 Z M 14.113281 30.957031 L 8.984375 39.746094 L 19.238281 39.746094 Z M 14.113281 30.957031 L 8.984375 22.167969 L 3.859375 30.957031 Z M 3.859375 30.957031 L 0.5625 36.605469 C 0.5625 37.773438 0.574219 38.816406 0.601562 39.746094 L 8.984375 39.746094 Z M 3.859375 30.957031 L 0.5625 25.308594 L 0.5625 30.957031 Z M 8.984375 39.746094 L 4.671875 47.140625 C 6.269531 47.433594 8.480469 47.4375 11.546875 47.4375 L 13.472656 47.4375 Z M 8.984375 22.167969 L 3.859375 13.378906 L 0.5625 19.027344 L 0.5625 22.167969 Z M 8.984375 22.167969 L 19.238281 22.167969 L 14.113281 13.378906 Z M 14.113281 13.378906 L 8.984375 4.589844 L 3.859375 13.378906 Z M 14.113281 13.378906 L 24.367188 13.378906 L 19.238281 4.589844 Z M 19.238281 4.589844 L 16.886719 0.5625 L 11.546875 0.5625 C 11.472656 0.5625 11.410156 0.5625 11.335938 0.5625 L 8.984375 4.589844 Z M 19.238281 4.589844 L 29.492188 4.589844 L 27.140625 0.5625 L 21.589844 0.5625 Z M 29.492188 4.589844 L 39.746094 4.589844 L 37.394531 0.5625 C 37.082031 0.5625 36.785156 0.5625 36.449219 0.5625 L 31.84375 0.5625 Z M 29.492188 4.589844 L 24.367188 13.378906 L 34.621094 13.378906 Z M 34.621094 13.378906 L 44.875 13.378906 L 39.746094 4.589844 Z M 34.621094 13.378906 L 29.492188 22.167969 L 39.746094 22.167969 Z M 39.746094 22.167969 L 47.4375 22.167969 L 47.4375 17.773438 L 44.875 13.378906 Z M 44.875 13.378906 L 47.4375 13.378906 L 47.4375 11.546875 C 47.4375 10.632812 47.429688 9.796875 47.414062 9.023438 Z M 29.492188 22.167969 L 24.367188 13.378906 L 19.238281 22.167969 Z M 39.746094 4.589844 L 47.054688 4.589844 C 46.5 1.832031 45.167969 0.960938 42.023438 0.6875 Z M 8.984375 4.589844 L 6.679688 0.636719 C 3.019531 0.84375 1.539062 1.632812 0.945312 4.589844 Z M 3.859375 13.378906 L 0.621094 7.824219 C 0.578125 8.898438 0.5625 10.132812 0.5625 11.546875 L 0.5625 13.378906 Z M 19.238281 39.746094 L 14.753906 47.4375 L 23.726562 47.4375 Z M 29.492188 39.746094 L 25.007812 47.4375 L 33.980469 47.4375 Z M 2.59375 46.367188 L 0.992188 43.621094 C 1.285156 44.9375 1.777344 45.800781 2.59375 46.367188 Z "
     id="path13" />
  <g
     transform="translate(-4.4498293e-4,-1.8296183e-4)"
     id="g3031">
    <path
       inkscape:connector-curvature="0"
       id="path18"
       transform="matrix(0.76004,0,0,0.76004,7.7368937,4.8690092)"
       d="m 16.65625,10.28125 c -4.8404,0 -8.8125,3.94088 -8.8125,8.78125 0,3.105904 1.7366017,5.719578 4.1875,7.28125 0.07645,-0.08205 0.108009,-0.202147 0.1875,-0.28125 0.415909,-0.413877 0.977716,-0.643538 1.46875,-0.96875 -2.254653,-1.102167 -3.84375,-3.349941 -3.84375,-6.03125 0,-3.75949 3.053,-6.78125 6.8125,-6.78125 3.7594,0 6.78125,3.02176 6.78125,6.78125 0,2.002337 -0.880711,3.761295 -2.25,5 0.209202,0.07053 0.454378,0.03944 0.65625,0.125 0.455055,0.192872 0.806521,0.548841 1.21875,0.8125 1.452368,-1.567329 2.375,-3.638324 2.375,-5.9375 0,-4.84037 -3.94095,-8.78125 -8.78125,-8.78125 z"
       style="line-height:normal;color:#000000;fill:#ffffff" />
    <g
       id="g20"
       transform="matrix(0.76004,0,0,0.76004,-1719.9426,-694.20876)"
       style="stroke:#ffffff;stroke-width:2.63100004">
      <path
         inkscape:connector-curvature="0"
         id="path22"
         transform="translate(2273.1428,919.79076)"
         d="m 29,16.65625 c -4.299931,0 -7.78125,3.481319 -7.78125,7.78125 0,0.232491 0.105042,0.428941 0.125,0.65625 0.03906,0.01578 0.08626,0.01486 0.125,0.03125 0.93147,0.393979 1.764281,0.951781 2.46875,1.65625 0.704469,0.704469 1.262271,1.53728 1.65625,2.46875 0.308949,0.730438 0.427782,1.550771 0.5,2.375 0.900042,0.36348 1.875981,0.59375 2.90625,0.59375 4.299931,0 7.78125,-3.481319 7.78125,-7.78125 0,-4.299931 -3.481319,-7.78125 -7.78125,-7.78125 z"
         style="fill:#ffffff" />
      <path
         inkscape:connector-curvature="0"
         id="path24"
         transform="translate(2274.9285,933.00505)"
         d="m 24.428571,19.07144 c 0,4.299931 -3.485783,7.785714 -7.785714,7.785714 -4.299932,0 -7.7857146,-3.485783 -7.7857146,-7.785714 0,-4.299931 3.4857826,-7.785714 7.7857146,-7.785714 4.299931,0 7.785714,3.485783 7.785714,7.785714 z"
         style="fill:none" />
    </g>
    <g
       id="g26"
       transform="matrix(0.76004,0,0,0.76004,-1723.2439,-693.51778)">
      <path
         inkscape:connector-curvature="0"
         id="path28"
         transform="translate(2274.8936,920.85213)"
         d="m 44.042652,23.200766 c 0,11.074153 -8.977375,20.051529 -20.051529,20.051529 -11.074153,0 -20.0515287,-8.977376 -20.0515287,-20.051529 0,-11.074154 8.9773757,-20.0515293 20.0515287,-20.0515293 11.074154,0 20.051529,8.9773753 20.051529,20.0515293 z"
         style="fill:none;stroke:#ffffff;stroke-width:2.63100004;stroke-linecap:round;stroke-linejoin:round" />
    </g>
  </g>
</svg>
