<?xml version="1.0" encoding="UTF-8" standalone="no"?>
<svg
   xmlns:dc="http://purl.org/dc/elements/1.1/"
   xmlns:cc="http://creativecommons.org/ns#"
   xmlns:rdf="http://www.w3.org/1999/02/22-rdf-syntax-ns#"
   xmlns:svg="http://www.w3.org/2000/svg"
   xmlns="http://www.w3.org/2000/svg"
   xmlns:sodipodi="http://sodipodi.sourceforge.net/DTD/sodipodi-0.dtd"
   xmlns:inkscape="http://www.inkscape.org/namespaces/inkscape"
   width="48"
   height="48"
   viewBox="0 0 48 48"
   id="svg2"
   version="1.1"
   inkscape:version="0.48.4 r9939"
   sodipodi:docname="evernote (copie).svg">
  <metadata
     id="metadata21">
    <rdf:RDF>
      <cc:Work
         rdf:about="">
        <dc:format>image/svg+xml</dc:format>
        <dc:type
           rdf:resource="http://purl.org/dc/dcmitype/StillImage" />
      </cc:Work>
    </rdf:RDF>
  </metadata>
  <sodipodi:namedview
     pagecolor="#ffffff"
     bordercolor="#666666"
     borderopacity="1"
     objecttolerance="10"
     gridtolerance="10"
     guidetolerance="10"
     inkscape:pageopacity="0"
     inkscape:pageshadow="2"
     inkscape:window-width="1280"
     inkscape:window-height="1000"
     id="namedview19"
     showgrid="false"
     inkscape:zoom="4.9166667"
     inkscape:cx="20.847458"
     inkscape:cy="23.59322"
     inkscape:window-x="0"
     inkscape:window-y="24"
     inkscape:window-maximized="1"
     inkscape:current-layer="svg2" />
  <defs
     id="defs4">
    <radialGradient
       cx="148.004"
       cy="160"
       gradientTransform="matrix(.1831 0 0 .1831 -3.10029 -5.29688)"
       id="radial0"
       r="128"
       gradientUnits="userSpaceOnUse">
      <stop
         offset="0"
         style="stop-color:#f3b1a4"
         id="stop7" />
      <stop
         offset="1"
         style="stop-color:#a20300"
         id="stop9" />
    </radialGradient>
  </defs>
  <path
     style="fill:url(#radial0)"
     d="M 47.4375 11.546875 L 47.4375 36.453125 C 47.4375 46.703125 47.4375 47.4375 36.453125 47.4375 L 11.550781 47.4375 C 0.5625 47.4375 0.5625 46.703125 0.5625 36.453125 L 0.5625 11.546875 C 0.5625 1.296875 0.5625 0.5625 11.550781 0.5625 L 36.453125 0.5625 C 47.4375 0.5625 47.4375 1.296875 47.4375 11.546875 Z "
     id="path11" />
  <path
     inkscape:connector-curvature="0"
     id="path15"
     d="m 38.265625,47.4375 c 2.542969,-0.01172 4.378906,-0.08203 5.710937,-0.441406 l -4.230468,-7.25 -4.484375,7.691406 1.191406,0 c 0.640625,0 1.242187,0 1.8125,0 z m 1.480469,-7.691406 -5.125,-8.789063 -5.128906,8.789063 z m 0,0 7.652344,0 c 0.03125,-0.972656 0.03906,-2.0625 0.03906,-3.296875 l 0,-1.097657 -2.5625,-4.394531 z m 5.128906,-8.789063 -5.128906,-8.789062 -5.125,8.789062 z m 0,0 2.5625,0 0,-4.394531 z m -10.253906,0 -5.128906,-8.789062 -5.125,8.789062 z m -10.253906,0 -5.128907,8.789063 10.253907,0 z m 0,0 -5.128907,-8.789062 -5.125,8.789062 z m -10.253907,0 -5.128906,8.789063 10.253906,0 z m 0,0 -5.128906,-8.789062 -5.125,8.789062 z m -10.253906,0 -3.296875,5.648438 c 0,1.167969 0.011719,2.210937 0.039062,3.140625 l 8.382813,0 z m 0,0 -3.296875,-5.648437 0,5.648437 z m 5.125,8.789063 -4.3125,7.394531 c 1.597656,0.292969 3.808594,0.296875 6.878906,0.296875 l 1.921875,0 z m 0,-17.578125 -5.125,-8.789063 -3.296875,5.648438 0,3.140625 z m 0,0 10.253906,0 -5.125,-8.789063 z m 5.128906,-8.789063 -5.128906,-8.789062 -5.125,8.789062 z m 0,0 10.253907,0 -5.128907,-8.789062 z m 5.125,-8.789062 -2.351562,-4.027344 -5.339844,0 c -0.07422,0 -0.136719,0 -0.210937,0 L 8.984375,4.589844 z m 0,0 10.253907,0 -2.351563,-4.027344 -5.550781,0 z m 10.253907,0 10.253906,0 L 37.394531,0.5625 c -0.3125,0 -0.609375,0 -0.945312,0 l -4.605469,0 z m 0,0 -5.125,8.789062 10.253906,0 z m 5.128906,8.789062 10.253906,0 -5.128906,-8.789062 z m 0,0 -5.128906,8.789063 10.253906,0 z m 5.125,8.789063 7.691406,0 0,-4.394531 -2.5625,-4.394532 z m 5.128906,-8.789063 2.5625,0 0,-1.832031 c 0,-0.914063 -0.0078,-1.75 -0.02344,-2.523437 z m -15.382812,8.789063 -5.125,-8.789063 -5.128907,8.789063 z m 10.253906,-17.578125 7.308594,0 C 46.5,1.832031 45.167969,0.960938 42.023438,0.6875 z m -30.761719,0 L 6.679688,0.636719 C 3.019531,0.84375 1.539062,1.632812 0.945312,4.589844 z m -5.125,8.789062 L 0.621094,7.824219 C 0.578125,8.898438 0.5625,10.132812 0.5625,11.546875 l 0,1.832031 z m 15.378906,26.367188 -4.484375,7.691406 8.972656,0 z m 10.253907,0 -4.484376,7.691406 8.972657,0 z M 2.59375,46.367188 0.992188,43.621094 c 0.292968,1.316406 0.785156,2.179687 1.601562,2.746094 z"
     style="fill:#ffffff;fill-opacity:0.05100002" />
  <g
     id="g3060"
     style="fill:#ffffff"
     transform="translate(0,0.2033901)">
    <path
       d="m 21.5613,26.435195 -5.4375,7.25 c 2.174447,1.685375 4.910928,2.6875 7.875,2.6875 2.884202,0 5.542752,-0.95854 7.6875,-2.5625 l -5.4375,-7.375 c -1.0902,1.27491 -3.4518,1.14287 -4.6875,0 z"
       id="path20"
       style="fill:#ffffff"
       inkscape:connector-curvature="0" />
    <path
       d="m 26.591134,23.332655 c 0,1.449515 -1.175065,2.62458 -2.62458,2.62458 -1.449516,0 -2.62458,-1.175065 -2.62458,-2.62458 0,-1.449516 1.175064,-2.62458 2.62458,-2.62458 1.449515,0 2.62458,1.175064 2.62458,2.62458 z"
       id="path22"
       style="fill:#ffffff"
       inkscape:connector-curvature="0" />
    <path
       d="m 27.7488,11.247695 -2.40625,8.3125 c 1.4992,0.26111 2.7782,2.38961 2.5,3.9375 l 9,0.03125 c 0,-5.789755 -3.830931,-10.671852 -9.09375,-12.28125 z"
       id="path24"
       style="fill:#ffffff"
       inkscape:connector-curvature="0" />
    <path
       d="m 20.28005,11.216445 c -5.233695,1.58334 -9.055984,6.422149 -9.125,12.15625 l 8.78125,0.03125 c -0.2875,-1.57877 1.2205,-3.3856 2.75,-3.84375 l -2.40625,-8.34375 z"
       id="path26"
       style="fill:#ffffff"
       inkscape:connector-curvature="0" />
    <path
       id="path3053"
       d="m 24,7.9684848 c -8.737153,0 -15.8125,7.0753472 -15.8125,15.8125002 0,8.737153 7.075347,15.84375 15.8125,15.84375 8.737153,0 15.8125,-7.106597 15.8125,-15.84375 C 39.8125,15.043832 32.737153,7.9684848 24,7.9684848 z m 0,1.9375 c 7.664866,0 13.875,6.2101342 13.875,13.8750002 0,7.664866 -6.210134,13.90625 -13.875,13.90625 -7.664866,0 -13.875,-6.241384 -13.875,-13.90625 0,-7.664866 6.210134,-13.8750002 13.875,-13.8750002 z"
       style="fill:#ffffff"
       inkscape:connector-curvature="0" />
  </g>
</svg>
