<?xml version="1.0" encoding="UTF-8" standalone="no"?>
<svg
   xmlns:dc="http://purl.org/dc/elements/1.1/"
   xmlns:cc="http://creativecommons.org/ns#"
   xmlns:rdf="http://www.w3.org/1999/02/22-rdf-syntax-ns#"
   xmlns:svg="http://www.w3.org/2000/svg"
   xmlns="http://www.w3.org/2000/svg"
   xmlns:xlink="http://www.w3.org/1999/xlink"
   xmlns:sodipodi="http://sodipodi.sourceforge.net/DTD/sodipodi-0.dtd"
   xmlns:inkscape="http://www.inkscape.org/namespaces/inkscape"
   width="48"
   height="48"
   viewBox="0 0 48 48"
   id="svg2"
   version="1.1"
   inkscape:version="0.48.4 r9939"
   sodipodi:docname="dia.svg">
  <metadata
     id="metadata23">
    <rdf:RDF>
      <cc:Work
         rdf:about="">
        <dc:format>image/svg+xml</dc:format>
        <dc:type
           rdf:resource="http://purl.org/dc/dcmitype/StillImage" />
      </cc:Work>
    </rdf:RDF>
  </metadata>
  <sodipodi:namedview
     pagecolor="#ffffff"
     bordercolor="#666666"
     borderopacity="1"
     objecttolerance="10"
     gridtolerance="10"
     guidetolerance="10"
     inkscape:pageopacity="0"
     inkscape:pageshadow="2"
     inkscape:window-width="1440"
     inkscape:window-height="838"
     id="namedview21"
     showgrid="false"
     inkscape:zoom="4.9166667"
     inkscape:cx="20.440678"
     inkscape:cy="24"
     inkscape:window-x="1272"
     inkscape:window-y="-8"
     inkscape:window-maximized="1"
     inkscape:current-layer="svg2" />
  <defs
     id="defs4">
    <radialGradient
       cx="148.004"
       cy="160"
       gradientTransform="matrix(.1831 0 0 .1831 -3.10029 -5.29688)"
       id="radial0"
       r="128"
       gradientUnits="userSpaceOnUse">
      <stop
         offset="0"
         style="stop-color:#60a3bf"
         id="stop7" />
      <stop
         offset="1"
         style="stop-color:#12314d"
         id="stop9" />
    </radialGradient>
    <radialGradient
       cx="148.004"
       cy="160"
       gradientTransform="matrix(0.1831,0,0,0.1831,-3.10029,-5.29688)"
       id="radial0-1"
       r="128"
       gradientUnits="userSpaceOnUse">
      <stop
         offset="0"
         style="stop-color:#a6cde2"
         id="stop7-7" />
      <stop
         offset="1"
         style="stop-color:#4a678d"
         id="stop9-4" />
    </radialGradient>
    <radialGradient
       r="128"
       cy="160"
       cx="148.004"
       gradientTransform="matrix(0.1831,0,0,0.1831,-4.320629,15.245493)"
       gradientUnits="userSpaceOnUse"
       id="radialGradient3022"
       xlink:href="#radial0-1"
       inkscape:collect="always" />
    <radialGradient
       inkscape:collect="always"
       xlink:href="#radial0-1"
       id="radialGradient3013"
       gradientUnits="userSpaceOnUse"
       gradientTransform="matrix(0.1831,0,0,0.1831,-4.320629,15.245493)"
       cx="148.004"
       cy="160"
       r="128" />
  </defs>
  <g
     id="g3009"
     transform="translate(1.219839,-20.541873)">
    <path
       id="path11"
       d="m 46.217161,32.089248 0,24.90625 c 0,10.25 0,10.984375 -10.984375,10.984375 l -24.902344,0 c -10.98828098,0 -10.98828098,-0.734375 -10.98828098,-10.984375 l 0,-24.90625 c 0,-10.25 0,-10.984375 10.98828098,-10.984375 l 24.902344,0 c 10.984375,0 10.984375,0.734375 10.984375,10.984375 z"
       style="fill:url(#radialGradient3013)"
       inkscape:connector-curvature="0" />
    <path
       id="path13"
       d="m 37.045286,67.979873 c 2.542969,-0.01172 4.378906,-0.08203 5.710937,-0.441406 l -4.230468,-7.25 -4.484375,7.691406 1.191406,0 c 0.640625,0 1.242187,0 1.8125,0 z m 1.480469,-7.691406 -5.125,-8.789063 -5.128906,8.789063 z m 0,0 7.652344,0 c 0.03125,-0.972656 0.03906,-2.0625 0.03906,-3.296875 l 0,-1.097657 -2.5625,-4.394531 z m 5.128906,-8.789063 -5.128906,-8.789062 -5.125,8.789062 z m 0,0 2.5625,0 0,-4.394531 z m -10.253906,0 -5.128906,-8.789062 -5.125,8.789062 z m -10.253906,0 -5.128907,8.789063 10.253907,0 z m 0,0 -5.128907,-8.789062 -5.125,8.789062 z m -10.253907,0 -5.128906,8.789063 10.253906,0 z m 0,0 -5.128906,-8.789062 -5.125,8.789062 z m -10.253906,0 -3.29687498,5.648438 c 0,1.167969 0.011719,2.210937 0.039062,3.140625 l 8.38281298,0 z m 0,0 -3.29687498,-5.648437 0,5.648437 z m 5.125,8.789063 -4.3125,7.394531 c 1.597656,0.292969 3.808594,0.296875 6.878906,0.296875 l 1.921875,0 z m 0,-17.578125 -5.125,-8.789063 -3.29687498,5.648438 0,3.140625 z m 0,0 10.253906,0 -5.125,-8.789063 z m 5.128906,-8.789063 -5.128906,-8.789062 -5.125,8.789062 z m 0,0 10.253907,0 -5.128907,-8.789062 z m 5.125,-8.789062 -2.351562,-4.027344 -5.339844,0 c -0.07422,0 -0.136719,0 -0.210937,0 l -2.351563,4.027344 z m 0,0 10.253907,0 -2.351563,-4.027344 -5.550781,0 z m 10.253907,0 10.253906,0 -2.351563,-4.027344 c -0.3125,0 -0.609375,0 -0.945312,0 l -4.605469,0 z m 0,0 -5.125,8.789062 10.253906,0 z m 5.128906,8.789062 10.253906,0 -5.128906,-8.789062 z m 0,0 -5.128906,8.789063 10.253906,0 z m 5.125,8.789063 7.691406,0 0,-4.394531 -2.5625,-4.394532 z m 5.128906,-8.789063 2.5625,0 0,-1.832031 c 0,-0.914063 -0.0078,-1.75 -0.02344,-2.523437 z m -15.382812,8.789063 -5.125,-8.789063 -5.128907,8.789063 z m 10.253906,-17.578125 7.308594,0 c -0.554688,-2.757813 -1.886719,-3.628906 -5.03125,-3.902344 z m -30.761719,0 -2.304687,-3.953125 c -3.660157,0.207031 -5.14062598,0.996093 -5.73437598,3.953125 z m -5.125,8.789062 -3.23828098,-5.554687 c -0.042969,1.074219 -0.058594,2.308593 -0.058594,3.722656 l 0,1.832031 z m 15.378906,26.367188 -4.484375,7.691406 8.972656,0 z m 10.253907,0 -4.484376,7.691406 8.972657,0 z M 1.373411,66.909561 -0.22815098,64.163467 c 0.292968,1.316406 0.785156,2.179687 1.60156198,2.746094 z"
       style="fill:#ffffff;fill-opacity:0.05100002"
       inkscape:connector-curvature="0" />
  </g>
  <g
     id="g3043"
     style="fill:#ffffff"
     transform="translate(-1.6113264,-0.30508448)">
    <g
       style="fill:#ffffff"
       id="g18"
       transform="matrix(4.4025185,0,0,4.4025185,-40.468561,-9.1414257)">
      <path
         id="path20"
         d="m 14.727344,6.1862377 -1.128889,2.2577778 2.257778,0 -1.128889,-2.2577778 z m 0,0.7744576 0.564445,1.1288889 -1.128889,0 0.564444,-1.1288889 z"
         style="fill:#ffffff"
         inkscape:connector-curvature="0" />
    </g>
    <g
       id="g22"
       style="color:#000000;fill:#ffffff"
       transform="matrix(4.4025185,0,0,4.4025185,-5.4508863,-5.5136622)">
      <path
         style="fill:#ffffff"
         id="path24"
         d="m 4.7977779,3.4580984 0,0.6729177 -0.5644449,-0.012347 0,0.6640216 0.5644449,0.015087 0,3.9511117 -0.5644449,-0.00963 0,0.6640446 0.5644449,0.012347 0,0.4280183 -0.2822222,0 0.4233333,0.5985527 0.4233334,-0.5985527 -0.2822223,0 0,-0.4280178 1.9755554,-0.012347 c 1.5634805,-0.00977 2.8222221,-1.1784864 2.8222221,-2.6423292 0,-1.4638427 -1.2587111,-2.6423062 -2.8222221,-2.6423062 l -1.9755556,0.012268 0,-0.6729177 z m 0.2822224,1.3396798 1.9755556,-0.015087 c 1.1829313,-0.00903 2.1129918,0.8707231 2.1129918,1.9782846 0,1.1075615 -0.930026,1.9782846 -2.1129918,1.9782846 l -1.9755556,0.00963 z"
         inkscape:connector-curvature="0" />
      <rect
         style="fill:#ffffff"
         id="rect26"
         height="0.56400001"
         y="3.1040001"
         x="4.6570001"
         width="0.56400001" />
    </g>
  </g>
</svg>
