<?xml version="1.0" encoding="UTF-8" standalone="no"?>
<svg
   xmlns:dc="http://purl.org/dc/elements/1.1/"
   xmlns:cc="http://creativecommons.org/ns#"
   xmlns:rdf="http://www.w3.org/1999/02/22-rdf-syntax-ns#"
   xmlns:svg="http://www.w3.org/2000/svg"
   xmlns="http://www.w3.org/2000/svg"
   xmlns:sodipodi="http://sodipodi.sourceforge.net/DTD/sodipodi-0.dtd"
   xmlns:inkscape="http://www.inkscape.org/namespaces/inkscape"
   width="48"
   height="48"
   viewBox="0 0 48 48"
   id="svg2"
   version="1.1"
   inkscape:version="0.48.4 r9939"
   sodipodi:docname="epiphany (copie).svg">
  <metadata
     id="metadata39">
    <rdf:RDF>
      <cc:Work
         rdf:about="">
        <dc:format>image/svg+xml</dc:format>
        <dc:type
           rdf:resource="http://purl.org/dc/dcmitype/StillImage" />
      </cc:Work>
    </rdf:RDF>
  </metadata>
  <sodipodi:namedview
     pagecolor="#ffffff"
     bordercolor="#666666"
     borderopacity="1"
     objecttolerance="10"
     gridtolerance="10"
     guidetolerance="10"
     inkscape:pageopacity="0"
     inkscape:pageshadow="2"
     inkscape:window-width="1280"
     inkscape:window-height="1000"
     id="namedview37"
     showgrid="false"
     inkscape:zoom="4.9166667"
     inkscape:cx="20.847458"
     inkscape:cy="23.59322"
     inkscape:window-x="0"
     inkscape:window-y="24"
     inkscape:window-maximized="1"
     inkscape:current-layer="svg2" />
  <defs
     id="defs4">
    <radialGradient
       cx="148.004"
       cy="160"
       gradientTransform="matrix(.1831 0 0 .1831 -3.10029 -5.29688)"
       id="radial0"
       r="128"
       gradientUnits="userSpaceOnUse">
      <stop
         offset="0"
         style="stop-color:#b7d6e2"
         id="stop7" />
      <stop
         offset="1"
         style="stop-color:#0677cd"
         id="stop9" />
    </radialGradient>
  </defs>
  <path
     style="fill:url(#radial0)"
     d="M 47.4375 11.546875 L 47.4375 36.453125 C 47.4375 46.703125 47.4375 47.4375 36.453125 47.4375 L 11.550781 47.4375 C 0.5625 47.4375 0.5625 46.703125 0.5625 36.453125 L 0.5625 11.546875 C 0.5625 1.296875 0.5625 0.5625 11.550781 0.5625 L 36.453125 0.5625 C 47.4375 0.5625 47.4375 1.296875 47.4375 11.546875 Z "
     id="path11" />
  <path
     inkscape:connector-curvature="0"
     id="path15"
     d="m 38.265625,47.4375 c 2.542969,-0.01172 4.378906,-0.08203 5.710937,-0.441406 l -4.230468,-7.25 -4.484375,7.691406 1.191406,0 c 0.640625,0 1.242187,0 1.8125,0 z m 1.480469,-7.691406 -5.125,-8.789063 -5.128906,8.789063 z m 0,0 7.652344,0 c 0.03125,-0.972656 0.03906,-2.0625 0.03906,-3.296875 l 0,-1.097657 -2.5625,-4.394531 z m 5.128906,-8.789063 -5.128906,-8.789062 -5.125,8.789062 z m 0,0 2.5625,0 0,-4.394531 z m -10.253906,0 -5.128906,-8.789062 -5.125,8.789062 z m -10.253906,0 -5.128907,8.789063 10.253907,0 z m 0,0 -5.128907,-8.789062 -5.125,8.789062 z m -10.253907,0 -5.128906,8.789063 10.253906,0 z m 0,0 -5.128906,-8.789062 -5.125,8.789062 z m -10.253906,0 -3.296875,5.648438 c 0,1.167969 0.011719,2.210937 0.039062,3.140625 l 8.382813,0 z m 0,0 -3.296875,-5.648437 0,5.648437 z m 5.125,8.789063 -4.3125,7.394531 c 1.597656,0.292969 3.808594,0.296875 6.875,0.296875 l 1.925781,0 z m 0,-17.578125 -5.125,-8.789063 -3.296875,5.648438 0,3.140625 z m 0,0 10.253906,0 -5.125,-8.789063 z m 5.128906,-8.789063 -5.128906,-8.789062 -5.125,8.789062 z m 0,0 10.253907,0 -5.128907,-8.789062 z m 5.125,-8.789062 -2.351562,-4.027344 -5.339844,0 c -0.07422,0 -0.136719,0 -0.210937,0 L 8.984375,4.589844 z m 0,0 10.253907,0 -2.351563,-4.027344 -5.550781,0 z m 10.253907,0 10.253906,0 L 37.394531,0.5625 c -0.3125,0 -0.609375,0 -0.945312,0 l -4.605469,0 z m 0,0 -5.125,8.789062 10.253906,0 z m 5.128906,8.789062 10.253906,0 -5.128906,-8.789062 z m 0,0 -5.128906,8.789063 10.253906,0 z m 5.125,8.789063 7.691406,0 0,-4.394531 -2.5625,-4.394532 z m 5.128906,-8.789063 2.5625,0 0,-1.832031 c 0,-0.914063 -0.0078,-1.75 -0.02344,-2.523437 z m -15.382812,8.789063 -5.125,-8.789063 -5.128907,8.789063 z m 10.253906,-17.578125 7.308594,0 C 46.5,1.832031 45.167969,0.960938 42.023438,0.6875 z m -30.761719,0 L 6.679688,0.636719 C 3.019531,0.84375 1.539062,1.632812 0.945312,4.589844 z m -5.125,8.789062 L 0.621094,7.824219 C 0.578125,8.898438 0.5625,10.132812 0.5625,11.546875 l 0,1.832031 z m 15.378906,26.367188 -4.484375,7.691406 8.972656,0 z m 10.253907,0 -4.484376,7.691406 8.972657,0 z M 2.59375,46.367188 0.992188,43.621094 c 0.292968,1.316406 0.785156,2.179687 1.601562,2.746094 z"
     style="fill:#ffffff;fill-opacity:0.05100002" />
  <path
     inkscape:connector-curvature="0"
     id="path18"
     d="m 21.125,10.203125 c -1.75242,0.36516 -3.39643,1.04971 -4.84375,2 0.0422,1.05461 -0.32095,2.13344 -1.125,2.9375 -0.80406,0.80405 -1.88289,1.16718 -2.9375,1.125 -0.95029,1.44732 -1.63484,3.09134 -2,4.84375 0.78179,0.71537 1.25,1.73179 1.25,2.875 0,1.14321 -0.46821,2.19089 -1.25,2.90625 0.36516,1.75242 1.04971,3.36518 2,4.8125 1.05461,-0.0422 2.13344,0.3522 2.9375,1.15625 0.80405,0.80406 1.16718,1.85164 1.125,2.90625 1.44732,0.95029 3.09133,1.66609 4.84375,2.03125 0.71536,-0.78179 1.7318,-1.28125 2.875,-1.28125 1.14321,0 2.15963,0.49946 2.875,1.28125 1.74674,-0.36398 3.39991,-1.0857 4.84375,-2.03125 -0.002,-0.0565 0,-0.0998 0,-0.15625 0,-1.00131 0.36103,-1.98602 1.125,-2.75 0.80406,-0.80405 1.88289,-1.19843 2.9375,-1.15625 0.95029,-1.44732 1.63484,-3.06008 2,-4.8125 -0.78179,-0.71536 -1.25,-1.76304 -1.25,-2.90625 0,-1.14321 0.46821,-2.15963 1.25,-2.875 -0.36516,-1.75241 -1.04971,-3.39643 -2,-4.84375 -1.05461,0.0422 -2.13344,-0.32095 -2.9375,-1.125 -0.76397,-0.76398 -1.125,-1.74869 -1.125,-2.75 0,-0.0565 -0.002,-0.13103 0,-0.1875 -1.44384,-0.94555 -3.09701,-1.63602 -4.84375,-2 -0.71537,0.78179 -1.73179,1.28125 -2.875,1.28125 -1.1432,0 -2.15964,-0.49946 -2.875,-1.28125 z m 6.9375,4.40625 c 0.44603,0 0.77465,0.0482 1.1875,0.15625 0.60211,0.15788 1.09348,0.6446 1.09375,1.21875 2.7e-4,0.69408 -0.49702,1.1875 -1.25,1.1875 -0.35873,0 -0.50601,-0.0625 -1.03125,-0.0625 -1.55019,0 -2.80989,1.2624 -2.8125,2.8125 l 0,2.4375 c 0,0.21938 0.18706,0.375 0.40625,0.375 l 1.84375,0 c 0.68762,0 1.24946,0.56059 1.25,1.25 0,0.68968 -0.56265,1.25 -1.25,1.25 l -2.25,0 0,2.8125 c 0,2.93988 -2.37262,5.34375 -5.3125,5.34375 -0.44612,0 -0.77465,-0.0481 -1.1875,-0.15625 -0.60212,-0.15779 -1.09348,-0.67603 -1.09375,-1.25 0,-0.6939 0.52792,-1.1875 1.28125,-1.1875 0.35837,0 0.47504,0.0625 1,0.0625 1.55018,0 2.81007,-1.23169 2.8125,-2.78125 l 0,-2.46875 c 0,-0.21892 -0.18706,-0.375 -0.40625,-0.375 l -1.84375,0 c -0.68778,0 -1.25,-0.56014 -1.25,-1.25 -1.8e-4,-0.69373 0.58618,-1.25 1.28125,-1.25 l 2.21875,0 0,-2.8125 c 0,-2.94015 2.37216,-5.3125 5.3125,-5.3125 z"
     style="color:#000000;fill:#ffffff" />
</svg>
