<?xml version="1.0" encoding="UTF-8" standalone="no"?>
<svg
   xmlns:dc="http://purl.org/dc/elements/1.1/"
   xmlns:cc="http://creativecommons.org/ns#"
   xmlns:rdf="http://www.w3.org/1999/02/22-rdf-syntax-ns#"
   xmlns:svg="http://www.w3.org/2000/svg"
   xmlns="http://www.w3.org/2000/svg"
   xmlns:sodipodi="http://sodipodi.sourceforge.net/DTD/sodipodi-0.dtd"
   xmlns:inkscape="http://www.inkscape.org/namespaces/inkscape"
   width="48"
   height="48"
   viewBox="0 0 48 48"
   id="svg2"
   version="1.1"
   inkscape:version="0.48.4 r9939"
   sodipodi:docname="epiphany (copie).svg">
  <metadata
     id="metadata39">
    <rdf:RDF>
      <cc:Work
         rdf:about="">
        <dc:format>image/svg+xml</dc:format>
        <dc:type
           rdf:resource="http://purl.org/dc/dcmitype/StillImage" />
      </cc:Work>
    </rdf:RDF>
  </metadata>
  <sodipodi:namedview
     pagecolor="#ffffff"
     bordercolor="#666666"
     borderopacity="1"
     objecttolerance="10"
     gridtolerance="10"
     guidetolerance="10"
     inkscape:pageopacity="0"
     inkscape:pageshadow="2"
     inkscape:window-width="1280"
     inkscape:window-height="1000"
     id="namedview37"
     showgrid="false"
     inkscape:zoom="4.9166667"
     inkscape:cx="20.847458"
     inkscape:cy="23.59322"
     inkscape:window-x="0"
     inkscape:window-y="24"
     inkscape:window-maximized="1"
     inkscape:current-layer="svg2" />
  <defs
     id="defs4">
    <radialGradient
       cx="148.004"
       cy="160"
       gradientTransform="matrix(.1831 0 0 .1831 -3.10029 -5.29688)"
       id="radial0"
       r="128"
       gradientUnits="userSpaceOnUse">
      <stop
         offset="0"
         style="stop-color:#b7d6e2"
         id="stop7" />
      <stop
         offset="1"
         style="stop-color:#0677cd"
         id="stop9" />
    </radialGradient>
  </defs>
  <path
     style="fill:url(#radial0)"
     d="M 47.4375 11.546875 L 47.4375 36.453125 C 47.4375 46.703125 47.4375 47.4375 36.453125 47.4375 L 11.550781 47.4375 C 0.5625 47.4375 0.5625 46.703125 0.5625 36.453125 L 0.5625 11.546875 C 0.5625 1.296875 0.5625 0.5625 11.550781 0.5625 L 36.453125 0.5625 C 47.4375 0.5625 47.4375 1.296875 47.4375 11.546875 Z "
     id="path11" />
  <path
     inkscape:connector-curvature="0"
     id="path15"
     d="m 38.265625,47.4375 c 2.542969,-0.01172 4.378906,-0.08203 5.710937,-0.441406 l -4.230468,-7.25 -4.484375,7.691406 1.191406,0 c 0.640625,0 1.242187,0 1.8125,0 z m 1.480469,-7.691406 -5.125,-8.789063 -5.128906,8.789063 z m 0,0 7.652344,0 c 0.03125,-0.972656 0.03906,-2.0625 0.03906,-3.296875 l 0,-1.097657 -2.5625,-4.394531 z m 5.128906,-8.789063 -5.128906,-8.789062 -5.125,8.789062 z m 0,0 2.5625,0 0,-4.394531 z m -10.253906,0 -5.128906,-8.789062 -5.125,8.789062 z m -10.253906,0 -5.128907,8.789063 10.253907,0 z m 0,0 -5.128907,-8.789062 -5.125,8.789062 z m -10.253907,0 -5.128906,8.789063 10.253906,0 z m 0,0 -5.128906,-8.789062 -5.125,8.789062 z m -10.253906,0 -3.296875,5.648438 c 0,1.167969 0.011719,2.210937 0.039062,3.140625 l 8.382813,0 z m 0,0 -3.296875,-5.648437 0,5.648437 z m 5.125,8.789063 -4.3125,7.394531 c 1.597656,0.292969 3.808594,0.296875 6.875,0.296875 l 1.925781,0 z m 0,-17.578125 -5.125,-8.789063 -3.296875,5.648438 0,3.140625 z m 0,0 10.253906,0 -5.125,-8.789063 z m 5.128906,-8.789063 -5.128906,-8.789062 -5.125,8.789062 z m 0,0 10.253907,0 -5.128907,-8.789062 z m 5.125,-8.789062 -2.351562,-4.027344 -5.339844,0 c -0.07422,0 -0.136719,0 -0.210937,0 L 8.984375,4.589844 z m 0,0 10.253907,0 -2.351563,-4.027344 -5.550781,0 z m 10.253907,0 10.253906,0 L 37.394531,0.5625 c -0.3125,0 -0.609375,0 -0.945312,0 l -4.605469,0 z m 0,0 -5.125,8.789062 10.253906,0 z m 5.128906,8.789062 10.253906,0 -5.128906,-8.789062 z m 0,0 -5.128906,8.789063 10.253906,0 z m 5.125,8.789063 7.691406,0 0,-4.394531 -2.5625,-4.394532 z m 5.128906,-8.789063 2.5625,0 0,-1.832031 c 0,-0.914063 -0.0078,-1.75 -0.02344,-2.523437 z m -15.382812,8.789063 -5.125,-8.789063 -5.128907,8.789063 z m 10.253906,-17.578125 7.308594,0 C 46.5,1.832031 45.167969,0.960938 42.023438,0.6875 z m -30.761719,0 L 6.679688,0.636719 C 3.019531,0.84375 1.539062,1.632812 0.945312,4.589844 z m -5.125,8.789062 L 0.621094,7.824219 C 0.578125,8.898438 0.5625,10.132812 0.5625,11.546875 l 0,1.832031 z m 15.378906,26.367188 -4.484375,7.691406 8.972656,0 z m 10.253907,0 -4.484376,7.691406 8.972657,0 z M 2.59375,46.367188 0.992188,43.621094 c 0.292968,1.316406 0.785156,2.179687 1.601562,2.746094 z"
     style="fill:#ffffff;fill-opacity:0.05100002" />
  <path
     inkscape:connector-curvature="0"
     id="path18"
     d="m 17.238498,13.966835 c -0.416896,0.042 -0.750578,0.4809 -0.478986,0.9914 1.194346,2.4138 1.903371,4.1313 3.141258,6.7838 0.2234,-0.5075 0.357169,-0.8591 0.690631,-1.6152 -1.278439,-2.5236 -1.458261,-3.5872 -2.639993,-5.7367 -0.18893,-0.3213 -0.462771,-0.4484 -0.71291,-0.4233 z m 13.690091,0.089 c -0.260402,-0.012 -0.542358,0.1486 -0.71291,0.5458 -1.561046,3.4984 -4.432465,10.5771 -5.714415,13.4228 -0.729873,1.4836 0.575738,2.0771 1.069364,1.2587 1.652895,-3.4269 4.138631,-9.9937 5.948339,-14.1802 0.225105,-0.5557 -0.156378,-1.0279 -0.590378,-1.0471 z m -7.90884,4.5225 c -0.260401,-0.011 -0.520079,0.1486 -0.690631,0.5459 -1.561046,3.4983 -4.454745,10.5993 -5.736694,13.445 -0.729873,1.4836 0.562521,1.9141 1.12506,0.9579 1.652894,-3.4269 4.094074,-9.7151 5.903782,-13.9017 0.225105,-0.5557 -0.167516,-1.0279 -0.601517,-1.0471 z m 2.617714,0.6684 c -0.2604,-0.011 -0.520078,0.1263 -0.690631,0.5235 -1.561045,3.4983 -2.11551,5.2192 -3.397459,8.0648 -0.729873,1.4837 0.508903,1.9963 1.002529,0.9023 1.652894,-3.4269 1.877371,-4.257 3.687079,-8.4435 0.225105,-0.5558 -0.167517,-1.0279 -0.601518,-1.0471 z m 13.333637,0.4233 c -2.543156,0.6033 -4.583318,1.666 -6.884033,3.1189 -0.678629,-0.5329 -1.11684,-0.9732 -1.659743,-1.526 -0.176392,0.3249 -0.602535,1.218 -0.757466,1.4592 0.567757,0.5534 0.806783,0.887 1.258731,1.2142 -0.54377,0.3894 -0.538557,0.5133 -1.83797,1.6597 0.271451,0.5129 0.41918,1.0042 0.690631,1.5038 0.628842,-0.6757 1.094911,-1.218 2.450626,-2.1164 1.874918,0.9853 3.469205,2.016 6.739224,2.9185 l 0,-1.8492 c -1.546583,-0.4883 -3.806788,-1.1655 -5.213152,-2.1498 1.095228,-0.7715 2.570601,-1.5367 5.213152,-2.1499 l 0,-2.083 z m -29.9421998,0.4678 0,1.76 c 1.5546268,0.496 3.8184938,1.2071 5.2131508,2.1833 -1.095228,0.7715 -2.570602,1.5172 -5.2131508,2.1276 l 0,2.1053 c 2.5445348,-0.6047 4.6055948,-1.6883 6.9063108,-3.1413 0.678628,0.533 1.094561,0.9955 1.637464,1.5484 0.176392,-0.3249 0.613674,-1.2403 0.768605,-1.4815 -0.567757,-0.5534 -0.795644,-0.8647 -1.247591,-1.1919 0.543768,-0.3894 0.538555,-0.5133 1.837969,-1.6598 -0.271451,-0.5128 -0.41918,-1.0041 -0.690631,-1.5037 -0.628842,0.6757 -1.117189,1.218 -2.472904,2.1164 -1.853338,-0.974 -3.537038,-1.9696 -6.7392228,-2.8628 z m 19.0369108,5.7701 c -0.2234,0.5075 -0.379447,0.8368 -0.712909,1.5929 1.278438,2.5236 1.480539,3.6095 2.662271,5.759 0.503812,0.8569 1.626443,0.2486 1.191896,-0.5681 -1.194347,-2.4138 -1.90337,-4.1313 -3.141258,-6.7838 z"
     style="fill:#ffffff;fill-rule:evenodd" />
</svg>
