<?xml version="1.0" encoding="UTF-8" standalone="no"?>
<svg
   xmlns:dc="http://purl.org/dc/elements/1.1/"
   xmlns:cc="http://creativecommons.org/ns#"
   xmlns:rdf="http://www.w3.org/1999/02/22-rdf-syntax-ns#"
   xmlns:svg="http://www.w3.org/2000/svg"
   xmlns="http://www.w3.org/2000/svg"
   xmlns:xlink="http://www.w3.org/1999/xlink"
   xmlns:sodipodi="http://sodipodi.sourceforge.net/DTD/sodipodi-0.dtd"
   xmlns:inkscape="http://www.inkscape.org/namespaces/inkscape"
   viewBox="0 0 48 48"
   id="svg2"
   version="1.1"
   inkscape:version="0.48.3.1 r9886"
   width="100%"
   height="100%"
   sodipodi:docname="gdmap_icon.svg">
  <metadata
     id="metadata24">
    <rdf:RDF>
      <cc:Work
         rdf:about="">
        <dc:format>image/svg+xml</dc:format>
        <dc:type
           rdf:resource="http://purl.org/dc/dcmitype/StillImage" />
      </cc:Work>
    </rdf:RDF>
  </metadata>
  <sodipodi:namedview
     pagecolor="#ffffff"
     bordercolor="#666666"
     borderopacity="1"
     objecttolerance="10"
     gridtolerance="10"
     guidetolerance="10"
     inkscape:pageopacity="0"
     inkscape:pageshadow="2"
     inkscape:window-width="1280"
     inkscape:window-height="1000"
     id="namedview22"
     showgrid="false"
     inkscape:zoom="4.5021802"
     inkscape:cx="22.237288"
     inkscape:cy="22.779661"
     inkscape:window-x="0"
     inkscape:window-y="24"
     inkscape:window-maximized="1"
     inkscape:current-layer="svg2" />
  <defs
     id="defs4">
    <linearGradient
       id="linearGradient3895-9-0-3-2-4-0">
      <stop
         offset="0"
         style="stop-color:#dbc5b0"
         id="stop7" />
      <stop
         offset="1"
         style="stop-color:#835a31"
         id="stop9" />
    </linearGradient>
    <radialGradient
       cx="148.004"
       cy="160"
       gradientTransform="matrix(0.97656,0,0,0.97656,-16.5349,-236.25)"
       r="128"
       id="radialGradient4432"
       xlink:href="#linearGradient3895-9-0-3-2-4-0"
       gradientUnits="userSpaceOnUse" />
    <radialGradient
       inkscape:collect="always"
       xlink:href="#linearGradient3895-9-0-3-2-4-0"
       id="radialGradient3001"
       gradientUnits="userSpaceOnUse"
       gradientTransform="matrix(0.97656,0,0,0.97656,-16.5349,-236.25)"
       cx="148.004"
       cy="160"
       r="128" />
  </defs>
  <g
     id="g2992"
     transform="matrix(0.1875,0,0,0.1875,-5e-4,39.000497)">
    <g
       id="g12">
      <path
         inkscape:connector-curvature="0"
         id="path14"
         d="m 253,-146.40625 0,132.8125 C 253,41.09375 253,45 194.40625,45 L 61.59375,45 C 3,45 3,41.09375 3,-13.59375 l 0,-132.8125 C 3,-201.09375 3,-205 61.59375,-205 l 132.8125,0 C 253,-205 253,-201.09375 253,-146.40625 z"
         style="color:#bebebe;fill:url(#radialGradient3001)" />
    </g>
    <path
       style="opacity:0.05;fill:#ffffff"
       d="m 204.0803,44.99366 c 13.5552,-0.064 23.3486,-0.43514 30.4566,-2.34978 l -22.5525,-38.66464 -23.9258,41.01442 6.3477,0 c 3.4179,0 6.6413,0.0143 9.674,0 z m 7.9041,-41.01442 -27.3438,-46.87362 -27.3437,46.87362 54.6875,0 z m 0,0 40.802,0 C 252.9509,-1.20375 253,-7.02254 253,-13.59837 l 0,-5.8592 -13.6719,-23.43681 -27.3437,46.87362 z m 27.3437,-46.87362 -27.3437,-46.87362 -27.3438,46.87362 54.6875,0 z m 0,0 13.6719,0 0,-23.43681 -13.6719,23.43681 z m -54.6875,0 -27.3437,-46.87362 -27.3438,46.87362 54.6875,0 z m -54.6875,0 -27.3437,46.87362 54.6875,0 -27.3438,-46.87362 z m 0,0 -27.3437,-46.87362 -27.3438,46.87362 54.6875,0 z m -54.6875,0 -27.3437,46.87362 54.6875,0 -27.3438,-46.87362 z m 0,0 -27.3437,-46.87362 -27.3438,46.87362 54.6875,0 z m -54.6875,0 L 3,-12.77442 c 0,6.22608 0.056,11.79835 0.2136,16.75366 l 44.7083,0 -27.3438,-46.87362 z m 0,0 L 3,-73.01435 l 0,30.11997 17.5781,0 z M 47.9219,3.97924 24.9116,43.40679 c 8.527,1.57164 20.3118,1.58687 36.6822,1.58687 l 10.2539,0 L 47.9219,3.97924 z m 0,-93.74724 L 20.5781,-136.64161 3,-106.52166 3,-89.768 l 44.9219,0 z m 0,0 54.6875,0 -27.3438,-46.87361 -27.3437,46.87361 z m 27.3437,-46.87361 -27.3437,-46.87364 -27.3438,46.87364 54.6875,0 z m 0,0 54.6875,0 -27.3437,-46.87364 -27.3438,46.87364 z m 27.3438,-46.87364 -12.5428,-21.48374 -28.4728,0 c -0.399,0 -0.7356,-1e-5 -1.1292,0 l -12.5427,21.48374 54.6875,0 z m 0,0 54.6875,0 -12.5428,-21.48374 -29.602,0 -12.5427,21.48374 z m 54.6875,0 54.6875,0 -12.5428,-21.48374 c -1.6732,-0.002 -3.2563,0 -5.0353,0 l -24.5667,0 -12.5427,21.48374 z m 0,0 -27.3438,46.87364 54.6875,0 -27.3437,-46.87364 z m 27.3437,46.87364 54.6875,0 -27.3437,-46.87364 -27.3438,46.87364 z m 0,0 -27.3437,46.87361 54.6875,0 -27.3438,-46.87361 z m 27.3438,46.87361 41.0156,0 0,-23.43681 -13.6719,-23.4368 -27.3437,46.87361 z m 27.3437,-46.87361 13.6719,0 0,-9.76535 c 0,-4.89463 -0.04,-9.34683 -0.1221,-13.45786 l -13.5498,23.22321 z m -82.0312,46.87361 -27.3438,-46.87361 -27.3437,46.87361 54.6875,0 z m 54.6875,-93.74725 38.9709,0 c -2.9496,-14.71522 -10.0514,-19.35598 -26.8249,-20.81237 l -12.146,20.81237 z m -164.0625,0 -12.2986,-21.08702 c -19.5093,1.10943 -27.4164,5.311 -30.5786,21.08702 l 42.8772,0 z M 20.5781,-136.64161 3.3052,-166.27332 C 3.0746,-160.53933 3,-153.96515 3,-146.40696 l 0,9.76535 17.5781,0 z m 82.0313,140.62085 -23.9258,41.01442 47.8516,0 -23.9258,-41.01442 z m 54.6875,0 -23.9258,41.01442 47.8516,0 L 157.2969,3.97924 z M 13.8337,39.28704 5.2888,24.63904 c 1.5724,7.02888 4.1916,11.64072 8.5449,14.648 z"
       id="path18"
       inkscape:connector-curvature="0" />
    <g
       transform="translate(-2.5e-6,-210.16942)"
       id="g3038">
      <path
         style="fill:#ffffff"
         inkscape:connector-curvature="0"
         id="path20"
         d="m 127.95278,55.873803 c -30.945665,0 -56.005135,24.88776 -56.005135,55.619877 0,30.73337 25.05947,55.76859 56.005135,55.76859 30.94565,0 56.00513,-25.03522 56.00513,-55.76859 0,-30.732117 -25.05948,-55.619877 -56.00513,-55.619877 z m 0,45.413327 c 5.7005,0 10.27753,4.54527 10.27753,10.20655 0,5.66128 -4.57703,10.35527 -10.27753,10.35527 -5.70057,0 -10.27759,-4.69399 -10.27759,-10.35527 0,-5.66128 4.57702,-10.20655 10.27759,-10.20655 z" />
      <path
         inkscape:connector-curvature="0"
         id="path26"
         d="m 146.95375,174.23826 25.16751,31.24326 12.58376,0 0,-12.4973 z"
         style="fill:#ffffff" />
      <path
         inkscape:connector-curvature="0"
         style="color:#000000;fill:#ffffff;fill-opacity:1;fill-rule:nonzero;stroke:none;stroke-width:10.02700043;marker:none;visibility:visible;display:inline;overflow:visible;enable-background:accumulate"
         d="m 63.015625,30.122613 c -8.88616,0 -16.0625,7.136 -16.0625,16 l 0,168.093747 c 0,8.864 7.17634,16 16.0625,16 l 130.000005,0 c 8.88616,0 16.03125,-7.136 16.03125,-16 l 0,-168.093747 c 0,-8.864 -7.14509,-16 -16.03125,-16 l -130.000005,0 z m 2.25,12.34375 125.468755,0 c 3.31425,0 6,2.676 6,6 l 0,163.406247 c 0,3.324 -2.68575,6 -6,6 l -125.468755,0 c -3.31425,0 -5.96875,-2.676 -5.96875,-6 l 0,-163.406247 c 0,-3.324 2.6545,-6 5.96875,-6 z"
         id="rect3062" />
    </g>
  </g>
</svg>
