<?xml version="1.0" encoding="UTF-8" standalone="no"?>
<svg
   xmlns:dc="http://purl.org/dc/elements/1.1/"
   xmlns:cc="http://creativecommons.org/ns#"
   xmlns:rdf="http://www.w3.org/1999/02/22-rdf-syntax-ns#"
   xmlns:svg="http://www.w3.org/2000/svg"
   xmlns="http://www.w3.org/2000/svg"
   xmlns:xlink="http://www.w3.org/1999/xlink"
   xmlns:sodipodi="http://sodipodi.sourceforge.net/DTD/sodipodi-0.dtd"
   xmlns:inkscape="http://www.inkscape.org/namespaces/inkscape"
   viewBox="0 0 48 48"
   id="svg2"
   version="1.1"
   inkscape:version="0.48.3.1 r9886"
   width="100%"
   height="100%"
   sodipodi:docname="gitg.svg">
  <metadata
     id="metadata24">
    <rdf:RDF>
      <cc:Work
         rdf:about="">
        <dc:format>image/svg+xml</dc:format>
        <dc:type
           rdf:resource="http://purl.org/dc/dcmitype/StillImage" />
      </cc:Work>
    </rdf:RDF>
  </metadata>
  <sodipodi:namedview
     pagecolor="#ffffff"
     bordercolor="#666666"
     borderopacity="1"
     objecttolerance="10"
     gridtolerance="10"
     guidetolerance="10"
     inkscape:pageopacity="0"
     inkscape:pageshadow="2"
     inkscape:window-width="1280"
     inkscape:window-height="1000"
     id="namedview22"
     showgrid="false"
     inkscape:zoom="10.01139"
     inkscape:cx="15.728814"
     inkscape:cy="18.983051"
     inkscape:window-x="0"
     inkscape:window-y="24"
     inkscape:window-maximized="1"
     inkscape:current-layer="svg2" />
  <defs
     id="defs4">
    <linearGradient
       id="linearGradient3895-9-0-3-2-4-0">
      <stop
         offset="0"
         style="stop-color:#e5afab"
         id="stop7" />
      <stop
         offset="1"
         style="stop-color:#651711"
         id="stop9" />
    </linearGradient>
    <radialGradient
       cx="148.004"
       cy="160"
       gradientTransform="matrix(0.97656,0,0,0.97656,-16.5349,-236.25)"
       r="128"
       id="radialGradient4432"
       xlink:href="#linearGradient3895-9-0-3-2-4-0"
       gradientUnits="userSpaceOnUse" />
    <radialGradient
       inkscape:collect="always"
       xlink:href="#linearGradient3895-9-0-3-2-4-0"
       id="radialGradient3006"
       gradientUnits="userSpaceOnUse"
       gradientTransform="matrix(0.97656,0,0,0.97656,-16.5349,-236.25)"
       cx="148.004"
       cy="160"
       r="128" />
  </defs>
  <g
     id="g3000"
     transform="matrix(0.1875,0,0,0.18749999,-5e-4,39.000498)">
    <g
       id="g12">
      <path
         inkscape:connector-curvature="0"
         id="path14"
         d="m 253,-146.40625 0,132.8125 C 253,41.09375 253,45 194.40625,45 L 61.59375,45 C 3,45 3,41.09375 3,-13.59375 l 0,-132.8125 C 3,-201.09375 3,-205 61.59375,-205 l 132.8125,0 C 253,-205 253,-201.09375 253,-146.40625 z"
         style="color:#bebebe;fill:url(#radialGradient3006)" />
    </g>
    <path
       style="opacity:0.05;fill:#ffffff"
       d="m 204.08032,44.99366 c 13.55517,-0.064 23.34858,-0.43514 30.45654,-2.34978 l -22.55248,-38.66464 -23.92579,41.01442 6.34766,0 c 3.41797,0 6.64139,0.0143 9.67407,0 z m 7.90406,-41.01442 -27.34375,-46.87362 -27.34375,46.87362 54.6875,0 z m 0,0 40.802,0 C 252.95094,-1.20375 253,-7.02254 253,-13.59837 l 0,-5.8592 -13.67187,-23.43681 -27.34375,46.87362 z m 27.34375,-46.87362 -27.34375,-46.87362 -27.34375,46.87362 54.6875,0 z m 0,0 13.67187,0 0,-23.43681 -13.67187,23.43681 z m -54.6875,0 -27.34375,-46.87362 -27.34376,46.87362 54.68751,0 z m -54.68751,0 -27.34374,46.87362 54.6875,0 -27.34376,-46.87362 z m 0,0 -27.34374,-46.87362 -27.34375,46.87362 54.68749,0 z m -54.68749,0 -27.34375,46.87362 54.6875,0 -27.34375,-46.87362 z m 0,0 -27.34375,-46.87362 -27.343755,46.87362 54.687505,0 z m -54.687505,0 L 3,-12.77442 c 0.0034,6.22608 0.05591,11.79835 0.213614,16.75366 l 44.708266,0 -27.343755,-46.87362 z m 0,0 L 3,-73.01435 l 0,30.11997 17.578125,0 z M 47.92188,3.97924 24.911614,43.40679 c 8.527026,1.57164 20.311776,1.58687 36.682136,1.58687 l 10.2539,0 L 47.92188,3.97924 z m 0,-93.74724 L 20.578125,-136.64161 3,-106.52166 3,-89.768 l 44.92188,0 z m 0,0 54.6875,0 -27.34375,-46.87361 -27.34375,46.87361 z m 27.34375,-46.87361 -27.34375,-46.87364 -27.343755,46.87364 54.687505,0 z m 0,0 54.68749,0 -27.34374,-46.87364 -27.34375,46.87364 z m 27.34375,-46.87364 -12.54273,-21.48374 -28.4729,0 c -0.39895,0 -0.7356,-1e-5 -1.12916,0 l -12.54271,21.48374 54.6875,0 z m 0,0 54.6875,0 -12.54273,-21.48374 -29.60205,0 -12.54272,21.48374 z m 54.6875,0 54.6875,0 -12.54273,-21.48374 c -1.67321,-0.002 -3.25633,0 -5.0354,0 l -24.56665,0 -12.54272,21.48374 z m 0,0 -27.34376,46.87364 54.68751,0 -27.34375,-46.87364 z m 27.34375,46.87364 54.6875,0 -27.34375,-46.87364 -27.34375,46.87364 z m 0,0 -27.34375,46.87361 54.6875,0 -27.34375,-46.87361 z m 27.34375,46.87361 41.01562,0 0,-23.43681 -13.67187,-23.4368 -27.34375,46.87361 z m 27.34375,-46.87361 13.67187,0 0,-9.76535 c 0,-4.89463 -0.0402,-9.34683 -0.12207,-13.45786 l -13.5498,23.22321 z m -82.03125,46.87361 -27.34376,-46.87361 -27.34374,46.87361 54.6875,0 z m 54.6875,-93.74725 38.97094,0 c -2.94957,-14.71522 -10.05142,-19.35598 -26.82494,-20.81237 l -12.146,20.81237 z m -164.0625,0 -12.2986,-21.08702 c -19.509325,1.10943 -27.416405,5.311 -30.57861,21.08702 l 42.87721,0 z M 20.578125,-136.64161 3.30517,-166.27332 C 3.074557,-160.53933 3,-153.96515 3,-146.40696 l 0,9.76535 17.578125,0 z M 102.60938,3.97924 78.68359,44.99366 l 47.85157,0 -23.92578,-41.01442 z m 54.6875,0 -23.92579,41.01442 47.85157,0 L 157.29688,3.97924 z M 13.833739,39.28704 5.288818,24.63904 c 1.572341,7.02888 4.191602,11.64072 8.544921,14.648 z"
       id="path18"
       inkscape:connector-curvature="0" />
    <path
       d="m 202.85378,-7.33326 -119.298217,-119.29822 14.035,-14.03511 119.298327,119.29822 z M 228,-118.44437 c 0,18.40944 -14.92389,33.33333 -33.33333,33.33333 -18.40956,0 -33.33333,-14.92389 -33.33333,-33.33333 0,-18.40956 14.92377,-33.33334 33.33333,-33.33334 18.40944,0 33.33333,14.92378 33.33333,33.33334 z m -88.88888,0 c 0,18.40944 -14.92389,33.33333 -33.33333,33.33333 -18.409566,0 -33.333347,-14.92389 -33.333347,-33.33333 0,-18.40956 14.923781,-33.33334 33.333347,-33.33334 18.40944,0 33.33333,14.92378 33.33333,33.33334 z m -111.111117,-11.11111 188.888887,0 0,22.22222 -188.888886,0 z M 228,-29.55548 c 0,18.40944 -14.92389,33.33333 -33.33333,33.33333 -18.40956,0 -33.33333,-14.92389 -33.33333,-33.33333 0,-18.40956 14.92377,-33.33334 33.33333,-33.33334 18.40944,0 33.33333,14.92378 33.33333,33.33334 z"
       style="fill:#ffffff;fill-opacity:1;stroke:none"
       id="rect3805"
       inkscape:connector-curvature="0" />
  </g>
</svg>
