<?xml version="1.0" encoding="UTF-8" standalone="no"?>
<svg
   xmlns:dc="http://purl.org/dc/elements/1.1/"
   xmlns:cc="http://creativecommons.org/ns#"
   xmlns:rdf="http://www.w3.org/1999/02/22-rdf-syntax-ns#"
   xmlns:svg="http://www.w3.org/2000/svg"
   xmlns="http://www.w3.org/2000/svg"
   xmlns:xlink="http://www.w3.org/1999/xlink"
   xmlns:sodipodi="http://sodipodi.sourceforge.net/DTD/sodipodi-0.dtd"
   xmlns:inkscape="http://www.inkscape.org/namespaces/inkscape"
   width="48"
   height="48"
   viewBox="0 0 48 48"
   id="svg2"
   version="1.1"
   inkscape:version="0.48.4 r9939"
   sodipodi:docname="gnome-panel-launcher (copie).svg">
  <metadata
     id="metadata37">
    <rdf:RDF>
      <cc:Work
         rdf:about="">
        <dc:format>image/svg+xml</dc:format>
        <dc:type
           rdf:resource="http://purl.org/dc/dcmitype/StillImage" />
      </cc:Work>
    </rdf:RDF>
  </metadata>
  <sodipodi:namedview
     pagecolor="#ffffff"
     bordercolor="#666666"
     borderopacity="1"
     objecttolerance="10"
     gridtolerance="10"
     guidetolerance="10"
     inkscape:pageopacity="0"
     inkscape:pageshadow="2"
     inkscape:window-width="1280"
     inkscape:window-height="1000"
     id="namedview35"
     showgrid="false"
     inkscape:zoom="5.1898244"
     inkscape:cx="-15.50721"
     inkscape:cy="5.3912605"
     inkscape:window-x="0"
     inkscape:window-y="24"
     inkscape:window-maximized="1"
     inkscape:current-layer="svg2" />
  <defs
     id="defs4">
    <radialGradient
       cx="148.004"
       cy="160"
       gradientTransform="matrix(.1831 0 0 .1831 -3.10029 -5.29688)"
       id="radial0"
       r="128"
       gradientUnits="userSpaceOnUse">
      <stop
         offset="0"
         style="stop-color:#f3a4a6"
         id="stop7" />
      <stop
         offset="1"
         style="stop-color:#dd4612"
         id="stop9" />
    </radialGradient>
    <radialGradient
       inkscape:collect="always"
       xlink:href="#linearGradient3895-9-0-3-2-4-0"
       id="radialGradient3065"
       gradientUnits="userSpaceOnUse"
       gradientTransform="matrix(0.97656,0,0,0.97656,-16.5349,-236.25)"
       cx="148.004"
       cy="160"
       r="128" />
    <linearGradient
       id="linearGradient3895-9-0-3-2-4-0">
      <stop
         offset="0"
         style="stop-color:#feab9c"
         id="stop7-1" />
      <stop
         offset="1"
         style="stop-color:#c4280b"
         id="stop9-1" />
    </linearGradient>
    <radialGradient
       inkscape:collect="always"
       xlink:href="#linearGradient3895-9-0-3-2-4-0"
       id="radialGradient3080"
       gradientUnits="userSpaceOnUse"
       gradientTransform="matrix(0.97656,0,0,0.97656,-16.5349,-236.25)"
       cx="148.004"
       cy="160"
       r="128" />
  </defs>
  <g
     id="g12"
     transform="matrix(0.1875,0,0,0.1875,-5e-4,39.0005)">
    <path
       style="color:#bebebe;fill:url(#radialGradient3080)"
       d="m 253,-146.40625 0,132.8125 C 253,41.09375 253,45 194.40625,45 L 61.59375,45 C 3,45 3,41.09375 3,-13.59375 l 0,-132.8125 C 3,-201.09375 3,-205 61.59375,-205 l 132.8125,0 C 253,-205 253,-201.09375 253,-146.40625 z"
       id="path14"
       inkscape:connector-curvature="0" />
  </g>
  <path
     inkscape:connector-curvature="0"
     id="path16"
     d="m 38.26456,47.436791 c 2.541594,-0.012 4.377858,-0.08159 5.710601,-0.440583 l -4.22859,-7.24962 -4.486088,7.690203 1.190188,0 c 0.64087,0 1.245261,0.0027 1.813888,0 z m 1.482011,-7.690203 -5.126955,-8.788804 -5.126953,8.788804 10.253908,0 z m 0,0 7.650375,0 c 0.03086,-0.971811 0.04005,-2.062834 0.04005,-3.295802 l 0,-1.0986 -2.563476,-4.394402 -5.126953,8.788804 z m 5.126953,-8.788804 -5.126953,-8.788804 -5.126955,8.788804 10.253908,0 z m 0,0 2.563476,0 0,-4.394402 -2.563476,4.394402 z m -10.253908,0 -5.126953,-8.788804 -5.126954,8.788804 10.253907,0 z m -10.253907,0 -5.126951,8.788804 10.253905,0 -5.126954,-8.788804 z m 0,0 -5.126951,-8.788804 -5.126952,8.788804 10.253903,0 z m -10.253903,0 -5.126953,8.788804 10.253905,0 -5.126952,-8.788804 z m 0,0 -5.126953,-8.788804 -5.126953,8.788804 10.253906,0 z m -10.253906,0 -3.295899,5.647492 c 5.62e-4,1.16739 0.01048,2.212191 0.04005,3.141312 l 8.382799,0 -5.126953,-8.788804 z m 0,0 -3.295899,-5.647494 0,5.647494 3.295899,0 z m 5.126953,8.788804 -4.314423,7.392665 c 1.598816,0.294683 3.808456,0.297538 6.877899,0.297538 l 1.922606,0 -4.486082,-7.690203 z m 0,-17.577608 -5.126953,-8.788794 -3.295899,5.647483 0,3.141311 8.422852,0 z m 0,0 10.253905,0 -5.126952,-8.788794 -5.126953,8.788794 z M 14.111806,13.380186 8.984853,4.591377 3.8579,13.380186 l 10.253906,0 z m 0,0 10.253903,0 -5.126951,-8.788809 -5.126952,8.788809 z m 5.126952,-8.788809 -2.35176,-4.02820132 -5.338669,0 c -0.0748,0 -0.137925,-1.8e-6 -0.211718,0 L 8.984853,4.591377 l 10.253905,0 z m 0,0 10.253905,0 -2.35176,-4.02820132 -5.550385,0 -2.35176,4.02820132 z m 10.253905,0 10.253908,0 -2.351762,-4.02820132 c -0.313727,-3.75e-4 -0.610562,0 -0.944138,0 l -4.606248,0 -2.35176,4.02820132 z m 0,0 -5.126954,8.788809 10.253907,0 -5.126953,-8.788809 z m 5.126953,8.788809 10.253908,0 -5.126953,-8.788809 -5.126955,8.788809 z m 0,0 -5.126953,8.788794 10.253908,0 -5.126955,-8.788794 z m 5.126955,8.788794 7.690429,0 0,-4.394395 -2.563476,-4.394399 -5.126953,8.788794 z m 5.126953,-8.788794 2.563476,0 0,-1.831005 c 0,-0.917743 -0.0075,-1.75253 -0.02289,-2.523348 l -2.540588,4.354353 z m -15.380861,8.788794 -5.126955,-8.788794 -5.12695,8.788794 10.253905,0 z m 10.253908,-17.577603 7.307051,0 C 46.500578,1.8322733 45.168981,0.96213078 42.023946,0.68905758 L 39.746571,4.591377 z m -30.761718,0 L 6.678866,0.63756068 C 3.020868,0.84557888 1.538291,1.6333733 0.945376,4.591377 l 8.039477,0 z M 3.8579,13.380186 0.61922,7.8242389 C 0.57598,8.899362 0.562,10.132021 0.562,11.549181 l 0,1.831005 3.295899,0 z m 15.380858,26.366402 -4.486084,7.690203 8.972168,0 -4.486084,-7.690203 z m 10.253905,0 -4.486086,7.690203 8.972169,0 -4.486083,-7.690203 z M 2.593327,46.3668 0.991154,43.6203 c 0.294814,1.317915 0.785926,2.182635 1.602173,2.7465 z"
     style="opacity:0.05;fill:#ffffff" />
  <g
     transform="translate(-4.8892437e-4,-0.0021021)"
     style="stroke:#ffffff"
     id="g16">
    <g
       transform="matrix(0.56612,0,0,0.56612,10.41311,-558.17699)"
       id="g18">
      <path
         inkscape:connector-curvature="0"
         style="fill:none;stroke-width:4"
         d="m 23.086983,1009.3436 c -9.381022,0.5096 -16.8466778,8.8463 -16.8466778,19.0261 0,10.5083 7.9540778,19.0262 17.7596978,19.0262 9.805619,0 17.759697,-8.5179 17.759697,-19.0262 0,-10.5081 -7.954078,-19.0261 -17.759697,-19.0261 -0.306422,0 -0.610406,-0.016 -0.91302,0 z"
         id="path20" />
    </g>
    <g
       style="fill:#ffffff"
       transform="matrix(1.00121,0,0,0.50711,-152.8386,-497.62687)"
       id="g22">
      <path
         inkscape:connector-curvature="0"
         d="m 175.19921,1002.2507 2.85157,0 c 0.16224,0 0.29285,0.4977 0.29285,1.1161 l 0,3.4039 c 0,0.6182 -0.13061,1.116 -0.29285,1.116 l -2.85157,0 c -0.16224,0 -0.29285,-0.4978 -0.29285,-1.116 l 0,-3.4039 c 0,-0.6184 0.13061,-1.1161 0.29285,-1.1161 z"
         id="path24" />
      <path
         inkscape:connector-curvature="0"
         d="m 175.19921,1049.3769 2.85157,0 c 0.16224,0 0.29285,0.4978 0.29285,1.116 l 0,3.4039 c 0,0.6183 -0.13061,1.1161 -0.29285,1.1161 l -2.85157,0 c -0.16224,0 -0.29285,-0.4978 -0.29285,-1.1161 l 0,-3.4039 c 0,-0.6182 0.13061,-1.116 0.29285,-1.116 z"
         id="path26" />
    </g>
    <g
       transform="matrix(0.56612,0,0,0.56612,10.41311,-558.17699)"
       id="g28">
      <path
         inkscape:connector-curvature="0"
         style="fill:#ffffff"
         d="m 180.875,24.25 c 0,1.518783 -1.23122,2.75 -2.75,2.75 -1.51878,0 -2.75,-1.231217 -2.75,-2.75 0,-1.518783 1.23122,-2.75 2.75,-2.75 1.51878,0 2.75,1.231217 2.75,2.75 z"
         transform="matrix(1.5094,0,0,1.5094,-244.861,991.76336)"
         id="path30" />
    </g>
    <g
       style="fill:#ffffff"
       id="g32">
      <g
         transform="matrix(0.56612,0,0,1.16368,10.41311,-1172.6891)"
         id="g34">
        <path
           inkscape:connector-curvature="0"
           d="m 46.371442,1027.0891 0,2.5542 c 0,0.1454 -0.445819,0.2624 -0.999756,0.2624 l -3.049073,0 c -0.553758,0 -0.999667,-0.117 -0.999667,-0.2624 l 0,-2.5542 c 0,-0.1454 0.445909,-0.2624 0.999667,-0.2624 l 3.049073,0 c 0.553937,0 0.999756,0.117 0.999756,0.2624 z"
           id="path36" />
        <path
           inkscape:connector-curvature="0"
           d="m 6.6770503,1027.0891 0,2.5542 c 0,0.1454 -0.4459087,0.2624 -0.9996667,0.2624 l -3.0490731,0 c -0.5538476,0 -0.9997563,-0.117 -0.9997563,-0.2624 l 0,-2.5542 c 0,-0.1454 0.4459176,-0.2624 0.9997563,-0.2624 l 3.0490731,0 c 0.553758,0 0.9996667,0.117 0.9996667,0.2624 z"
           id="path38" />
      </g>
      <g
         transform="matrix(0.70796,0.70796,-0.35858,0.35858,267.80211,-469.88967)"
         id="g40">
        <path
           inkscape:connector-curvature="0"
           d="m 175.19921,1002.2507 2.85157,0 c 0.16224,0 0.29285,0.4977 0.29285,1.1161 l 0,3.4039 c 0,0.6182 -0.13061,1.116 -0.29285,1.116 l -2.85157,0 c -0.16224,0 -0.29285,-0.4978 -0.29285,-1.116 l 0,-3.4039 c 0,-0.6184 0.13061,-1.1161 0.29285,-1.1161 z"
           id="path42" />
        <path
           inkscape:connector-curvature="0"
           d="m 175.19921,1049.3769 2.85157,0 c 0.16224,0 0.29285,0.4978 0.29285,1.116 l 0,3.4039 c 0,0.6183 -0.13061,1.1161 -0.29285,1.1161 l -2.85157,0 c -0.16224,0 -0.29285,-0.4978 -0.29285,-1.1161 l 0,-3.4039 c 0,-0.6182 0.13061,-1.116 0.29285,-1.116 z"
           id="path44" />
      </g>
      <g
         transform="matrix(-0.70796,0.70796,-0.35858,-0.35858,517.88966,267.80207)"
         id="g46">
        <path
           inkscape:connector-curvature="0"
           d="m 175.19921,1002.2507 2.85157,0 c 0.16224,0 0.29285,0.4977 0.29285,1.1161 l 0,3.4039 c 0,0.6182 -0.13061,1.116 -0.29285,1.116 l -2.85157,0 c -0.16224,0 -0.29285,-0.4978 -0.29285,-1.116 l 0,-3.4039 c 0,-0.6184 0.13061,-1.1161 0.29285,-1.1161 z"
           id="path48" />
        <path
           inkscape:connector-curvature="0"
           d="m 175.19921,1049.3769 2.85157,0 c 0.16224,0 0.29285,0.4978 0.29285,1.116 l 0,3.4039 c 0,0.6183 -0.13061,1.1161 -0.29285,1.1161 l -2.85157,0 c -0.16224,0 -0.29285,-0.4978 -0.29285,-1.1161 l 0,-3.4039 c 0,-0.6182 0.13061,-1.116 0.29285,-1.116 z"
           id="path50" />
      </g>
    </g>
  </g>
</svg>
