<?xml version="1.0" encoding="UTF-8" standalone="no"?>
<svg
   xmlns:dc="http://purl.org/dc/elements/1.1/"
   xmlns:cc="http://creativecommons.org/ns#"
   xmlns:rdf="http://www.w3.org/1999/02/22-rdf-syntax-ns#"
   xmlns:svg="http://www.w3.org/2000/svg"
   xmlns="http://www.w3.org/2000/svg"
   xmlns:xlink="http://www.w3.org/1999/xlink"
   xmlns:sodipodi="http://sodipodi.sourceforge.net/DTD/sodipodi-0.dtd"
   xmlns:inkscape="http://www.inkscape.org/namespaces/inkscape"
   width="48"
   height="48"
   viewBox="0 0 48 48"
   id="svg2"
   version="1.1"
   inkscape:version="0.48.3.1 r9886"
   sodipodi:docname="gnome-panel-launcher2.svg">
  <metadata
     id="metadata37">
    <rdf:RDF>
      <cc:Work
         rdf:about="">
        <dc:format>image/svg+xml</dc:format>
        <dc:type
           rdf:resource="http://purl.org/dc/dcmitype/StillImage" />
      </cc:Work>
    </rdf:RDF>
  </metadata>
  <sodipodi:namedview
     pagecolor="#ffffff"
     bordercolor="#666666"
     borderopacity="1"
     objecttolerance="10"
     gridtolerance="10"
     guidetolerance="10"
     inkscape:pageopacity="0"
     inkscape:pageshadow="2"
     inkscape:window-width="1280"
     inkscape:window-height="1000"
     id="namedview35"
     showgrid="false"
     inkscape:zoom="5.1898244"
     inkscape:cx="-12.520596"
     inkscape:cy="5.77663"
     inkscape:window-x="0"
     inkscape:window-y="24"
     inkscape:window-maximized="1"
     inkscape:current-layer="svg2" />
  <defs
     id="defs4">
    <radialGradient
       cx="148.004"
       cy="160"
       gradientTransform="matrix(.1831 0 0 .1831 -3.10029 -5.29688)"
       id="radial0"
       r="128"
       gradientUnits="userSpaceOnUse">
      <stop
         offset="0"
         style="stop-color:#f3a4a6"
         id="stop7" />
      <stop
         offset="1"
         style="stop-color:#dd4612"
         id="stop9" />
    </radialGradient>
    <radialGradient
       inkscape:collect="always"
       xlink:href="#linearGradient3895-9-0-3-2-4-0"
       id="radialGradient3065"
       gradientUnits="userSpaceOnUse"
       gradientTransform="matrix(0.97656,0,0,0.97656,-16.5349,-236.25)"
       cx="148.004"
       cy="160"
       r="128" />
    <linearGradient
       id="linearGradient3895-9-0-3-2-4-0">
      <stop
         offset="0"
         style="stop-color:#feab9c"
         id="stop7-1" />
      <stop
         offset="1"
         style="stop-color:#c4280b"
         id="stop9-1" />
    </linearGradient>
    <radialGradient
       inkscape:collect="always"
       xlink:href="#linearGradient3895-9-0-3-2-4-0"
       id="radialGradient3080"
       gradientUnits="userSpaceOnUse"
       gradientTransform="matrix(0.97656,0,0,0.97656,-16.5349,-236.25)"
       cx="148.004"
       cy="160"
       r="128" />
  </defs>
  <g
     id="g12"
     transform="matrix(0.1875,0,0,0.1875,-5e-4,39.0005)">
    <path
       style="color:#bebebe;fill:url(#radialGradient3080)"
       d="m 253,-146.40625 0,132.8125 C 253,41.09375 253,45 194.40625,45 L 61.59375,45 C 3,45 3,41.09375 3,-13.59375 l 0,-132.8125 C 3,-201.09375 3,-205 61.59375,-205 l 132.8125,0 C 253,-205 253,-201.09375 253,-146.40625 z"
       id="path14"
       inkscape:connector-curvature="0" />
  </g>
  <path
     inkscape:connector-curvature="0"
     id="path16"
     d="m 38.26456,47.436791 c 2.541594,-0.012 4.377858,-0.08159 5.710601,-0.440583 l -4.22859,-7.24962 -4.486088,7.690203 1.190188,0 c 0.64087,0 1.245261,0.0027 1.813888,0 z m 1.482011,-7.690203 -5.126955,-8.788804 -5.126953,8.788804 10.253908,0 z m 0,0 7.650375,0 c 0.03086,-0.971811 0.04005,-2.062834 0.04005,-3.295802 l 0,-1.0986 -2.563476,-4.394402 -5.126953,8.788804 z m 5.126953,-8.788804 -5.126953,-8.788804 -5.126955,8.788804 10.253908,0 z m 0,0 2.563476,0 0,-4.394402 -2.563476,4.394402 z m -10.253908,0 -5.126953,-8.788804 -5.126954,8.788804 10.253907,0 z m -10.253907,0 -5.126951,8.788804 10.253905,0 -5.126954,-8.788804 z m 0,0 -5.126951,-8.788804 -5.126952,8.788804 10.253903,0 z m -10.253903,0 -5.126953,8.788804 10.253905,0 -5.126952,-8.788804 z m 0,0 -5.126953,-8.788804 -5.126953,8.788804 10.253906,0 z m -10.253906,0 -3.295899,5.647492 c 5.62e-4,1.16739 0.01048,2.212191 0.04005,3.141312 l 8.382799,0 -5.126953,-8.788804 z m 0,0 -3.295899,-5.647494 0,5.647494 3.295899,0 z m 5.126953,8.788804 -4.314423,7.392665 c 1.598816,0.294683 3.808456,0.297538 6.877899,0.297538 l 1.922606,0 -4.486082,-7.690203 z m 0,-17.577608 -5.126953,-8.788794 -3.295899,5.647483 0,3.141311 8.422852,0 z m 0,0 10.253905,0 -5.126952,-8.788794 -5.126953,8.788794 z M 14.111806,13.380186 8.984853,4.591377 3.8579,13.380186 l 10.253906,0 z m 0,0 10.253903,0 -5.126951,-8.788809 -5.126952,8.788809 z m 5.126952,-8.788809 -2.35176,-4.0282013 -5.338669,0 c -0.0748,0 -0.137925,-1.8e-6 -0.211718,0 l -2.351758,4.0282013 10.253905,0 z m 0,0 10.253905,0 -2.35176,-4.0282013 -5.550385,0 -2.35176,4.0282013 z m 10.253905,0 10.253908,0 -2.351762,-4.0282013 c -0.313727,-3.75e-4 -0.610562,0 -0.944138,0 l -4.606248,0 -2.35176,4.0282013 z m 0,0 -5.126954,8.788809 10.253907,0 -5.126953,-8.788809 z m 5.126953,8.788809 10.253908,0 -5.126953,-8.788809 -5.126955,8.788809 z m 0,0 -5.126953,8.788794 10.253908,0 -5.126955,-8.788794 z m 5.126955,8.788794 7.690429,0 0,-4.394395 -2.563476,-4.394399 -5.126953,8.788794 z m 5.126953,-8.788794 2.563476,0 0,-1.831005 c 0,-0.917743 -0.0075,-1.75253 -0.02289,-2.523348 l -2.540588,4.354353 z m -15.380861,8.788794 -5.126955,-8.788794 -5.12695,8.788794 10.253905,0 z m 10.253908,-17.577603 7.307051,0 C 46.500578,1.8322733 45.168981,0.9621308 42.023946,0.6890576 L 39.746571,4.591377 z m -30.761718,0 L 6.678866,0.6375607 C 3.020868,0.8455789 1.538291,1.6333733 0.945376,4.591377 l 8.039477,0 z M 3.8579,13.380186 0.61922,7.8242389 C 0.57598,8.899362 0.562,10.132021 0.562,11.549181 l 0,1.831005 3.295899,0 z m 15.380858,26.366402 -4.486084,7.690203 8.972168,0 -4.486084,-7.690203 z m 10.253905,0 -4.486086,7.690203 8.972169,0 -4.486083,-7.690203 z M 2.593327,46.3668 0.991154,43.6203 c 0.294814,1.317915 0.785926,2.182635 1.602173,2.7465 z"
     style="opacity:0.05;fill:#ffffff" />
  <path
     inkscape:connector-curvature="0"
     style="fill:#ffffff;fill-opacity:1"
     d="m 23.129145,7.9375483 c -2.58836,0.8702793 -0.317854,4.8972957 -4.026341,6.8672917 -4.230689,2.254811 -6.334676,-3.433647 -8.877629,0.625017 -2.5429557,4.066575 3.504125,3.433645 3.337625,8.220177 -0.174099,4.778621 -6.1606093,3.765933 -3.9128199,7.982828 2.2477909,4.216895 4.7453319,-1.32124 8.8095149,1.21048 4.064188,2.523806 0.174098,7.199574 4.964815,7.357808 4.790738,0.150329 1.233634,-4.754885 5.471887,-7.009699 4.230691,-2.254813 6.334685,3.433645 8.87763,-0.625018 2.542955,-4.066576 -3.504123,-3.433645 -3.337617,-8.212266 0.174055,-4.786531 6.160599,-3.765933 3.912813,-7.990739 -2.247792,-4.216895 -4.745332,1.321239 -8.809516,-1.202567 -4.064182,-2.531719 -0.174065,-7.2074881 -4.964817,-7.3578102 -0.597882,-0.023739 -1.074698,0.015785 -1.445545,0.1344935 z m 0.0453,12.1759887 c 2.141832,-0.458874 4.23826,0.909837 4.692352,3.061798 0.454128,2.144052 -0.908192,4.256452 -3.04246,4.707417 -2.141724,0.458874 -4.238144,-0.909837 -4.692245,-3.061799 -0.454099,-2.144051 0.9082,-4.248541 3.042461,-4.707416 z"
     id="path3878" />
</svg>
