<?xml version="1.0" encoding="UTF-8" standalone="no"?>
<svg
   xmlns:dc="http://purl.org/dc/elements/1.1/"
   xmlns:cc="http://creativecommons.org/ns#"
   xmlns:rdf="http://www.w3.org/1999/02/22-rdf-syntax-ns#"
   xmlns:svg="http://www.w3.org/2000/svg"
   xmlns="http://www.w3.org/2000/svg"
   xmlns:sodipodi="http://sodipodi.sourceforge.net/DTD/sodipodi-0.dtd"
   xmlns:inkscape="http://www.inkscape.org/namespaces/inkscape"
   width="48"
   height="48"
   viewBox="0 0 48 48"
   id="svg2"
   version="1.1"
   inkscape:version="0.48.4 r9939"
   sodipodi:docname="gnome-clocks (copie).svg">
  <metadata
     id="metadata35">
    <rdf:RDF>
      <cc:Work
         rdf:about="">
        <dc:format>image/svg+xml</dc:format>
        <dc:type
           rdf:resource="http://purl.org/dc/dcmitype/StillImage" />
      </cc:Work>
    </rdf:RDF>
  </metadata>
  <sodipodi:namedview
     pagecolor="#ffffff"
     bordercolor="#666666"
     borderopacity="1"
     objecttolerance="10"
     gridtolerance="10"
     guidetolerance="10"
     inkscape:pageopacity="0"
     inkscape:pageshadow="2"
     inkscape:window-width="663"
     inkscape:window-height="480"
     id="namedview33"
     showgrid="false"
     inkscape:zoom="4.9166667"
     inkscape:cx="51.457627"
     inkscape:cy="24"
     inkscape:window-x="10"
     inkscape:window-y="34"
     inkscape:window-maximized="0"
     inkscape:current-layer="svg2" />
  <defs
     id="defs4">
    <radialGradient
       cx="148.004"
       cy="160"
       gradientTransform="matrix(.1831 0 0 .1831 -3.10029 -5.29688)"
       id="radial0"
       r="128"
       gradientUnits="userSpaceOnUse">
      <stop
         offset="0"
         style="stop-color:#a3d05c"
         id="stop7" />
      <stop
         offset="1"
         style="stop-color:#7c9f00"
         id="stop9" />
    </radialGradient>
  </defs>
  <path
     style="fill:url(#radial0)"
     d="M 47.4375 11.546875 L 47.4375 36.453125 C 47.4375 46.703125 47.4375 47.4375 36.453125 47.4375 L 11.550781 47.4375 C 0.5625 47.4375 0.5625 46.703125 0.5625 36.453125 L 0.5625 11.546875 C 0.5625 1.296875 0.5625 0.5625 11.550781 0.5625 L 36.453125 0.5625 C 47.4375 0.5625 47.4375 1.296875 47.4375 11.546875 Z "
     id="path11" />
  <path
     style="fill:#fff;fill-opacity:.051"
     d="M 38.265625 47.4375 C 40.808594 47.425781 42.644531 47.355469 43.976562 46.996094 L 39.746094 39.746094 L 35.261719 47.4375 L 36.453125 47.4375 C 37.09375 47.4375 37.695312 47.4375 38.265625 47.4375 Z M 39.746094 39.746094 L 34.621094 30.957031 L 29.492188 39.746094 Z M 39.746094 39.746094 L 47.398438 39.746094 C 47.429688 38.773438 47.4375 37.683594 47.4375 36.449219 L 47.4375 35.351562 L 44.875 30.957031 Z M 44.875 30.957031 L 39.746094 22.167969 L 34.621094 30.957031 Z M 44.875 30.957031 L 47.4375 30.957031 L 47.4375 26.5625 Z M 34.621094 30.957031 L 29.492188 22.167969 L 24.367188 30.957031 Z M 24.367188 30.957031 L 19.238281 39.746094 L 29.492188 39.746094 Z M 24.367188 30.957031 L 19.238281 22.167969 L 14.113281 30.957031 Z M 14.113281 30.957031 L 8.984375 39.746094 L 19.238281 39.746094 Z M 14.113281 30.957031 L 8.984375 22.167969 L 3.859375 30.957031 Z M 3.859375 30.957031 L 0.5625 36.605469 C 0.5625 37.773438 0.574219 38.816406 0.601562 39.746094 L 8.984375 39.746094 Z M 3.859375 30.957031 L 0.5625 25.308594 L 0.5625 30.957031 Z M 8.984375 39.746094 L 4.671875 47.140625 C 6.269531 47.433594 8.480469 47.4375 11.546875 47.4375 L 13.472656 47.4375 Z M 8.984375 22.167969 L 3.859375 13.378906 L 0.5625 19.027344 L 0.5625 22.167969 Z M 8.984375 22.167969 L 19.238281 22.167969 L 14.113281 13.378906 Z M 14.113281 13.378906 L 8.984375 4.589844 L 3.859375 13.378906 Z M 14.113281 13.378906 L 24.367188 13.378906 L 19.238281 4.589844 Z M 19.238281 4.589844 L 16.886719 0.5625 L 11.546875 0.5625 C 11.472656 0.5625 11.410156 0.5625 11.335938 0.5625 L 8.984375 4.589844 Z M 19.238281 4.589844 L 29.492188 4.589844 L 27.140625 0.5625 L 21.589844 0.5625 Z M 29.492188 4.589844 L 39.746094 4.589844 L 37.394531 0.5625 C 37.082031 0.5625 36.785156 0.5625 36.449219 0.5625 L 31.84375 0.5625 Z M 29.492188 4.589844 L 24.367188 13.378906 L 34.621094 13.378906 Z M 34.621094 13.378906 L 44.875 13.378906 L 39.746094 4.589844 Z M 34.621094 13.378906 L 29.492188 22.167969 L 39.746094 22.167969 Z M 39.746094 22.167969 L 47.4375 22.167969 L 47.4375 17.773438 L 44.875 13.378906 Z M 44.875 13.378906 L 47.4375 13.378906 L 47.4375 11.546875 C 47.4375 10.632812 47.429688 9.796875 47.414062 9.023438 Z M 29.492188 22.167969 L 24.367188 13.378906 L 19.238281 22.167969 Z M 39.746094 4.589844 L 47.054688 4.589844 C 46.5 1.832031 45.167969 0.960938 42.023438 0.6875 Z M 8.984375 4.589844 L 6.679688 0.636719 C 3.019531 0.84375 1.539062 1.632812 0.945312 4.589844 Z M 3.859375 13.378906 L 0.621094 7.824219 C 0.578125 8.898438 0.5625 10.132812 0.5625 11.546875 L 0.5625 13.378906 Z M 19.238281 39.746094 L 14.753906 47.4375 L 23.726562 47.4375 Z M 29.492188 39.746094 L 25.007812 47.4375 L 33.980469 47.4375 Z M 2.59375 46.367188 L 0.992188 43.621094 C 1.285156 44.9375 1.777344 45.800781 2.59375 46.367188 Z "
     id="path13" />
  <g
     id="g3010"
     transform="translate(2.6498062e-5,-0.00232614)">
    <path
       d="m 33.077563,19.381665 c -0.83115,0 -1.505318,0.684606 -1.505318,1.52868 v 5.973818 c 0,0.844363 0.674168,1.52868 1.505318,1.52868 0.83115,0 1.504613,-0.684259 1.504613,-1.52868 v -5.973818 c 5.9e-5,-0.844074 -0.673404,-1.52868 -1.504613,-1.52868 z m -18.154708,0 c -0.83162,0 -1.505084,0.684606 -1.505084,1.52868 v 5.973818 c 0,0.844363 0.673404,1.52868 1.505084,1.52868 0.831503,0 1.505377,-0.684259 1.505377,-1.52868 v -5.973818 c -4.66e-4,-0.844074 -0.674168,-1.52868 -1.505377,-1.52868 z"
       id="path10"
       inkscape:connector-curvature="0"
       style="fill:#ffffff" />
    <path
       id="path12"
       d="m 17.34375,19.4375 0,10.90625 c 0,0.64834 0.507933,1.1875 1.15625,1.1875 l 1.34375,0 0,3.3125 c 0,0.84419 0.668497,1.53125 1.5,1.53125 0.831209,0 1.5,-0.68706 1.5,-1.53125 l 0,-3.3125 2.34375,0 0,3.3125 c 0,0.84419 0.700099,1.53125 1.53125,1.53125 0.831151,0 1.5,-0.68706 1.5,-1.53125 l 0,-3.3125 1.34375,0 c 0.647553,0 1.15625,-0.539623 1.15625,-1.1875 l 0,-10.90625 -13.375,0 z m 8.59375,2.59375 c 0.08356,-0.0012 -0.04025,0.07903 -0.34375,0.21875 -0.991769,0.4528 -2.217652,1.3487 -2.5625,1.875 -0.292729,0.4468 -0.292693,0.50475 0,0.71875 0.218754,0.137 0.44645,0.111 0.65625,0.125 0.22721,0.0311 0.529282,0.02125 1.0625,0.03125 1.077978,0.019 1.32381,0.07525 1.375,0.34375 0.08061,0.4228 -0.873901,1.27775 -2.1875,1.96875 -1.430576,0.7526 -2.231699,0.93255 -0.96875,0.21875 1.23822,-0.6997 2.29216,-1.64375 2.21875,-2.03125 -0.42625,-0.3087 -1.356539,-0.26075 -2.125,-0.21875 -0.209766,0 -0.543678,0.0053 -0.875,-0.1875 -0.179226,-0.1043 -0.3125,-0.2996 -0.3125,-0.4375 0,-0.5689 2.533766,-2.25325 3.90625,-2.59375 0.0737,-0.01825 0.128396,-0.03085 0.15625,-0.03125 z"
       style="fill:#ffffff"
       inkscape:connector-curvature="0" />
    <path
       d="m 27.174556,13.772997 1.237119,-1.796137 c 0.07315,-0.106832 0.05517,-0.246692 -0.04083,-0.313093 -0.09617,-0.06594 -0.233124,-0.03355 -0.306974,0.07352 l -1.285179,1.865314 c -0.846249,-0.3338 -1.787087,-0.519586 -2.778511,-0.519586 -0.991129,0 -1.932497,0.185786 -2.778747,0.519586 l -1.285178,-1.865314 c -0.07385,-0.106833 -0.210857,-0.139571 -0.306974,-0.07352 -0.09612,0.06605 -0.114329,0.206145 -0.04089,0.313093 l 1.237121,1.796137 c -1.966044,0.914755 -3.345929,2.653513 -3.521595,4.682865 H 30.696564 C 30.52084,16.42651 29.140955,14.68781 27.174559,13.772997 z m -5.99936,2.830333 c -0.409201,0 -0.741262,-0.331718 -0.741262,-0.741174 0,-0.40882 0.331768,-0.740886 0.741262,-0.740886 0.409494,0 0.740439,0.332066 0.740439,0.740886 0,0.409167 -0.331356,0.741174 -0.740439,0.741174 z m 5.742558,0 c -0.409494,0 -0.740791,-0.331718 -0.740791,-0.741174 0,-0.40882 0.331356,-0.740886 0.740791,-0.740886 0.409554,0 0.740851,0.332066 0.740851,0.740886 0,0.409167 -0.331355,0.741174 -0.740851,0.741174 z"
       id="path14"
       inkscape:connector-curvature="0"
       style="fill:#ffffff" />
  </g>
</svg>
