<?xml version="1.0" encoding="UTF-8" standalone="no"?>
<svg
   xmlns:dc="http://purl.org/dc/elements/1.1/"
   xmlns:cc="http://creativecommons.org/ns#"
   xmlns:rdf="http://www.w3.org/1999/02/22-rdf-syntax-ns#"
   xmlns:svg="http://www.w3.org/2000/svg"
   xmlns="http://www.w3.org/2000/svg"
   xmlns:sodipodi="http://sodipodi.sourceforge.net/DTD/sodipodi-0.dtd"
   xmlns:inkscape="http://www.inkscape.org/namespaces/inkscape"
   width="48"
   height="48"
   viewBox="0 0 48 48"
   id="svg2"
   version="1.1"
   inkscape:version="0.48.3.1 r9886"
   sodipodi:docname="hugin.svg">
  <metadata
     id="metadata41">
    <rdf:RDF>
      <cc:Work
         rdf:about="">
        <dc:format>image/svg+xml</dc:format>
        <dc:type
           rdf:resource="http://purl.org/dc/dcmitype/StillImage" />
      </cc:Work>
    </rdf:RDF>
  </metadata>
  <sodipodi:namedview
     pagecolor="#ffffff"
     bordercolor="#666666"
     borderopacity="1"
     objecttolerance="10"
     gridtolerance="10"
     guidetolerance="10"
     inkscape:pageopacity="0"
     inkscape:pageshadow="2"
     inkscape:window-width="1280"
     inkscape:window-height="1000"
     id="namedview39"
     showgrid="false"
     inkscape:zoom="9.8333333"
     inkscape:cx="47.767069"
     inkscape:cy="34.956174"
     inkscape:window-x="0"
     inkscape:window-y="24"
     inkscape:window-maximized="1"
     inkscape:current-layer="svg2" />
  <defs
     id="defs4">
    <clipPath
       id="clip3">
      <path
         d="M 15 16 L 33 16 L 33 32 L 15 32 Z "
         id="path7" />
    </clipPath>
    <clipPath
       id="clip2">
      <path
         d="M 22.179688 5.25 L 22.179688 9.46875 C 16.210938 10.214844 11.363281 14.59375 9.894531 20.335938 L 13.671875 20.335938 C 15.21875 16.191406 19.320312 12.960938 23.800781 12.988281 C 23.90625 12.988281 24.019531 12.984375 24.125 12.984375 C 25.753906 12.996094 27.351562 13.402344 28.800781 14.128906 C 31.410156 15.3125 33.351562 17.648438 34.296875 20.335938 L 38.101562 20.335938 C 36.632812 14.59375 31.785156 10.214844 25.816406 9.46875 L 25.816406 5.25 Z M 9.894531 27.660156 C 11.363281 33.402344 16.210938 37.777344 22.179688 38.527344 L 22.179688 42.746094 L 25.816406 42.746094 L 25.816406 38.527344 C 31.785156 37.777344 36.632812 33.402344 38.101562 27.660156 L 34.351562 27.660156 C 32.878906 32.023438 28.332031 35.164062 23.730469 35 C 19.253906 35.023438 15.191406 31.808594 13.675781 27.660156 Z "
         id="path10" />
    </clipPath>
    <clipPath
       id="clip1">
      <path
         d="M 9 5 L 39 5 L 39 43 L 9 43 Z "
         id="path13" />
    </clipPath>
    <clipPath
       id="clip4">
      <path
         d="M 24.003906 15.847656 C 19.574219 15.847656 15.984375 19.4375 15.984375 23.910156 C 15.984375 23.910156 15.933594 24.667969 16.164062 25.523438 L 28.476562 25.523438 C 28.140625 26.457031 27.546875 27.292969 26.738281 27.851562 C 24.875 29.332031 22.054688 28.792969 20.46875 27.132812 L 16.65625 27.132812 C 17.894531 29.980469 20.714844 31.972656 24.003906 31.972656 C 28.429688 31.972656 32.019531 28.363281 32.019531 23.910156 C 32.019531 23.910156 32.019531 23.082031 31.859375 22.296875 L 19.542969 22.296875 C 20.234375 20.535156 21.890625 19.109375 23.816406 19.089844 C 23.910156 19.085938 24.007812 19.085938 24.101562 19.085938 C 25.390625 19.113281 26.644531 19.730469 27.511719 20.683594 L 31.351562 20.683594 C 30.113281 17.839844 27.289062 15.847656 24.003906 15.847656 Z "
         id="path16" />
    </clipPath>
    <radialGradient
       cx="148.004"
       cy="160"
       gradientTransform="matrix(.1831 0 0 .1831 -3.10029 -5.29688)"
       id="radial0"
       r="128"
       gradientUnits="userSpaceOnUse">
      <stop
         offset="0"
         style="stop-color:#ade7c9"
         id="stop19" />
      <stop
         offset="1"
         style="stop-color:#2f865a"
         id="stop21" />
    </radialGradient>
    <inkscape:path-effect
       id="path-effect3159"
       effect="skeletal" />
    <inkscape:path-effect
       id="path-effect3161"
       effect="skeletal" />
    <inkscape:path-effect
       id="path-effect3163"
       effect="skeletal" />
    <inkscape:path-effect
       id="path-effect3159-8"
       effect="skeletal" />
    <inkscape:path-effect
       id="path-effect3161-4"
       effect="skeletal" />
    <inkscape:path-effect
       id="path-effect3163-9"
       effect="skeletal" />
  </defs>
  <path
     style="fill:url(#radial0)"
     d="M 47.4375 11.546875 L 47.4375 36.453125 C 47.4375 46.703125 47.4375 47.4375 36.453125 47.4375 L 11.550781 47.4375 C 0.5625 47.4375 0.5625 46.703125 0.5625 36.453125 L 0.5625 11.546875 C 0.5625 1.296875 0.5625 0.5625 11.550781 0.5625 L 36.453125 0.5625 C 47.4375 0.5625 47.4375 1.296875 47.4375 11.546875 Z "
     id="path23" />
  <path
     style="fill:#fff;fill-opacity:.051"
     d="M 38.265625 47.4375 C 40.808594 47.425781 42.644531 47.355469 43.976562 46.996094 L 39.746094 39.746094 L 35.261719 47.4375 L 36.453125 47.4375 C 37.09375 47.4375 37.695312 47.4375 38.265625 47.4375 Z M 39.746094 39.746094 L 34.621094 30.957031 L 29.492188 39.746094 Z M 39.746094 39.746094 L 47.398438 39.746094 C 47.429688 38.773438 47.4375 37.683594 47.4375 36.449219 L 47.4375 35.351562 L 44.875 30.957031 Z M 44.875 30.957031 L 39.746094 22.167969 L 34.621094 30.957031 Z M 44.875 30.957031 L 47.4375 30.957031 L 47.4375 26.5625 Z M 34.621094 30.957031 L 29.492188 22.167969 L 24.367188 30.957031 Z M 24.367188 30.957031 L 19.238281 39.746094 L 29.492188 39.746094 Z M 24.367188 30.957031 L 19.238281 22.167969 L 14.113281 30.957031 Z M 14.113281 30.957031 L 8.984375 39.746094 L 19.238281 39.746094 Z M 14.113281 30.957031 L 8.984375 22.167969 L 3.859375 30.957031 Z M 3.859375 30.957031 L 0.5625 36.605469 C 0.5625 37.773438 0.574219 38.816406 0.601562 39.746094 L 8.984375 39.746094 Z M 3.859375 30.957031 L 0.5625 25.308594 L 0.5625 30.957031 Z M 8.984375 39.746094 L 4.671875 47.140625 C 6.269531 47.433594 8.480469 47.4375 11.550781 47.4375 L 13.472656 47.4375 Z M 8.984375 22.167969 L 3.859375 13.378906 L 0.5625 19.027344 L 0.5625 22.167969 Z M 8.984375 22.167969 L 19.238281 22.167969 L 14.113281 13.378906 Z M 14.113281 13.378906 L 8.984375 4.589844 L 3.859375 13.378906 Z M 14.113281 13.378906 L 24.367188 13.378906 L 19.238281 4.589844 Z M 19.238281 4.589844 L 16.886719 0.5625 L 11.546875 0.5625 C 11.472656 0.5625 11.410156 0.5625 11.335938 0.5625 L 8.984375 4.589844 Z M 19.238281 4.589844 L 29.492188 4.589844 L 27.140625 0.5625 L 21.589844 0.5625 Z M 29.492188 4.589844 L 39.746094 4.589844 L 37.394531 0.5625 C 37.082031 0.5625 36.785156 0.5625 36.449219 0.5625 L 31.84375 0.5625 Z M 29.492188 4.589844 L 24.367188 13.378906 L 34.621094 13.378906 Z M 34.621094 13.378906 L 44.875 13.378906 L 39.746094 4.589844 Z M 34.621094 13.378906 L 29.492188 22.167969 L 39.746094 22.167969 Z M 39.746094 22.167969 L 47.4375 22.167969 L 47.4375 17.773438 L 44.875 13.378906 Z M 44.875 13.378906 L 47.4375 13.378906 L 47.4375 11.546875 C 47.4375 10.632812 47.429688 9.796875 47.414062 9.023438 Z M 29.492188 22.167969 L 24.367188 13.378906 L 19.238281 22.167969 Z M 39.746094 4.589844 L 47.054688 4.589844 C 46.5 1.832031 45.167969 0.960938 42.023438 0.6875 Z M 8.984375 4.589844 L 6.679688 0.636719 C 3.019531 0.84375 1.539062 1.632812 0.945312 4.589844 Z M 3.859375 13.378906 L 0.621094 7.824219 C 0.578125 8.898438 0.5625 10.132812 0.5625 11.546875 L 0.5625 13.378906 Z M 19.238281 39.746094 L 14.753906 47.4375 L 23.726562 47.4375 Z M 29.492188 39.746094 L 25.007812 47.4375 L 33.980469 47.4375 Z M 2.59375 46.367188 L 0.992188 43.621094 C 1.285156 44.9375 1.777344 45.800781 2.59375 46.367188 Z "
     id="path25" />
  <path
     style="color:#000000;fill:#ffffff;fill-opacity:1;fill-rule:nonzero;stroke:#ffffff;stroke-width:0.42300901;marker:none;visibility:visible;display:inline;overflow:visible;enable-background:accumulate"
     d="m 25.081512,13.941459 c -1.663068,0 -3.013939,1.350872 -3.013939,3.013939 0,1.663067 1.350871,3.013939 3.013939,3.013939 1.66306,0 3.013939,-1.350872 3.013939,-3.013939 0,-1.663067 -1.350879,-3.013939 -3.013939,-3.013939 z m 0,1.321903 c 0.926559,0 1.665598,0.765469 1.665598,1.692036 0,0.926567 -0.739039,1.665598 -1.665598,1.665598 -0.926567,0 -1.665598,-0.739031 -1.665598,-1.665598 0,-0.926567 0.739031,-1.692036 1.665598,-1.692036 z"
     id="path3078"
     inkscape:connector-curvature="0" />
  <path
     style="fill:#ffffff;fill-rule:evenodd;stroke:#ffffff;stroke-width:0.84601802"
     d="m 42.307695,11.711348 c -0.286959,-0.0063 -1.317087,0.284767 -1.512799,0.350417 -3.915404,2.99915 -8.410846,5.568866 -12.683548,7.111838 -1.199087,0.423707 -3.167886,0.945146 -4.36721,1.131908 -1.22577,0.19088 -5.349535,0.287087 -7.807294,0.158628 -3.252521,-0.234552 -6.7916844,-0.535243 -8.901561,-0.713827 l -2.0352833,0.45796 c 0,0 13.8058533,2.459181 20.0826213,1.107263 6.27676,-1.351919 13.566106,-5.912734 17.225074,-9.604187 z"
     id="path2384-8-1"
     inkscape:connector-curvature="0"
     sodipodi:nodetypes="cccscccsc" />
  <path
     inkscape:connector-curvature="0"
     d="m 23.364294,22.955564 c 0,0 0.660672,0.08106 0.901119,1.432754 0.261623,1.470764 1.502266,8.798452 1.403552,10.970216 -0.09872,2.171764 -1.141591,2.986858 -1.141591,2.986858 l -0.283467,1.735001 4.610468,-3.987825 c 0,0 -1.107395,-2.227462 -1.403544,-4.596659 -0.29614,-2.369197 -0.450572,-4.093126 -0.450572,-4.093126 0,0 3.891844,5.6941 4.286714,7.470996 0.394862,1.776899 0,2.956522 0,2.956522 0,0 -1.347842,1.532594 -0.265819,1.26678 0.944173,-0.231949 4.219456,-2.652665 4.219456,-2.652665 L 28.197544,24.727485 27.70396,20.486527 23.244066,21.349615 z"
     id="path3183-5-7"
     style="fill:#ffffff;fill-opacity:1;fill-rule:evenodd;stroke:#ffffff;stroke-width:0.84601802"
     sodipodi:nodetypes="csscccscscsccccc" />
  <path
     inkscape:connector-curvature="0"
     style="opacity:0.5;fill:#ffffff;stroke:none"
     d="m 45.074408,6.8300084 c 0,0 -9.905687,3.6007616 -14.227074,4.1409366 -4.321386,0.540171 -18.090582,1.642568 -27.9217418,-1.9225779 0,0 1.5766603,4.7077029 1.3605933,8.4889189 -0.2160669,3.781217 -1.0648121,9.819935 -1.0648121,9.819935 0,0 15.0807436,-3.531834 20.9117276,-3.815577 10.734338,-0.522347 17.052863,-0.741277 18.929994,2.159203 0.747858,1.155562 1.17672,0.743464 1.094391,0 -0.199505,-1.801633 -1.389603,-5.917177 -1.301437,-9.642467 0.132107,-5.581963 2.218359,-9.2283716 2.218359,-9.2283716 z"
     id="path3013" />
  <path
     sodipodi:type="arc"
     style="color:#000000;fill:#ffffff;fill-opacity:1;fill-rule:nonzero;stroke:none;stroke-width:0.5;marker:none;visibility:visible;display:inline;overflow:visible;enable-background:accumulate"
     id="path3005"
     sodipodi:cx="24.808662"
     sodipodi:cy="8.3780508"
     sodipodi:rx="2.2291842"
     sodipodi:ry="2.2291842"
     d="m 27.037847,8.3780508 a 2.2291842,2.2291842 0 1 1 -4.458369,0 2.2291842,2.2291842 0 1 1 4.458369,0 z"
     transform="translate(0.12475636,8.6290998)" />
</svg>
