<?xml version="1.0" encoding="UTF-8" standalone="no"?>
<svg
   xmlns:dc="http://purl.org/dc/elements/1.1/"
   xmlns:cc="http://creativecommons.org/ns#"
   xmlns:rdf="http://www.w3.org/1999/02/22-rdf-syntax-ns#"
   xmlns:svg="http://www.w3.org/2000/svg"
   xmlns="http://www.w3.org/2000/svg"
   xmlns:xlink="http://www.w3.org/1999/xlink"
   xmlns:sodipodi="http://sodipodi.sourceforge.net/DTD/sodipodi-0.dtd"
   xmlns:inkscape="http://www.inkscape.org/namespaces/inkscape"
   viewBox="0 0 48 48"
   id="svg2"
   version="1.1"
   inkscape:version="0.48.3.1 r9886"
   width="100%"
   height="100%"
   sodipodi:docname="java.svg">
  <metadata
     id="metadata68">
    <rdf:RDF>
      <cc:Work
         rdf:about="">
        <dc:format>image/svg+xml</dc:format>
        <dc:type
           rdf:resource="http://purl.org/dc/dcmitype/StillImage" />
      </cc:Work>
    </rdf:RDF>
  </metadata>
  <sodipodi:namedview
     pagecolor="#ffffff"
     bordercolor="#666666"
     borderopacity="1"
     objecttolerance="10"
     gridtolerance="10"
     guidetolerance="10"
     inkscape:pageopacity="0"
     inkscape:pageshadow="2"
     inkscape:window-width="1280"
     inkscape:window-height="1000"
     id="namedview66"
     showgrid="false"
     inkscape:zoom="2.1902633"
     inkscape:cx="117.18227"
     inkscape:cy="111.07341"
     inkscape:window-x="0"
     inkscape:window-y="24"
     inkscape:window-maximized="1"
     inkscape:current-layer="svg2" />
  <defs
     id="defs4">
    <linearGradient
       id="linearGradient3895-9-0-3-2-4-0">
      <stop
         offset="0"
         style="stop-color:#feab9c"
         id="stop7" />
      <stop
         offset="1"
         style="stop-color:#c4280b"
         id="stop9" />
    </linearGradient>
    <radialGradient
       cx="148.004"
       cy="160"
       gradientTransform="matrix(0.97656,0,0,0.97656,-16.5349,-236.25)"
       r="128"
       id="radialGradient4432"
       xlink:href="#linearGradient3895-9-0-3-2-4-0"
       gradientUnits="userSpaceOnUse" />
    <radialGradient
       inkscape:collect="always"
       xlink:href="#linearGradient3895-9-0-3-2-4-0"
       id="radialGradient3023"
       gradientUnits="userSpaceOnUse"
       gradientTransform="matrix(0.97656,0,0,0.97656,-16.5349,-236.25)"
       cx="148.004"
       cy="160"
       r="128" />
    <radialGradient
       inkscape:collect="always"
       xlink:href="#linearGradient3895-9-0-3-2-4-0"
       id="radialGradient3043"
       gradientUnits="userSpaceOnUse"
       gradientTransform="matrix(0.97656,0,0,0.97656,-16.5349,-236.25)"
       cx="148.004"
       cy="160"
       r="128" />
    <radialGradient
       inkscape:collect="always"
       xlink:href="#linearGradient3895-9-0-3-2-4-0"
       id="radialGradient3065"
       gradientUnits="userSpaceOnUse"
       gradientTransform="matrix(0.97656,0,0,0.97656,-16.5349,-236.25)"
       cx="148.004"
       cy="160"
       r="128" />
  </defs>
  <g
     id="g3045"
     transform="matrix(0.1875,0,0,0.1875,0.0043669,39.050416)">
    <g
       transform="translate(-0.0259568,-0.26621944)"
       id="g12">
      <path
         inkscape:connector-curvature="0"
         id="path14"
         d="m 253,-146.40625 0,132.8125 C 253,41.09375 253,45 194.40625,45 L 61.59375,45 C 3,45 3,41.09375 3,-13.59375 l 0,-132.8125 C 3,-201.09375 3,-205 61.59375,-205 l 132.8125,0 C 253,-205 253,-201.09375 253,-146.40625 z"
         style="color:#bebebe;fill:url(#radialGradient3065)" />
    </g>
    <path
       style="opacity:0.05;fill:#ffffff"
       d="m 204.05436,44.727357 c 13.55517,-0.064 23.34858,-0.43514 30.45654,-2.34978 l -22.55248,-38.6646398 -23.9258,41.0144198 6.34767,0 c 3.41797,0 6.64139,0.0143 9.67407,0 z m 7.90406,-41.0144198 -27.34376,-46.8736202 -27.34375,46.8736202 54.68751,0 z m 0,0 40.802,0 c 0.16456,-5.18299 0.21362,-11.00178 0.21362,-17.5776102 l 0,-5.8592 -13.67187,-23.43681 -27.34375,46.8736202 z m 27.34375,-46.8736202 -27.34375,-46.87362 -27.34376,46.87362 54.68751,0 z m 0,0 13.67187,0 0,-23.43681 -13.67187,23.43681 z m -54.68751,0 -27.34375,-46.87362 -27.34375,46.87362 54.6875,0 z m -54.6875,0 -27.34374,46.8736202 54.68749,0 -27.34375,-46.8736202 z m 0,0 -27.34374,-46.87362 -27.343743,46.87362 54.687483,0 z m -54.687483,0 -27.34375,46.8736202 54.687493,0 -27.343743,-46.8736202 z m 0,0 -27.34375,-46.87362 -27.34375,46.87362 54.6875,0 z m -54.6875,0 -17.5781306,30.11996 c 0.003,6.2260802 0.0559,11.7983502 0.21362,16.7536602 l 44.7082606,0 -27.34375,-46.8736202 z m 0,0 -17.5781306,-30.11997 0,30.11997 17.5781306,0 z M 47.895927,3.7129372 24.885667,43.140487 c 8.52702,1.57164 20.31177,1.58687 36.68213,1.58687 l 10.2539,0 -23.92577,-41.0144198 z m 0,-93.7472402 -27.34375,-46.873567 -17.5781306,30.11991 0,16.753657 44.9218806,0 z m 0,0 54.687493,0 -27.343743,-46.873567 -27.34375,46.873567 z m 27.34375,-46.873567 -27.34375,-46.87365 -27.34375,46.87365 54.6875,0 z m 0,0 54.687483,0 -27.34374,-46.87365 -27.343743,46.87365 z m 27.343743,-46.87365 -12.542723,-21.48374 -28.4729,0 c -0.39895,0 -0.7356,-10e-6 -1.12916,0 l -12.54271,21.48374 54.687493,0 z m 0,0 54.68749,0 -12.54272,-21.48374 -29.60205,0 -12.54272,21.48374 z m 54.68749,0 54.68751,0 -12.54273,-21.48374 c -1.67321,-0.002 -3.25633,0 -5.0354,0 l -24.56666,0 -12.54272,21.48374 z m 0,0 -27.34375,46.87365 54.6875,0 -27.34375,-46.87365 z m 27.34375,46.87365 54.68751,0 -27.34375,-46.87365 -27.34376,46.87365 z m 0,0 -27.34375,46.873567 54.68751,0 -27.34376,-46.873567 z m 27.34376,46.873567 41.01562,0 0,-23.436777 -13.67187,-23.43679 -27.34375,46.873567 z m 27.34375,-46.873567 13.67187,0 0,-9.76536 c 0,-4.89463 -0.0402,-9.34683 -0.12207,-13.45786 l -13.5498,23.22322 z m -82.03126,46.873567 -27.34376,-46.873567 -27.34373,46.873567 54.68749,0 z m 54.68751,-93.747217 38.97094,0 c -2.94957,-14.71522 -10.05142,-19.35598 -26.82494,-20.81237 l -12.146,20.81237 z m -164.062493,0 -12.2986,-21.08702 c -19.50932,1.10943 -27.4164006,5.311 -30.5786106,21.08702 l 42.8772106,0 z m -27.34375,46.87365 -17.2729606,-29.63172 c -0.23061,5.73399 -0.30517,12.30817 -0.30517,19.86636 l 0,9.76536 17.5781306,0 z M 102.58342,3.7129372 78.657637,44.727357 l 47.851563,0 -23.92578,-41.0144198 z m 54.68749,0 -23.92579,41.0144198 47.85157,0 L 157.27091,3.7129372 z M 13.807787,39.020737 5.2628664,24.372737 c 1.57234,7.02888 4.1916004,11.64072 8.5449206,14.648 z"
       id="path16"
       inkscape:connector-curvature="0" />
    <g
       style="fill:#ffffff"
       id="g3081"
       transform="matrix(27.256098,0,0,27.256098,-56.640543,-264.8814)">
      <g
         style="fill:#ffffff"
         transform="matrix(0.90909,0,0,0.86667,0.71901,1.36215)"
         id="g30">
        <path
           style="fill:#ffffff;fill-rule:evenodd"
           d="M 7.0505914,6.0587407 C 7.4570798,6.5288636 6.944262,6.9521969 6.944262,6.9521969 c 0,0 1.0311734,-0.5358506 0.5571216,-1.2053858 C 7.0594522,5.1207236 6.7205275,4.8110216 8.5569239,3.73932 c 0,0 -2.8819685,0.7241227 -1.5063325,2.3194207"
           id="path32"
           inkscape:connector-curvature="0" />
      </g>
      <g
         style="fill:#ffffff"
         id="g3068">
        <g
           style="fill:#ffffff;fill-rule:evenodd"
           transform="matrix(1,0,0,1.00581,0.11357,0.46877)"
           id="g24">
          <path
             style="fill:#ffffff"
             d="m 5.5553348,8.568613 c 0,0 -0.322311,0.1871841 0.228165,0.2514247 0.6678814,0.075319 1.0079139,0.064244 1.7433586,-0.074209 0,0 0.1938298,0.1207282 0.4629756,0.2259494 C 6.3417289,9.6784261 4.2605531,8.9307981 5.5553348,8.568613"
             id="path26"
             inkscape:connector-curvature="0" />
          <path
             style="fill:#ffffff"
             d="m 5.3537519,7.6470918 c 0,0 -0.3610766,0.2680387 0.1905068,0.3245261 0.7121853,0.073102 1.2748449,0.079747 2.2484231,-0.107437 0,0 0.1351269,0.1362345 0.3466779,0.2104437 C 6.1467918,8.6572208 3.9271663,8.1211432 5.3537519,7.6470918"
             id="path28"
             inkscape:connector-curvature="0" />
        </g>
        <g
           id="g34"
           style="fill:#ffffff;fill-rule:evenodd">
          <g
             id="g36"
             transform="matrix(0.90909,0,0,0.8717,0.71901,1.30938)"
             style="fill:#ffffff">
            <path
               style="fill:#ffffff"
               id="path38"
               d="m 9.2303435,9.2508932 c 0,0 0.2381329,0.196045 -0.2625007,0.3477857 C 8.0175239,9.8866544 5.0092893,9.9741544 4.1741606,9.6097545 3.8740016,9.4790584 4.4366612,9.2985194 4.6138768,9.2597538 4.7988457,9.2198798 4.9040675,9.227636 4.9040675,9.227636 4.5706804,8.9917178 2.7453597,9.6895034 3.9770081,9.8888714 7.3374592,10.433809 10.102022,9.6440923 9.2303435,9.2508957"
               inkscape:connector-curvature="0" />
            <path
               style="fill:#ffffff"
               id="path40"
               d="m 5.709291,6.6923429 c 0,0 -1.5295924,0.3632919 -0.5416154,0.4962037 0.4175645,0.05538 1.2493699,0.043197 2.0235808,-0.022153 0.6335456,-0.053165 1.2693065,-0.1672473 1.2693065,-0.1672473 0,0 -0.2237345,0.096361 -0.3854436,0.2060134 C 6.5222674,7.6138634 3.5206782,7.4233565 4.384604,7.0057921 5.1156187,6.6524685 5.709291,6.6923422 5.709291,6.6923422"
               inkscape:connector-curvature="0" />
            <path
               style="fill:#ffffff"
               id="path42"
               d="M 8.4539176,8.2263654 C 10.033351,7.4056356 9.3034445,6.6170263 8.7939501,6.7233556 c -0.1251586,0.026582 -0.1805385,0.048734 -0.1805385,0.048734 0,0 0.045411,-0.073102 0.1340192,-0.1041144 1.009021,-0.3544311 1.7843392,1.0455721 -0.3245261,1.6004787 0,0 0.024368,-0.022153 0.031013,-0.042088"
               inkscape:connector-curvature="0" />
          </g>
          <g
             style="fill:#ffffff"
             id="g44"
             transform="matrix(0.90909,0,0,0.86667,0.71901,1.36215)">
            <path
               id="path46"
               d="m 7.5013836,2.0103378 c 0,0 0.8750023,0.8800878 -0.8295905,2.2336401 -1.3656679,1.0850702 -0.311235,1.7044735 0,2.4107717 C 5.8743229,5.931741 5.2884036,5.2945128 5.6816008,4.7007323 6.2575514,3.8306708 7.8547074,3.4084517 7.5013836,2.0103378"
               style="fill:#ffffff"
               inkscape:connector-curvature="0" />
            <path
               id="path48"
               d="m 5.8643544,10.450266 c 1.5163012,0.09804 3.8444704,-0.05459 3.8998504,-0.7753671 0,0 -0.1063289,0.2729378 -1.2537996,0.4901751 -1.293674,0.245087 -2.889722,0.217236 -3.8356105,0.06016 0,0 0.1938297,0.160421 1.1895597,0.225035"
               style="fill:#ffffff"
               inkscape:connector-curvature="0" />
          </g>
        </g>
      </g>
    </g>
  </g>
</svg>
