<?xml version="1.0" encoding="UTF-8" standalone="no"?>
<svg
   xmlns:dc="http://purl.org/dc/elements/1.1/"
   xmlns:cc="http://creativecommons.org/ns#"
   xmlns:rdf="http://www.w3.org/1999/02/22-rdf-syntax-ns#"
   xmlns:svg="http://www.w3.org/2000/svg"
   xmlns="http://www.w3.org/2000/svg"
   xmlns:xlink="http://www.w3.org/1999/xlink"
   xmlns:sodipodi="http://sodipodi.sourceforge.net/DTD/sodipodi-0.dtd"
   xmlns:inkscape="http://www.inkscape.org/namespaces/inkscape"
   viewBox="0 0 48 48"
   id="svg2"
   version="1.1"
   inkscape:version="0.48.3.1 r9886"
   width="100%"
   height="100%"
   sodipodi:docname="k9-copy.svg">
  <metadata
     id="metadata30">
    <rdf:RDF>
      <cc:Work
         rdf:about="">
        <dc:format>image/svg+xml</dc:format>
        <dc:type
           rdf:resource="http://purl.org/dc/dcmitype/StillImage" />
      </cc:Work>
    </rdf:RDF>
  </metadata>
  <sodipodi:namedview
     pagecolor="#ffffff"
     bordercolor="#666666"
     borderopacity="1"
     objecttolerance="10"
     gridtolerance="10"
     guidetolerance="10"
     inkscape:pageopacity="0"
     inkscape:pageshadow="2"
     inkscape:window-width="1280"
     inkscape:window-height="1000"
     id="namedview28"
     showgrid="false"
     inkscape:zoom="8.4893923"
     inkscape:cx="32.598822"
     inkscape:cy="18.025231"
     inkscape:window-x="0"
     inkscape:window-y="24"
     inkscape:window-maximized="1"
     inkscape:current-layer="svg2" />
  <defs
     id="defs4">
    <linearGradient
       id="linearGradient3895-9-0-3-2-4-0">
      <stop
         offset="0"
         style="stop-color:#ffe984"
         id="stop7" />
      <stop
         offset="1"
         style="stop-color:#a37908"
         id="stop9" />
    </linearGradient>
    <radialGradient
       cx="148.004"
       cy="160"
       gradientTransform="matrix(0.97656,0,0,0.97656,-16.5349,-236.25)"
       r="128"
       id="radialGradient4432"
       xlink:href="#linearGradient3895-9-0-3-2-4-0"
       gradientUnits="userSpaceOnUse" />
    <radialGradient
       inkscape:collect="always"
       xlink:href="#linearGradient3895-9-0-3-2-4-0"
       id="radialGradient2999"
       gradientUnits="userSpaceOnUse"
       gradientTransform="matrix(0.97656,0,0,0.97656,-16.5349,-236.25)"
       cx="148.004"
       cy="160"
       r="128" />
  </defs>
  <g
     id="g2991"
     transform="matrix(0.1875,0,0,0.1875,-5e-4,5e-4)">
    <g
       id="g12"
       transform="translate(0,208)">
      <path
         id="path14"
         d="m 253,-146.40625 0,132.8125 C 253,41.09375 253,45 194.40625,45 L 61.59375,45 C 3,45 3,41.09375 3,-13.59375 l 0,-132.8125 C 3,-201.09375 3,-205 61.59375,-205 l 132.8125,0 C 253,-205 253,-201.09375 253,-146.40625 z"
         style="color:#bebebe;fill:url(#radialGradient2999)"
         inkscape:connector-curvature="0" />
      <path
         id="path16"
         d="m 204.08032,44.993662 c 13.55517,-0.06396 23.34858,-0.435144 30.45654,-2.349786 l -22.55248,-38.664633 -23.92579,41.014419 6.34766,0 c 3.41797,0 6.64139,0.01426 9.67407,0 z m 7.90406,-41.01442 -27.34375,-46.873624 -27.34375,46.873624 54.6875,0 z m 0,0 40.802,0 C 252.95094,-1.20375 253,-7.022538 253,-13.598368 l 0,-5.859203 -13.67187,-23.436811 -27.34375,46.873624 z m 27.34375,-46.873624 -27.34375,-46.873621 -27.34375,46.873621 54.6875,0 z m 0,0 13.67187,0 0,-23.43681 -13.67187,23.43681 z m -54.6875,0 -27.34375,-46.873621 -27.34376,46.873621 54.68751,0 z m -54.68751,0 -27.34374,46.873624 54.6875,0 -27.34376,-46.873624 z m 0,0 -27.34374,-46.873621 -27.34375,46.873621 54.68749,0 z m -54.68749,0 -27.34375,46.873624 54.6875,0 -27.34375,-46.873624 z m 0,0 -27.34375,-46.873621 -27.343755,46.873621 54.687505,0 z m -54.687505,0 L 3,-12.774415 c 0.0034,6.226079 0.05591,11.79834402 0.213614,16.753658 l 44.708266,0 -27.343755,-46.873625 z m 0,0 L 3,-73.014348 l 0,30.119966 17.578125,0 z M 47.92188,3.979243 24.911614,43.406793 c 8.527026,1.571634 20.311776,1.586869 36.682136,1.586869 l 10.2539,0 L 47.92188,3.979243 z m 0,-93.747246 L 20.578125,-136.64161 3,-106.52166 l 0,16.753657 44.92188,0 z m 0,0 54.6875,0 -27.34375,-46.873607 -27.34375,46.873607 z m 27.34375,-46.873607 -27.34375,-46.87364 -27.343755,46.87364 54.687505,0 z m 0,0 54.68749,0 -27.34374,-46.87364 -27.34375,46.87364 z m 27.34375,-46.87364 -12.54273,-21.48374 -28.4729,0 c -0.39895,0 -0.7356,-1e-5 -1.12916,0 l -12.54271,21.48374 54.6875,0 z m 0,0 54.6875,0 -12.54273,-21.48374 -29.60205,0 -12.54272,21.48374 z m 54.6875,0 54.6875,0 -12.54273,-21.48374 c -1.67321,-0.002 -3.25633,0 -5.0354,0 l -24.56665,0 -12.54272,21.48374 z m 0,0 -27.34376,46.87364 54.68751,0 -27.34375,-46.87364 z m 27.34375,46.87364 54.6875,0 -27.34375,-46.87364 -27.34375,46.87364 z m 0,0 -27.34375,46.873607 54.6875,0 -27.34375,-46.873607 z m 27.34375,46.873607 41.01562,0 0,-23.436807 -13.67187,-23.4368 -27.34375,46.873607 z m 27.34375,-46.873607 13.67187,0 0,-9.76535 c 0,-4.89463 -0.0402,-9.34683 -0.12207,-13.45786 l -13.5498,23.22321 z m -82.03125,46.873607 -27.34376,-46.873607 -27.34374,46.873607 54.6875,0 z m 54.6875,-93.747247 38.97094,0 c -2.94957,-14.71522 -10.05142,-19.35598 -26.82494,-20.81237 l -12.146,20.81237 z m -164.0625,0 -12.2986,-21.08702 c -19.509325,1.10943 -27.416405,5.311 -30.57861,21.08702 l 42.87721,0 z M 20.578125,-136.64161 3.30517,-166.27332 C 3.074557,-160.53933 3,-153.96515 3,-146.40696 l 0,9.76535 17.578125,0 z M 102.60938,3.979243 78.68359,44.993662 l 47.85157,0 -23.92578,-41.01442 z m 54.6875,0 -23.92579,41.014419 47.85157,0 L 157.29688,3.979243 z M 13.833739,39.287042 5.288818,24.639036 c 1.572341,7.028886 4.191602,11.640722 8.544921,14.648006 z"
         style="opacity:0.05;fill:#ffffff"
         inkscape:connector-curvature="0" />
    </g>
    <path
       id="path20"
       d="m 89.400089,72.568967 c -28.909747,0 -52.403429,22.97784 -52.403429,51.201513 0,27.1486 21.655658,49.06865 49.038071,50.72075 0,-30.68468 24.538299,-55.72292 55.047639,-58.41299 -3.7804,-24.596208 -25.43461,-43.509273 -51.682281,-43.509273 z m 0,35.095873 c 9.014921,0 16.346021,7.30465 16.346021,16.10564 0,8.80096 -7.3311,15.86526 -16.346021,15.86526 -9.01492,0 -16.346024,-7.0643 -16.346024,-15.86526 0,-8.80099 7.331104,-16.10564 16.346024,-16.10564 z m 0,3.36536 c -7.246796,0 -13.221048,5.66531 -13.221048,12.74028 0,7.07495 5.974252,12.74029 13.221048,12.74029 7.246827,0 12.980671,-5.66534 12.980671,-12.74029 0,-7.07497 -5.733844,-12.74028 -12.980671,-12.74028 z m 0,4.80765 c 4.517164,0 8.173012,3.5227 8.173012,7.93263 0,4.40997 -3.655848,7.93263 -8.173012,7.93263 -4.517133,0 -8.173012,-3.52266 -8.173012,-7.93263 0,-4.40993 3.655879,-7.93263 8.173012,-7.93263 z"
       style="fill:#ffffff"
       inkscape:connector-curvature="0" />
    <path
       id="path22"
       d="m 142.28125,123.65625 c -11.53347,0.8735 -22.02318,5.38444 -30.25,12.375 l 29.9375,-0.46875 0.3125,-11.90625 z m 14.5625,0.84375 38.625,32.34375 C 189.25378,140.46836 174.71044,128.0355 156.84375,124.5 z m -47.75,14.25 c -9.305545,9.22503 -15.0625,21.87355 -15.0625,35.84375 0,28.22386 23.43377,51.09375 52.34375,51.09375 25.34193,0 46.48135,-17.58746 51.3125,-40.9375 L 177.84375,205.4375 157.8125,186 c -2.95198,2.82015 -6.99419,4.5625 -11.4375,4.5625 -9.01499,0 -16.34375,-7.16772 -16.34375,-15.96875 0,-4.29823 1.7515,-8.18779 4.59375,-11.0625 L 109.09375,138.75 z m 27.84375,27 c -2.25493,2.2935 -3.65625,5.40087 -3.65625,8.84375 0,7.07501 5.8469,12.78125 13.09375,12.78125 3.55882,0 6.76985,-1.38773 9.125,-3.625 l -3.5,-3.375 c -1.4673,1.36373 -3.43915,2.1875 -5.625,2.1875 -4.51717,0 -8.1875,-3.55875 -8.1875,-7.96875 0,-2.11056 0.84891,-4.04104 2.21875,-5.46875 l -3.46875,-3.375 z"
       style="fill:#ffffff"
       inkscape:connector-curvature="0" />
    <path
       id="path24"
       d="m 203.23583,130.09445 c 0,-49.149069 -40.86354,-89.015135 -91.24236,-89.015135 -50.378812,0 -82.688384,39.866066 -82.688384,89.015135 0,-35.11647 20.624033,-63.582238 56.619143,-63.582238 35.995111,0 65.173111,28.465768 65.173111,63.582238 l 0,12.71645 -26.06924,0 52.13849,50.86579 52.13849,-50.86579 -26.06925,0 z"
       style="fill:#ffffff;stroke:none"
       inkscape:connector-curvature="0" />
  </g>
</svg>
