<?xml version="1.0" encoding="UTF-8" standalone="no"?>
<svg
   xmlns:dc="http://purl.org/dc/elements/1.1/"
   xmlns:cc="http://creativecommons.org/ns#"
   xmlns:rdf="http://www.w3.org/1999/02/22-rdf-syntax-ns#"
   xmlns:svg="http://www.w3.org/2000/svg"
   xmlns="http://www.w3.org/2000/svg"
   xmlns:sodipodi="http://sodipodi.sourceforge.net/DTD/sodipodi-0.dtd"
   xmlns:inkscape="http://www.inkscape.org/namespaces/inkscape"
   width="48"
   height="48"
   viewBox="0 0 48 48"
   id="svg2"
   version="1.1"
   inkscape:version="0.48.4 r9939"
   sodipodi:docname="libreoffice-writer (copie).svg">
  <metadata
     id="metadata117">
    <rdf:RDF>
      <cc:Work
         rdf:about="">
        <dc:format>image/svg+xml</dc:format>
        <dc:type
           rdf:resource="http://purl.org/dc/dcmitype/StillImage" />
      </cc:Work>
    </rdf:RDF>
  </metadata>
  <sodipodi:namedview
     pagecolor="#ffffff"
     bordercolor="#666666"
     borderopacity="1"
     objecttolerance="10"
     gridtolerance="10"
     guidetolerance="10"
     inkscape:pageopacity="0"
     inkscape:pageshadow="2"
     inkscape:window-width="1280"
     inkscape:window-height="1000"
     id="namedview115"
     showgrid="false"
     inkscape:zoom="4.9166667"
     inkscape:cx="20.847458"
     inkscape:cy="23.59322"
     inkscape:window-x="0"
     inkscape:window-y="24"
     inkscape:window-maximized="1"
     inkscape:current-layer="svg2" />
  <defs
     id="defs4">
    <radialGradient
       cx="148.004"
       cy="160"
       gradientTransform="matrix(.1831 0 0 .1831 -3.10029 -5.29688)"
       id="radial0"
       r="128"
       gradientUnits="userSpaceOnUse">
      <stop
         offset="0"
         style="stop-color:#b0cee7"
         id="stop7" />
      <stop
         offset="1"
         style="stop-color:#205582"
         id="stop9" />
    </radialGradient>
  </defs>
  <path
     style="fill:url(#radial0)"
     d="M 47.4375 11.546875 L 47.4375 36.453125 C 47.4375 46.703125 47.4375 47.4375 36.453125 47.4375 L 11.550781 47.4375 C 0.5625 47.4375 0.5625 46.703125 0.5625 36.453125 L 0.5625 11.546875 C 0.5625 1.296875 0.5625 0.5625 11.550781 0.5625 L 36.453125 0.5625 C 47.4375 0.5625 47.4375 1.296875 47.4375 11.546875 Z "
     id="path11" />
  <path
     style="fill:#fff;fill-opacity:.051"
     d="M 38.265625 47.4375 C 40.808594 47.425781 42.644531 47.355469 43.976562 46.996094 L 39.746094 39.746094 L 35.261719 47.4375 L 36.453125 47.4375 C 37.09375 47.4375 37.695312 47.4375 38.265625 47.4375 Z M 39.746094 39.746094 L 34.621094 30.957031 L 29.492188 39.746094 Z M 39.746094 39.746094 L 47.398438 39.746094 C 47.429688 38.773438 47.4375 37.683594 47.4375 36.449219 L 47.4375 35.351562 L 44.875 30.957031 Z M 44.875 30.957031 L 39.746094 22.167969 L 34.621094 30.957031 Z M 44.875 30.957031 L 47.4375 30.957031 L 47.4375 26.5625 Z M 34.621094 30.957031 L 29.492188 22.167969 L 24.367188 30.957031 Z M 24.367188 30.957031 L 19.238281 39.746094 L 29.492188 39.746094 Z M 24.367188 30.957031 L 19.238281 22.167969 L 14.113281 30.957031 Z M 14.113281 30.957031 L 8.984375 39.746094 L 19.238281 39.746094 Z M 14.113281 30.957031 L 8.984375 22.167969 L 3.859375 30.957031 Z M 3.859375 30.957031 L 0.5625 36.605469 C 0.5625 37.773438 0.574219 38.816406 0.601562 39.746094 L 8.984375 39.746094 Z M 3.859375 30.957031 L 0.5625 25.308594 L 0.5625 30.957031 Z M 8.984375 39.746094 L 4.671875 47.140625 C 6.269531 47.433594 8.480469 47.4375 11.550781 47.4375 L 13.472656 47.4375 Z M 8.984375 22.167969 L 3.859375 13.378906 L 0.5625 19.027344 L 0.5625 22.167969 Z M 8.984375 22.167969 L 19.238281 22.167969 L 14.113281 13.378906 Z M 14.113281 13.378906 L 8.984375 4.589844 L 3.859375 13.378906 Z M 14.113281 13.378906 L 24.367188 13.378906 L 19.238281 4.589844 Z M 19.238281 4.589844 L 16.886719 0.5625 L 11.546875 0.5625 C 11.472656 0.5625 11.410156 0.5625 11.335938 0.5625 L 8.984375 4.589844 Z M 19.238281 4.589844 L 29.492188 4.589844 L 27.140625 0.5625 L 21.589844 0.5625 Z M 29.492188 4.589844 L 39.746094 4.589844 L 37.394531 0.5625 C 37.082031 0.5625 36.785156 0.5625 36.449219 0.5625 L 31.84375 0.5625 Z M 29.492188 4.589844 L 24.367188 13.378906 L 34.621094 13.378906 Z M 34.621094 13.378906 L 44.875 13.378906 L 39.746094 4.589844 Z M 34.621094 13.378906 L 29.492188 22.167969 L 39.746094 22.167969 Z M 39.746094 22.167969 L 47.4375 22.167969 L 47.4375 17.773438 L 44.875 13.378906 Z M 44.875 13.378906 L 47.4375 13.378906 L 47.4375 11.546875 C 47.4375 10.632812 47.429688 9.796875 47.414062 9.023438 Z M 29.492188 22.167969 L 24.367188 13.378906 L 19.238281 22.167969 Z M 39.746094 4.589844 L 47.054688 4.589844 C 46.5 1.832031 45.167969 0.960938 42.023438 0.6875 Z M 8.984375 4.589844 L 6.679688 0.636719 C 3.019531 0.84375 1.539062 1.632812 0.945312 4.589844 Z M 3.859375 13.378906 L 0.621094 7.824219 C 0.578125 8.898438 0.5625 10.132812 0.5625 11.546875 L 0.5625 13.378906 Z M 19.238281 39.746094 L 14.753906 47.4375 L 23.726562 47.4375 Z M 29.492188 39.746094 L 25.007812 47.4375 L 33.980469 47.4375 Z M 2.59375 46.367188 L 0.992188 43.621094 C 1.285156 44.9375 1.777344 45.800781 2.59375 46.367188 Z "
     id="path13" />
  <g
     transform="translate(5.5780391e-8,0.46875)"
     id="g3044">
    <path
       inkscape:connector-curvature="0"
       id="path22"
       d="m 9.0750144,9.0125 c -0.5855362,0.062 -1.0781482,0.6113 -1.0749995,1.2 l 0,21.6 c 6.28e-5,0.6283 0.5716984,1.1999 1.1999995,1.2 l 10.7999956,0 0,2.025 7.999996,0 0,-2.025 10.799994,0 c 0.628302,-1e-4 1.199937,-0.5717 1.2,-1.2 l 0,-21.6 c -6.3e-5,-0.6283 -0.571698,-1.1999 -1.2,-1.2 l -29.5999856,0 z m 1.5874986,2.025 c 0.04985,-0.01 0.100148,-0.01 0.15,0 l 26.372298,0 c 0.418867,10e-5 0.799958,0.3811 0.799999,0.8 l 0,18.4125 c -4.1e-5,0.4189 -0.381132,0.7999 -0.799999,0.8 l -26.372298,0 c -0.418867,-10e-5 -0.799957,-0.3811 -0.799999,-0.8 l 0,-18.4125 c -0.0066,-0.3733 0.283278,-0.7304 0.649999,-0.8 z m 4.362499,24.9875 0,2.025 18.99999,0 0,-2.025 z"
       style="line-height:normal;color:#000000;fill:#ffffff" />
    <g
       transform="translate(2,-1004.3622)"
       id="g24"
       style="fill:#ffffff">
      <path
         d="m 14,1016.3622 0,12 1,0 0,-12 z"
         id="path26"
         inkscape:connector-curvature="0" />
      <path
         d="M 16,24.5 C 16,25.328427 15.328427,26 14.5,26 13.671573,26 13,25.328427 13,24.5 13,23.671573 13.671573,23 14.5,23 c 0.828427,0 1.5,0.671573 1.5,1.5 z"
         transform="translate(0,1004.3622)"
         id="path28"
         inkscape:connector-curvature="0" />
    </g>
    <g
       transform="matrix(-1,0,0,-1,36,1043.3622)"
       id="g30"
       style="fill:#ffffff">
      <path
         d="m 14,1013.3622 0,15 1,0 0,-15 z"
         id="path32"
         inkscape:connector-curvature="0" />
      <path
         d="m 16,24.5 a 1.5,1.5 0 1 1 -3,0 1.5,1.5 0 1 1 3,0 z"
         transform="translate(0,1004.3622)"
         id="path34"
         inkscape:connector-curvature="0" />
    </g>
    <g
       transform="translate(12,-1005.3622)"
       id="g36"
       style="fill:#ffffff">
      <path
         d="m 14,1017.3622 0,11 1,0 0,-11 z"
         id="path38"
         inkscape:connector-curvature="0" />
      <path
         d="m 16,24.5 a 1.5,1.5 0 1 1 -3,0 1.5,1.5 0 1 1 3,0 z"
         transform="translate(0,1004.3622)"
         id="path40"
         inkscape:connector-curvature="0" />
    </g>
    <g
       transform="matrix(-1,0,0,-1,46,1050.3622)"
       id="g42"
       style="fill:#ffffff">
      <path
         d="m 14,1020.3622 0,8 1,0 0,-8 z"
         id="path44"
         inkscape:connector-curvature="0" />
      <path
         d="m 16,24.5 a 1.5,1.5 0 1 1 -3,0 1.5,1.5 0 1 1 3,0 z"
         transform="translate(0,1004.3622)"
         id="path46"
         inkscape:connector-curvature="0" />
    </g>
  </g>
</svg>
