<?xml version="1.0" encoding="UTF-8" standalone="no"?>
<svg
   xmlns:dc="http://purl.org/dc/elements/1.1/"
   xmlns:cc="http://creativecommons.org/ns#"
   xmlns:rdf="http://www.w3.org/1999/02/22-rdf-syntax-ns#"
   xmlns:svg="http://www.w3.org/2000/svg"
   xmlns="http://www.w3.org/2000/svg"
   xmlns:sodipodi="http://sodipodi.sourceforge.net/DTD/sodipodi-0.dtd"
   xmlns:inkscape="http://www.inkscape.org/namespaces/inkscape"
   width="48"
   height="48"
   viewBox="0 0 48 48"
   id="svg2"
   version="1.1"
   inkscape:version="0.48.4 r9939"
   sodipodi:docname="polly (copie).svg">
  <metadata
     id="metadata25">
    <rdf:RDF>
      <cc:Work
         rdf:about="">
        <dc:format>image/svg+xml</dc:format>
        <dc:type
           rdf:resource="http://purl.org/dc/dcmitype/StillImage" />
      </cc:Work>
    </rdf:RDF>
  </metadata>
  <sodipodi:namedview
     pagecolor="#ffffff"
     bordercolor="#666666"
     borderopacity="1"
     objecttolerance="10"
     gridtolerance="10"
     guidetolerance="10"
     inkscape:pageopacity="0"
     inkscape:pageshadow="2"
     inkscape:window-width="1280"
     inkscape:window-height="1000"
     id="namedview23"
     showgrid="false"
     inkscape:zoom="4.5327932"
     inkscape:cx="22.838407"
     inkscape:cy="21.52586"
     inkscape:window-x="0"
     inkscape:window-y="24"
     inkscape:window-maximized="1"
     inkscape:current-layer="svg2" />
  <defs
     id="defs4">
    <radialGradient
       cx="148.004"
       cy="160"
       gradientTransform="matrix(.1831 0 0 .1831 -3.10029 -5.29688)"
       id="radial0"
       r="128"
       gradientUnits="userSpaceOnUse">
      <stop
         offset="0"
         style="stop-color:#c8f4a6"
         id="stop7" />
      <stop
         offset="1"
         style="stop-color:#3e6a1e"
         id="stop9" />
    </radialGradient>
  </defs>
  <path
     style="fill:url(#radial0)"
     d="M 47.4375 11.546875 L 47.4375 36.453125 C 47.4375 46.703125 47.4375 47.4375 36.453125 47.4375 L 11.550781 47.4375 C 0.5625 47.4375 0.5625 46.703125 0.5625 36.453125 L 0.5625 11.546875 C 0.5625 1.296875 0.5625 0.5625 11.550781 0.5625 L 36.453125 0.5625 C 47.4375 0.5625 47.4375 1.296875 47.4375 11.546875 Z "
     id="path11" />
  <path
     inkscape:connector-curvature="0"
     id="path15"
     d="m 38.265625,47.4375 c 2.542969,-0.01172 4.378906,-0.08203 5.710937,-0.441406 l -4.230468,-7.25 -4.484375,7.691406 1.191406,0 c 0.640625,0 1.242187,0 1.8125,0 z m 1.480469,-7.691406 -5.125,-8.789063 -5.128906,8.789063 z m 0,0 7.652344,0 c 0.03125,-0.972656 0.03906,-2.0625 0.03906,-3.296875 l 0,-1.097657 -2.5625,-4.394531 z m 5.128906,-8.789063 -5.128906,-8.789062 -5.125,8.789062 z m 0,0 2.5625,0 0,-4.394531 z m -10.253906,0 -5.128906,-8.789062 -5.125,8.789062 z m -10.253906,0 -5.128907,8.789063 10.253907,0 z m 0,0 -5.128907,-8.789062 -5.125,8.789062 z m -10.253907,0 -5.128906,8.789063 10.253906,0 z m 0,0 -5.128906,-8.789062 -5.125,8.789062 z m -10.253906,0 -3.296875,5.648438 c 0,1.167969 0.011719,2.210937 0.039062,3.140625 l 8.382813,0 z m 0,0 -3.296875,-5.648437 0,5.648437 z m 5.125,8.789063 -4.3125,7.394531 c 1.597656,0.292969 3.808594,0.296875 6.878906,0.296875 l 1.921875,0 z m 0,-17.578125 -5.125,-8.789063 -3.296875,5.648438 0,3.140625 z m 0,0 10.253906,0 -5.125,-8.789063 z m 5.128906,-8.789063 -5.128906,-8.789062 -5.125,8.789062 z m 0,0 10.253907,0 -5.128907,-8.789062 z m 5.125,-8.789062 -2.351562,-4.027344 -5.339844,0 c -0.07422,0 -0.136719,0 -0.210937,0 L 8.984375,4.589844 z m 0,0 10.253907,0 -2.351563,-4.027344 -5.550781,0 z m 10.253907,0 10.253906,0 L 37.394531,0.5625 c -0.3125,0 -0.609375,0 -0.945312,0 l -4.605469,0 z m 0,0 -5.125,8.789062 10.253906,0 z m 5.128906,8.789062 10.253906,0 -5.128906,-8.789062 z m 0,0 -5.128906,8.789063 10.253906,0 z m 5.125,8.789063 7.691406,0 0,-4.394531 -2.5625,-4.394532 z m 5.128906,-8.789063 2.5625,0 0,-1.832031 c 0,-0.914063 -0.0078,-1.75 -0.02344,-2.523437 z m -15.382812,8.789063 -5.125,-8.789063 -5.128907,8.789063 z m 10.253906,-17.578125 7.308594,0 C 46.5,1.832031 45.167969,0.960938 42.023438,0.6875 z m -30.761719,0 L 6.679688,0.636719 C 3.019531,0.84375 1.539062,1.632812 0.945312,4.589844 z m -5.125,8.789062 L 0.621094,7.824219 C 0.578125,8.898438 0.5625,10.132812 0.5625,11.546875 l 0,1.832031 z m 15.378906,26.367188 -4.484375,7.691406 8.972656,0 z m 10.253907,0 -4.484376,7.691406 8.972657,0 z M 2.59375,46.367188 0.992188,43.621094 c 0.292968,1.316406 0.785156,2.179687 1.601562,2.746094 z"
     style="fill:#ffffff;fill-opacity:0.05100002" />
  <path
     style="fill:#ffffff"
     d="M 12 8 L 12 26.65625 L 14.8125 26.65625 L 14.8125 40 L 33.1875 40 L 33.1875 26.65625 L 36 26.65625 L 36 8 L 30.34375 8 L 30.34375 14.65625 L 26.8125 14.65625 L 26.8125 8 L 21.1875 8 L 21.1875 14.65625 L 17.65625 14.65625 L 17.65625 8 L 12 8 z M 14 15.125 C 15.062184 15.935875 16.19292 16.562342 17.15625 17.5625 C 19.462629 20.140508 21.739071 22.720095 24 25.3125 C 26.260929 22.720095 28.537371 20.140508 30.84375 17.5625 C 31.80708 16.562342 32.937816 15.935875 34 15.125 C 33.289543 16.23036 32.726629 17.385746 31.875 18.4375 C 29.589607 21.13142 27.257714 23.763268 24.9375 26.40625 C 25.572639 27.135561 26.208515 27.863363 26.84375 28.59375 C 26.85722 28.59984 26.86147 28.6191 26.875 28.625 C 27.055426 28.70361 27.22353 28.74718 27.34375 28.78125 C 27.516314 29.180058 27.740894 29.538028 27.9375 29.8125 C 28.305574 29.731732 28.713384 29.783154 28.9375 29.59375 C 29.027975 29.661279 29.15164 29.79644 29.1875 29.875 C 29.014617 29.990376 28.49721 30.34058 28.46875 30.4375 C 28.440295 30.53442 28.625 30.59375 28.625 30.59375 C 28.63401 30.682283 28.6763 30.78045 28.71875 30.84375 C 29.483299 31.770448 30.225915 32.556912 31.125 33.46875 C 31.1831 33.54161 31.21182 33.5764 31.25 33.59375 C 31.25954 33.59805 31.27175 33.58565 31.28125 33.59375 C 31.29372 33.634091 31.277 33.67877 31.34375 33.75 C 31.66504 34.103024 31.993228 34.030473 32.5 34.59375 C 33.225183 35.430954 31.608356 36.710878 30.84375 35.90625 C 30.291481 35.304532 30.481246 34.961822 30.1875 34.625 C 30.12577 34.54758 30.07187 34.55234 30.03125 34.53125 L 30.03125 34.5 C 30.02147 34.46122 30.0328 34.44338 29.96875 34.375 C 29.203444 33.362205 28.496642 32.518046 27.6875 31.625 C 27.630182 31.572922 27.55951 31.49559 27.46875 31.46875 C 27.46875 31.46875 27.419916 31.3069 27.3125 31.3125 C 27.205085 31.318113 26.750841 31.710111 26.59375 31.84375 C 26.519066 31.794483 26.3954 31.65932 26.34375 31.5625 C 26.58145 31.402763 26.631686 31.060853 26.78125 30.75 C 26.535098 30.504555 26.219295 30.226455 25.8125 29.96875 C 25.80274 29.858855 25.7583 29.670076 25.71875 29.5 C 25.71355 29.49412 25.72395 29.47465 25.71875 29.46875 C 25.144989 28.816108 24.574197 28.153255 24 27.5 C 23.425803 28.153255 22.855011 28.816108 22.28125 29.46875 C 22.27605 29.47465 22.28645 29.4941 22.28125 29.5 C 22.2417 29.670076 22.1973 29.858855 22.1875 29.96875 C 21.780705 30.226455 21.464902 30.504555 21.21875 30.75 C 21.368314 31.060853 21.41855 31.402763 21.65625 31.5625 C 21.6046 31.65932 21.48093 31.79448 21.40625 31.84375 C 21.249159 31.710111 20.794915 31.3181 20.6875 31.3125 C 20.58008 31.3069 20.53125 31.46875 20.53125 31.46875 C 20.44049 31.49559 20.36982 31.57292 20.3125 31.625 C 19.503358 32.518046 18.796556 33.362205 18.03125 34.375 C 17.96715 34.44338 17.97855 34.46122 17.96875 34.5 L 17.96875 34.53125 C 17.92813 34.55234 17.87423 34.54758 17.8125 34.625 C 17.518754 34.961822 17.708519 35.304532 17.15625 35.90625 C 16.391644 36.710878 14.774817 35.430954 15.5 34.59375 C 16.006772 34.030473 16.33496 34.103024 16.65625 33.75 C 16.72295 33.67877 16.70628 33.63409 16.71875 33.59375 C 16.72825 33.58565 16.7405 33.59805 16.75 33.59375 C 16.78818 33.5764 16.8169 33.54161 16.875 33.46875 C 17.774085 32.556912 18.516701 31.770448 19.28125 30.84375 C 19.3237 30.78045 19.366 30.68228 19.375 30.59375 C 19.375 30.59375 19.55971 30.53442 19.53125 30.4375 C 19.50279 30.34058 18.985383 29.990376 18.8125 29.875 C 18.84836 29.79644 18.97202 29.66128 19.0625 29.59375 C 19.286616 29.78315 19.694426 29.73173 20.0625 29.8125 C 20.259106 29.538028 20.483686 29.180058 20.65625 28.78125 C 20.77647 28.74718 20.944574 28.70361 21.125 28.625 C 21.13853 28.6191 21.14278 28.59985 21.15625 28.59375 C 21.791485 27.863363 22.427361 27.135561 23.0625 26.40625 C 20.742286 23.763268 18.410393 21.13142 16.125 18.4375 C 15.273371 17.385746 14.710457 16.23036 14 15.125 z "
     id="rect20" />
</svg>
