<?xml version="1.0" encoding="UTF-8" standalone="no"?>
<svg
   xmlns:dc="http://purl.org/dc/elements/1.1/"
   xmlns:cc="http://creativecommons.org/ns#"
   xmlns:rdf="http://www.w3.org/1999/02/22-rdf-syntax-ns#"
   xmlns:svg="http://www.w3.org/2000/svg"
   xmlns="http://www.w3.org/2000/svg"
   xmlns:xlink="http://www.w3.org/1999/xlink"
   xmlns:sodipodi="http://sodipodi.sourceforge.net/DTD/sodipodi-0.dtd"
   xmlns:inkscape="http://www.inkscape.org/namespaces/inkscape"
   viewBox="0 0 48 48"
   id="svg2"
   version="1.1"
   inkscape:version="0.48.3.1 r9886"
   width="100%"
   height="100%"
   sodipodi:docname="nepomuk.svg">
  <metadata
     id="metadata24">
    <rdf:RDF>
      <cc:Work
         rdf:about="">
        <dc:format>image/svg+xml</dc:format>
        <dc:type
           rdf:resource="http://purl.org/dc/dcmitype/StillImage" />
      </cc:Work>
    </rdf:RDF>
  </metadata>
  <sodipodi:namedview
     pagecolor="#ffffff"
     bordercolor="#666666"
     borderopacity="1"
     objecttolerance="10"
     gridtolerance="10"
     guidetolerance="10"
     inkscape:pageopacity="0"
     inkscape:pageshadow="2"
     inkscape:window-width="1280"
     inkscape:window-height="1000"
     id="namedview22"
     showgrid="false"
     inkscape:zoom="5.9567308"
     inkscape:cx="47.728814"
     inkscape:cy="-2.1694915"
     inkscape:window-x="0"
     inkscape:window-y="24"
     inkscape:window-maximized="1"
     inkscape:current-layer="svg2" />
  <defs
     id="defs4">
    <linearGradient
       id="linearGradient3895-9-0-3-2-4-0">
      <stop
         offset="0"
         style="stop-color:#c4adda"
         id="stop7" />
      <stop
         offset="1"
         style="stop-color:#63388c"
         id="stop9" />
    </linearGradient>
    <radialGradient
       cx="148.004"
       cy="160"
       gradientTransform="matrix(0.97656,0,0,0.97656,-16.5349,-236.25)"
       r="128"
       id="radialGradient4432"
       xlink:href="#linearGradient3895-9-0-3-2-4-0"
       gradientUnits="userSpaceOnUse" />
    <radialGradient
       inkscape:collect="always"
       xlink:href="#linearGradient3895-9-0-3-2-4-0"
       id="radialGradient3005"
       gradientUnits="userSpaceOnUse"
       gradientTransform="matrix(0.97656,0,0,0.97656,-16.5349,-236.25)"
       cx="148.004"
       cy="160"
       r="128" />
    <radialGradient
       inkscape:collect="always"
       xlink:href="#linearGradient3895-9-0-3-2-4-0"
       id="radialGradient2996"
       gradientUnits="userSpaceOnUse"
       gradientTransform="matrix(0.97656,0,0,0.97656,-16.5349,-236.25)"
       cx="148.004"
       cy="160"
       r="128" />
  </defs>
  <g
     id="g2990"
     transform="matrix(0.1875,0,0,0.1875,-5e-4,39.000497)">
    <path
       style="color:#bebebe;fill:url(#radialGradient2996)"
       d="m 253,-146.40625 0,132.8125 C 253,41.09375 253,45 194.40625,45 L 61.59375,45 C 3,45 3,41.09375 3,-13.59375 l 0,-132.8125 C 3,-201.09375 3,-205 61.59375,-205 l 132.8125,0 C 253,-205 253,-201.09375 253,-146.40625 z"
       id="path14"
       inkscape:connector-curvature="0" />
    <path
       style="opacity:0.05;fill:#ffffff"
       d="m 204.08032,44.99366 c 13.55517,-0.064 23.34858,-0.43514 30.45654,-2.34978 l -22.55248,-38.66464 -23.92579,41.01442 6.34766,0 c 3.41797,0 6.64139,0.0143 9.67407,0 z m 7.90406,-41.01442 -27.34375,-46.87362 -27.34375,46.87362 54.6875,0 z m 0,0 40.802,0 C 252.95094,-1.20375 253,-7.02254 253,-13.59837 l 0,-5.8592 -13.67187,-23.43681 -27.34375,46.87362 z m 27.34375,-46.87362 -27.34375,-46.87362 -27.34375,46.87362 54.6875,0 z m 0,0 13.67187,0 0,-23.43681 -13.67187,23.43681 z m -54.6875,0 -27.34375,-46.87362 -27.34376,46.87362 54.68751,0 z m -54.68751,0 -27.34374,46.87362 54.6875,0 -27.34376,-46.87362 z m 0,0 -27.34374,-46.87362 -27.34375,46.87362 54.68749,0 z m -54.68749,0 -27.34375,46.87362 54.6875,0 -27.34375,-46.87362 z m 0,0 -27.34375,-46.87362 -27.34376,46.87362 54.68751,0 z m -54.68751,0 L 3,-12.77442 c 0.003,6.22608 0.0559,11.79835 0.21361,16.75366 l 44.70827,0 -27.34375,-46.87362 z m 0,0 L 3,-73.01435 l 0,30.11997 17.57813,0 z M 47.92188,3.97924 24.91161,43.40679 c 8.52703,1.57164 20.31178,1.58687 36.68214,1.58687 l 10.2539,0 L 47.92188,3.97924 z m 0,-93.74724 L 20.57813,-136.64161 3,-106.52166 3,-89.768 l 44.92188,0 z m 0,0 54.6875,0 -27.34375,-46.87361 -27.34375,46.87361 z m 27.34375,-46.87361 -27.34375,-46.87364 -27.34376,46.87364 54.68751,0 z m 0,0 54.68749,0 -27.34374,-46.87364 -27.34375,46.87364 z m 27.34375,-46.87364 -12.54273,-21.48374 -28.4729,0 c -0.39895,0 -0.7356,-1e-5 -1.12916,0 l -12.54271,21.48374 54.6875,0 z m 0,0 54.6875,0 -12.54273,-21.48374 -29.60205,0 -12.54272,21.48374 z m 54.6875,0 54.6875,0 -12.54273,-21.48374 c -1.67321,-0.002 -3.25633,0 -5.0354,0 l -24.56665,0 -12.54272,21.48374 z m 0,0 -27.34376,46.87364 54.68751,0 -27.34375,-46.87364 z m 27.34375,46.87364 54.6875,0 -27.34375,-46.87364 -27.34375,46.87364 z m 0,0 -27.34375,46.87361 54.6875,0 -27.34375,-46.87361 z m 27.34375,46.87361 41.01562,0 0,-23.43681 -13.67187,-23.4368 -27.34375,46.87361 z m 27.34375,-46.87361 13.67187,0 0,-9.76535 c 0,-4.89463 -0.0402,-9.34683 -0.12207,-13.45786 l -13.5498,23.22321 z m -82.03125,46.87361 -27.34376,-46.87361 -27.34374,46.87361 54.6875,0 z m 54.6875,-93.74725 38.97094,0 c -2.94957,-14.71522 -10.05142,-19.35598 -26.82494,-20.81237 l -12.146,20.81237 z m -164.0625,0 -12.2986,-21.08702 c -19.50933,1.10943 -27.41641,5.311 -30.57861,21.08702 l 42.87721,0 z M 20.57813,-136.64161 3.30517,-166.27332 C 3.07456,-160.53933 3,-153.96515 3,-146.40696 l 0,9.76535 17.57813,0 z m 82.03125,140.62085 -23.92579,41.01442 47.85157,0 -23.92578,-41.01442 z m 54.6875,0 -23.92579,41.01442 47.85157,0 L 157.29688,3.97924 z M 13.83374,39.28704 5.28882,24.63904 c 1.57234,7.02888 4.1916,11.64072 8.54492,14.648 z"
       id="path16"
       inkscape:connector-curvature="0" />
    <path
       style="fill:none"
       d="m 131.32972,-111.12346 c 1.38269,-0.77715 2.98074,-1.21981 4.68599,-1.21981 l 0,0 0,0 14.05379,0 c 5.28844,0 9.54592,4.2575 9.54592,9.5459 l 0,16.0868 c 0,5.2884 -4.25748,9.5459 -9.54592,9.5459 l -14.05379,0 c -1.70525,0 -3.3033,-0.44266 -4.68599,-1.21981"
       id="path18"
       inkscape:connector-curvature="0" />
    <path
       inkscape:connector-curvature="0"
       id="path20"
       d="m 107.59375,-179.96872 a 35.710843,35.711447 0 0 0 -36.718754,35.6875 35.710843,35.711447 0 0 0 43.093754,34.9375 l 16.46875,36.75 a 49.995656,49.996026 0 0 0 -21.65625,28.03125 l -24.156254,-1.25 a 24.99783,24.99664 0 0 0 -23.75,-19.875 24.99783,24.99664 0 0 0 -25.71875,24.96875 25,24.99881 0 0 0 49.03125,6.78125 l 22.562504,0.5625 a 49.995656,49.996026 0 0 0 -0.1875,3.375 50.000003,50.000373 0 0 0 100,0 49.995656,49.996026 0 0 0 -26.21875,-43.90625 l 18,-34.6875 a 21.42603,21.426868 0 0 0 22.5,-21.40625 21.42603,21.426868 0 0 0 -20.8125,-21.40625 21.42603,21.426868 0 0 0 -22.03125,21.40625 21.42603,21.426868 0 0 0 9.28125,17.625 L 170.125,-78.09372 a 49.995656,49.996026 0 0 0 -21.5,-1.25 l -19.90625,-36.90625 a 35.710843,35.711447 0 0 0 13.5625,-28.03125 35.710843,35.711447 0 0 0 -34.6875,-35.6875 z m -0.40625,14.28125 a 21.42603,21.426868 0 0 1 20.8125,21.40625 21.42603,21.426868 0 1 1 -42.843754,0 21.42603,21.426868 0 0 1 22.031254,-21.40625 z m 92.53125,24.96875 a 10.713015,10.712059 0 0 1 10.40625,10.71875 10.713015,10.712059 0 0 1 -21.40625,0 10.713015,10.712059 0 0 1 9.9375,-10.6875 10.713015,10.712059 0 0 1 1.0625,-0.0312 z m -42.15625,75 a 35.710843,35.711447 0 0 1 0.0312,0 35.710843,35.711447 0 0 1 34.6875,35.71875 35.71875,35.719354 0 0 1 -71.4375,0 35.710843,35.711447 0 0 1 36.71875,-35.71875 z m -97.000004,10.71875 a 14.284813,14.284579 0 0 1 13.875,14.28125 14.284813,14.284579 0 1 1 -28.5625,0 14.284813,14.284579 0 0 1 14.6875,-14.28125 z"
       style="fill:#ffffff" />
  </g>
</svg>
