<?xml version="1.0" encoding="UTF-8" standalone="no"?>
<svg
   xmlns:dc="http://purl.org/dc/elements/1.1/"
   xmlns:cc="http://creativecommons.org/ns#"
   xmlns:rdf="http://www.w3.org/1999/02/22-rdf-syntax-ns#"
   xmlns:svg="http://www.w3.org/2000/svg"
   xmlns="http://www.w3.org/2000/svg"
   xmlns:sodipodi="http://sodipodi.sourceforge.net/DTD/sodipodi-0.dtd"
   xmlns:inkscape="http://www.inkscape.org/namespaces/inkscape"
   width="48"
   height="48"
   viewBox="0 0 48 48"
   id="svg2"
   version="1.1"
   inkscape:version="0.48.4 r9939"
   sodipodi:docname="gtk-info (copie).svg">
  <metadata
     id="metadata23">
    <rdf:RDF>
      <cc:Work
         rdf:about="">
        <dc:format>image/svg+xml</dc:format>
        <dc:type
           rdf:resource="http://purl.org/dc/dcmitype/StillImage" />
      </cc:Work>
    </rdf:RDF>
  </metadata>
  <sodipodi:namedview
     pagecolor="#ffffff"
     bordercolor="#666666"
     borderopacity="1"
     objecttolerance="10"
     gridtolerance="10"
     guidetolerance="10"
     inkscape:pageopacity="0"
     inkscape:pageshadow="2"
     inkscape:window-width="663"
     inkscape:window-height="480"
     id="namedview21"
     showgrid="false"
     inkscape:zoom="4.9166667"
     inkscape:cx="22.779661"
     inkscape:cy="22.996324"
     inkscape:window-x="10"
     inkscape:window-y="34"
     inkscape:window-maximized="0"
     inkscape:current-layer="svg2" />
  <defs
     id="defs4">
    <radialGradient
       cx="148.004"
       cy="160"
       gradientTransform="matrix(.1831 0 0 .1831 -3.10029 -5.29688)"
       id="radial0"
       r="128"
       gradientUnits="userSpaceOnUse">
      <stop
         offset="0"
         style="stop-color:#c8effa"
         id="stop7" />
      <stop
         offset="1"
         style="stop-color:#3b80c5"
         id="stop9" />
    </radialGradient>
  </defs>
  <path
     style="fill:url(#radial0)"
     d="M 47.4375 11.550781 L 47.4375 36.453125 C 47.4375 46.703125 47.4375 47.4375 36.453125 47.4375 L 11.546875 47.4375 C 0.5625 47.4375 0.5625 46.703125 0.5625 36.453125 L 0.5625 11.550781 C 0.5625 1.296875 0.5625 0.5625 11.550781 0.5625 L 36.453125 0.5625 C 47.4375 0.5625 47.4375 1.296875 47.4375 11.550781 Z "
     id="path11" />
  <path
     inkscape:connector-curvature="0"
     id="path15"
     d="m 38.265625,47.4375 c 2.542969,-0.01172 4.378906,-0.08203 5.710937,-0.441406 l -4.230468,-7.25 -4.484375,7.691406 1.191406,0 c 0.640625,0 1.242187,0 1.8125,0 z m 1.480469,-7.691406 -5.125,-8.789063 -5.128906,8.789063 z m 0,0 7.652344,0 c 0.03125,-0.972656 0.03906,-2.0625 0.03906,-3.296875 l 0,-1.097657 -2.5625,-4.394531 z m 5.128906,-8.789063 -5.128906,-8.789062 -5.125,8.789062 z m 0,0 2.5625,0 0,-4.394531 z m -10.253906,0 -5.128906,-8.789062 -5.125,8.789062 z m -10.253906,0 -5.128907,8.789063 10.253907,0 z m 0,0 -5.128907,-8.789062 -5.125,8.789062 z m -10.253907,0 -5.128906,8.789063 10.253906,0 z m 0,0 -5.128906,-8.789062 -5.125,8.789062 z m -10.253906,0 -3.296875,5.648438 c 0,1.167969 0.011719,2.210937 0.039062,3.140625 l 8.382813,0 z m 0,0 -3.296875,-5.648437 0,5.648437 z m 5.125,8.789063 -4.3125,7.394531 c 1.597656,0.292969 3.808594,0.296875 6.878906,0.296875 l 1.921875,0 z m 0,-17.578125 -5.125,-8.789063 -3.296875,5.648438 0,3.140625 z m 0,0 10.253906,0 -5.125,-8.789063 z m 5.128906,-8.789063 -5.128906,-8.789062 -5.125,8.789062 z m 0,0 10.253907,0 -5.128907,-8.789062 z m 5.125,-8.789062 -2.351562,-4.027344 -5.335938,0 c -0.07813,0 -0.140625,0 -0.214843,0 L 8.984375,4.589844 z m 0,0 10.253907,0 -2.351563,-4.027344 -5.550781,0 z m 10.253907,0 10.253906,0 L 37.394531,0.5625 c -0.3125,0 -0.609375,0 -0.945312,0 l -4.605469,0 z m 0,0 -5.125,8.789062 10.253906,0 z m 5.128906,8.789062 10.253906,0 -5.128906,-8.789062 z m 0,0 -5.128906,8.789063 10.253906,0 z m 5.125,8.789063 7.691406,0 0,-4.394531 -2.5625,-4.394532 z m 5.128906,-8.789063 2.5625,0 0,-1.832031 c 0,-0.914063 -0.0078,-1.75 -0.02344,-2.523437 z m -15.382812,8.789063 -5.125,-8.789063 -5.128907,8.789063 z m 10.253906,-17.578125 7.308594,0 C 46.5,1.832031 45.167969,0.960938 42.023438,0.6875 z m -30.761719,0 L 6.679688,0.636719 C 3.019531,0.84375 1.539062,1.632812 0.945312,4.589844 z m -5.125,8.789062 L 0.621094,7.824219 C 0.578125,8.898438 0.5625,10.132812 0.5625,11.546875 l 0,1.832031 z m 15.378906,26.367188 -4.484375,7.691406 8.972656,0 z m 10.253907,0 -4.484376,7.691406 8.972657,0 z M 2.59375,46.367188 0.992188,43.621094 c 0.292968,1.316406 0.785156,2.179687 1.601562,2.746094 z"
     style="fill:#ffffff;fill-opacity:0.05100002" />
  <g
     transform="translate(1e-4,0.0047193)"
     id="g3019">
    <g
       id="g18"
       transform="matrix(0.93807,0,0,0.93807,4.30043,-940.73318)">
      <path
         inkscape:connector-curvature="0"
         id="path20"
         transform="translate(0,1004.3622)"
         d="m 18,7 c -1,2 -1,7 -6,17 -4.2426407,8.485281 -4,18 -1,17 3,-1 7,-5 10,-5 3,0 8,6 10,5 C 33,40 33,28 30,22 27,16 19,7 18,7 z m 3,9 c 1.5,0 3,2.25 4.125,2.5 C 26.25,18.75 27,19 27,19 c 0,0 4,7 4,15 0,6.082763 0,5 -4,3 -4,-2 -6,-5 -11,-1 -5,4 -5,3 -5,-1 0,-4 2.625,-10 3.625,-12 1,-2 1.375,-4 1.375,-4 0,0 0.5,-0.25 1.375,-0.5 C 18.25,18.25 19.5,16 21,16 z"
         style="fill:#ffffff" />
    </g>
    <g
       id="g22"
       style="fill:none;stroke:#ffffff">
      <g
         id="g24"
         transform="matrix(0.93807,0,0,0.93807,4.30043,-940.73318)">
        <path
           inkscape:connector-curvature="0"
           id="path26"
           transform="translate(0,1002.8622)"
           d="m 25,21.5 c 0,1.932997 -1.790861,3.5 -4,3.5 -2.209139,0 -4,-1.567003 -4,-3.5 0,-1.932997 1.790861,-3.5 4,-3.5 2.209139,0 4,1.567003 4,3.5 z"
           style="stroke-width:1.06599998" />
      </g>
      <g
         id="g28"
         transform="matrix(0.93807,0,0,0.93807,4.30043,-940.73318)"
         style="stroke-width:2.13199997">
        <path
           inkscape:connector-curvature="0"
           id="path30"
           transform="translate(0,1004.3622)"
           d="m 29,21 c 0,0 3,0 5,3 2,3 0,2 0,2" />
        <path
           inkscape:connector-curvature="0"
           id="path32"
           transform="translate(0,1004.3622)"
           d="m 14,22 c 0,0 -5,1 -6,4 -1,3 -1,3 -1,3" />
      </g>
    </g>
    <g
       id="g34"
       transform="matrix(0.93807,0,0,0.93807,4.30043,-940.73318)"
       style="fill:#ffffff">
      <path
         inkscape:connector-curvature="0"
         id="path36"
         transform="translate(0,1004.3622)"
         d="m 9,30 c 0,1.104569 -0.8954305,2 -2,2 -1.1045695,0 -2,-0.895431 -2,-2 0,-1.104569 0.8954305,-2 2,-2 1.1045695,0 2,0.895431 2,2 z" />
      <path
         inkscape:connector-curvature="0"
         id="path38"
         transform="translate(28,1001.3622)"
         d="m 9,30 c 0,1.104569 -0.8954305,2 -2,2 -1.1045695,0 -2,-0.895431 -2,-2 0,-1.104569 0.8954305,-2 2,-2 1.1045695,0 2,0.895431 2,2 z" />
    </g>
  </g>
</svg>
