<?xml version="1.0" encoding="UTF-8" standalone="no"?>
<svg
   xmlns:dc="http://purl.org/dc/elements/1.1/"
   xmlns:cc="http://creativecommons.org/ns#"
   xmlns:rdf="http://www.w3.org/1999/02/22-rdf-syntax-ns#"
   xmlns:svg="http://www.w3.org/2000/svg"
   xmlns="http://www.w3.org/2000/svg"
   xmlns:sodipodi="http://sodipodi.sourceforge.net/DTD/sodipodi-0.dtd"
   xmlns:inkscape="http://www.inkscape.org/namespaces/inkscape"
   width="48"
   height="48"
   viewBox="0 0 48 48"
   id="svg2"
   version="1.1"
   inkscape:version="0.48.4 r9939"
   sodipodi:docname="qt (copie).svg">
  <metadata
     id="metadata21">
    <rdf:RDF>
      <cc:Work
         rdf:about="">
        <dc:format>image/svg+xml</dc:format>
        <dc:type
           rdf:resource="http://purl.org/dc/dcmitype/StillImage" />
      </cc:Work>
    </rdf:RDF>
  </metadata>
  <sodipodi:namedview
     pagecolor="#ffffff"
     bordercolor="#666666"
     borderopacity="1"
     objecttolerance="10"
     gridtolerance="10"
     guidetolerance="10"
     inkscape:pageopacity="0"
     inkscape:pageshadow="2"
     inkscape:window-width="1280"
     inkscape:window-height="1000"
     id="namedview19"
     showgrid="false"
     inkscape:zoom="4.9166667"
     inkscape:cx="20.847458"
     inkscape:cy="23.59322"
     inkscape:window-x="0"
     inkscape:window-y="24"
     inkscape:window-maximized="1"
     inkscape:current-layer="svg2" />
  <defs
     id="defs4">
    <radialGradient
       cx="148.004"
       cy="160"
       gradientTransform="matrix(.1831 0 0 .1831 -3.10029 -5.29688)"
       id="radial0"
       r="128"
       gradientUnits="userSpaceOnUse">
      <stop
         offset="0"
         style="stop-color:#b9e5c7"
         id="stop7" />
      <stop
         offset="1"
         style="stop-color:#028e2e"
         id="stop9" />
    </radialGradient>
  </defs>
  <path
     style="fill:#ffffff"
     inkscape:connector-curvature="0"
     id="path17"
     d="m 13.980469,5.25 c -5.3671879,0 -5.3554689,3.40625 -5.3554689,3.40625 l 0,31.675781 L 11.082031,42.75 c 0,0 21.464844,-2.90625 24.878907,-3.882812 C 39.378906,37.894531 39.375,34.949219 39.375,34.949219 l 0,-25.816407 c 0,0 -23.441406,-3.882812 -25.394531,-3.882812 z m 6.753906,6.042969 c 6.9375,0 6.933594,7.984375 6.933594,7.984375 l 0,7.980468 c 0,0 -0.01172,2.6875 -1.613281,4.285157 -1.601563,1.597656 -3.191407,2.125 -3.191407,2.125 0,0 -0.0039,1.078125 1.0625,1.609375 1.066407,0.535156 1.617188,0.515625 1.617188,0.515625 l 0,2.121093 c 0,0 -0.566407,0.550782 -2.167969,0.550782 -1.601562,0 -3.171875,-1.074219 -3.703125,-2.671875 -0.535156,-1.597657 -0.550781,-2.125 -0.550781,-2.125 0,0 -1.308594,0.273437 -3.195313,-1.613281 -1.066406,-1.0625 -2.164062,-3.199219 -2.164062,-4.796876 l 0,-8.496093 c 0,0 0.03516,-7.46875 6.972656,-7.46875 z m 10.566406,1.097656 1.617188,0 0,4.25 2.640625,0 0,2.121094 -2.640625,0 0,10.144531 c 0,0 0.507812,1.0625 1.578125,1.0625 0.800781,0 1.011718,-0.324219 1.0625,-0.476562 l 0,2.050781 c 0,0 -0.523438,1.0625 -3.191406,1.0625 -2.667969,0 -2.679688,-2.636719 -2.679688,-2.636719 l 0,-11.207031 -1.0625,0 0,-2.121094 1.0625,0 z M 21.0625,13.964844 c -2.667969,0 -2.675781,3.1875 -2.675781,3.1875 l 0,10.105468 c 0,0 0.0078,3.738282 2.675781,3.738282 2.671875,0 2.679688,-3.738282 2.679688,-3.738282 l 0,-10.65625 c 0,0 -0.0078,-2.636718 -2.679688,-2.636718 z" />
  <path
     style="fill:url(#radial0)"
     d="M 47.4375 11.546875 L 47.4375 36.453125 C 47.4375 46.703125 47.4375 47.4375 36.453125 47.4375 L 11.550781 47.4375 C 0.5625 47.4375 0.5625 46.703125 0.5625 36.453125 L 0.5625 11.546875 C 0.5625 1.296875 0.5625 0.5625 11.550781 0.5625 L 36.453125 0.5625 C 47.4375 0.5625 47.4375 1.296875 47.4375 11.546875 Z "
     id="path11" />
  <path
     inkscape:connector-curvature="0"
     id="path15"
     d="m 38.265625,47.4375 c 2.542969,-0.01172 4.378906,-0.08203 5.710937,-0.441406 l -4.230468,-7.25 -4.484375,7.691406 1.191406,0 c 0.640625,0 1.242187,0 1.8125,0 z m 1.480469,-7.691406 -5.125,-8.789063 -5.128906,8.789063 z m 0,0 7.652344,0 c 0.03125,-0.972656 0.03906,-2.0625 0.03906,-3.296875 l 0,-1.097657 -2.5625,-4.394531 z m 5.128906,-8.789063 -5.128906,-8.789062 -5.125,8.789062 z m 0,0 2.5625,0 0,-4.394531 z m -10.253906,0 -5.128906,-8.789062 -5.125,8.789062 z m -10.253906,0 -5.128907,8.789063 10.253907,0 z m 0,0 -5.128907,-8.789062 -5.125,8.789062 z m -10.253907,0 -5.128906,8.789063 10.253906,0 z m 0,0 -5.128906,-8.789062 -5.125,8.789062 z m -10.253906,0 -3.296875,5.648438 c 0,1.167969 0.011719,2.210937 0.039062,3.140625 l 8.382813,0 z m 0,0 -3.296875,-5.648437 0,5.648437 z m 5.125,8.789063 -4.3125,7.394531 c 1.597656,0.292969 3.808594,0.296875 6.875,0.296875 l 1.925781,0 z m 0,-17.578125 -5.125,-8.789063 -3.296875,5.648438 0,3.140625 z m 0,0 10.253906,0 -5.125,-8.789063 z m 5.128906,-8.789063 -5.128906,-8.789062 -5.125,8.789062 z m 0,0 10.253907,0 -5.128907,-8.789062 z m 5.125,-8.789062 -2.351562,-4.027344 -5.339844,0 c -0.07422,0 -0.136719,0 -0.210937,0 L 8.984375,4.589844 z m 0,0 10.253907,0 -2.351563,-4.027344 -5.550781,0 z m 10.253907,0 10.253906,0 L 37.394531,0.5625 c -0.3125,0 -0.609375,0 -0.941406,0 l -4.609375,0 z m 0,0 -5.125,8.789062 10.253906,0 z m 5.128906,8.789062 10.253906,0 -5.128906,-8.789062 z m 0,0 -5.128906,8.789063 10.253906,0 z m 5.125,8.789063 7.691406,0 0,-4.394531 -2.5625,-4.394532 z m 5.128906,-8.789063 2.5625,0 0,-1.832031 c 0,-0.914063 -0.0078,-1.75 -0.02344,-2.523437 z m -15.382812,8.789063 -5.125,-8.789063 -5.128907,8.789063 z m 10.253906,-17.578125 7.308594,0 C 46.5,1.832031 45.167969,0.960938 42.023438,0.6875 z m -30.761719,0 L 6.679688,0.636719 C 3.019531,0.84375 1.539062,1.632812 0.945312,4.589844 z m -5.125,8.789062 L 0.621094,7.824219 C 0.578125,8.898438 0.5625,10.132812 0.5625,11.546875 l 0,1.832031 z m 15.378906,26.367188 -4.484375,7.691406 8.972656,0 z m 10.253907,0 -4.484376,7.691406 8.972657,0 z M 2.59375,46.367188 0.992188,43.621094 c 0.292968,1.316406 0.785156,2.179687 1.601562,2.746094 z"
     style="fill:#ffffff;fill-opacity:0.05100002" />
  <path
     style="fill:#ffffff"
     inkscape:connector-curvature="0"
     id="path20"
     d="m 22,8 0,3.15625 C 19.899383,11.47975 17.954551,12.2976 16.3125,13.5 l -2.21875,-2.21875 -2.8125,2.8125 L 13.5,16.3125 C 12.297555,17.9546 11.479801,19.8994 11.15625,22 l -3.1562501,0 0,4 3.1562501,0 c 0.323551,2.1006 1.141305,4.0454 2.34375,5.6875 l -2.21875,2.21875 2.8125,2.8125 L 16.3125,34.5 c 1.642051,1.2024 3.586883,2.02015 5.6875,2.34375 L 22,40 l 4,0 0,-3.15625 C 28.100617,36.52015 30.045449,35.7024 31.6875,34.5 l 2.21875,2.21875 2.8125,-2.8125 L 34.5,31.6875 C 35.702445,30.0454 36.520199,28.1006 36.84375,26 L 40,26 40,22 36.84375,22 C 36.520199,19.8994 35.702445,17.9546 34.5,16.3125 l 2.21875,-2.21875 -2.8125,-2.8125 L 31.6875,13.5 C 30.045449,12.2976 28.100617,11.47975 26,11.15625 L 26,8 22,8 z m -1,4.875 c 5.909212,0 5.90625,6.8125 5.90625,6.8125 l 0,6.8125 c 0,0 -0.01134,2.29255 -1.375,3.65625 -1.363665,1.3636 -2.71875,1.8125 -2.71875,1.8125 0,0 -0.0029,0.9204 0.90625,1.375 0.909109,0.4545 1.375,0.4375 1.375,0.4375 l 0,1.8125 c 0,0 -0.480086,0.46875 -1.84375,0.46875 -1.363665,0 -2.701695,-0.91755 -3.15625,-2.28125 -0.454554,-1.3636 -0.46875,-1.8125 -0.46875,-1.8125 0,0 -1.111656,0.2321 -2.71875,-1.375 C 15.997141,29.68465 15.0625,27.8637 15.0625,26.5 l 0,-7.25 c 0,0 0.02829,-6.375 5.9375,-6.375 z m 9,0.9375 1.375,0 0,3.625 2.25,0 0,1.8125 -2.25,0 0,8.65625 c 0,0 0.434641,0.90625 1.34375,0.90625 0.681832,0 0.863635,-0.27835 0.90625,-0.40625 l 0,1.75 c 0,0 -0.445976,0.90625 -2.71875,0.90625 -2.272774,0 -2.28125,-2.25 -2.28125,-2.25 l 0,-9.5625 -0.90625,0 0,-1.8125 0.90625,0 1.375,-3.625 z m -8.71875,1.34375 C 19.008476,15.15625 19,17.875 19,17.875 l 0,8.625 c 0,0 0.0085,3.1875 2.28125,3.1875 2.272773,0 2.28125,-3.1875 2.28125,-3.1875 l 0,-9.09375 c 0,0 -0.0085,-2.25 -2.28125,-2.25 z" />
</svg>
