<?xml version="1.0" encoding="UTF-8" standalone="no"?>
<svg
   xmlns:dc="http://purl.org/dc/elements/1.1/"
   xmlns:cc="http://creativecommons.org/ns#"
   xmlns:rdf="http://www.w3.org/1999/02/22-rdf-syntax-ns#"
   xmlns:svg="http://www.w3.org/2000/svg"
   xmlns="http://www.w3.org/2000/svg"
   xmlns:xlink="http://www.w3.org/1999/xlink"
   xmlns:sodipodi="http://sodipodi.sourceforge.net/DTD/sodipodi-0.dtd"
   xmlns:inkscape="http://www.inkscape.org/namespaces/inkscape"
   viewBox="0 0 48 48"
   id="svg2"
   version="1.1"
   inkscape:version="0.48.3.1 r9886"
   width="100%"
   height="100%"
   sodipodi:docname="sigil.svg">
  <metadata
     id="metadata26">
    <rdf:RDF>
      <cc:Work
         rdf:about="">
        <dc:format>image/svg+xml</dc:format>
        <dc:type
           rdf:resource="http://purl.org/dc/dcmitype/StillImage" />
      </cc:Work>
    </rdf:RDF>
  </metadata>
  <sodipodi:namedview
     pagecolor="#ffffff"
     bordercolor="#666666"
     borderopacity="1"
     objecttolerance="10"
     gridtolerance="10"
     guidetolerance="10"
     inkscape:pageopacity="0"
     inkscape:pageshadow="2"
     inkscape:window-width="1280"
     inkscape:window-height="1000"
     id="namedview24"
     showgrid="false"
     inkscape:zoom="0.921875"
     inkscape:cx="113.35593"
     inkscape:cy="123.66102"
     inkscape:window-x="0"
     inkscape:window-y="24"
     inkscape:window-maximized="1"
     inkscape:current-layer="svg2" />
  <defs
     id="defs4">
    <linearGradient
       id="linearGradient3895-9-0-3-2-4-0">
      <stop
         offset="0"
         style="stop-color:#f18795"
         id="stop7" />
      <stop
         offset="1"
         style="stop-color:#772933"
         id="stop9" />
    </linearGradient>
    <radialGradient
       cx="148.004"
       cy="160"
       gradientTransform="matrix(0.97656,0,0,0.97656,-16.5349,-236.25)"
       r="128"
       id="radialGradient4432"
       xlink:href="#linearGradient3895-9-0-3-2-4-0"
       gradientUnits="userSpaceOnUse" />
    <radialGradient
       inkscape:collect="always"
       xlink:href="#linearGradient3895-9-0-3-2-4-0"
       id="radialGradient2995"
       gradientUnits="userSpaceOnUse"
       gradientTransform="matrix(0.97656,0,0,0.97656,-16.5349,-236.25)"
       cx="148.004"
       cy="160"
       r="128" />
  </defs>
  <g
     id="g2989"
     transform="matrix(0.1875,0,0,0.1875,-5e-4,39.0005)">
    <g
       id="g12">
      <path
         inkscape:connector-curvature="0"
         id="path14"
         d="m 253,-146.40625 0,132.8125 C 253,41.09375 253,45 194.40625,45 L 61.59375,45 C 3,45 3,41.09375 3,-13.59375 l 0,-132.8125 C 3,-201.09375 3,-205 61.59375,-205 l 132.8125,0 C 253,-205 253,-201.09375 253,-146.40625 z"
         style="color:#bebebe;fill:url(#radialGradient2995)" />
      <path
         inkscape:connector-curvature="0"
         id="path16"
         d="m 204.08032,44.993662 c 13.55517,-0.06396 23.34858,-0.435144 30.45654,-2.349786 l -22.55248,-38.664633 -23.92579,41.014419 6.34766,0 c 3.41797,0 6.64139,0.01426 9.67407,0 z m 7.90406,-41.01442 -27.34375,-46.873624 -27.34375,46.873624 54.6875,0 z m 0,0 40.802,0 C 252.95094,-1.20375 253,-7.022538 253,-13.598368 l 0,-5.859203 -13.67187,-23.436811 -27.34375,46.873624 z m 27.34375,-46.873624 -27.34375,-46.873621 -27.34375,46.873621 54.6875,0 z m 0,0 13.67187,0 0,-23.43681 -13.67187,23.43681 z m -54.6875,0 -27.34375,-46.873621 -27.34376,46.873621 54.68751,0 z m -54.68751,0 -27.34374,46.873624 54.6875,0 -27.34376,-46.873624 z m 0,0 -27.34374,-46.873621 -27.34375,46.873621 54.68749,0 z m -54.68749,0 -27.34375,46.873624 54.6875,0 -27.34375,-46.873624 z m 0,0 -27.34375,-46.873621 -27.343755,46.873621 54.687505,0 z m -54.687505,0 L 3,-12.774415 c 0.0034,6.226079 0.05591,11.79834402 0.213614,16.753658 l 44.708266,0 -27.343755,-46.873625 z m 0,0 L 3,-73.014348 l 0,30.119966 17.578125,0 z M 47.92188,3.979243 24.911614,43.406793 c 8.527026,1.571634 20.311776,1.586869 36.682136,1.586869 l 10.2539,0 L 47.92188,3.979243 z m 0,-93.747246 L 20.578125,-136.64161 3,-106.52166 l 0,16.753657 44.92188,0 z m 0,0 54.6875,0 -27.34375,-46.873607 -27.34375,46.873607 z m 27.34375,-46.873607 -27.34375,-46.87364 -27.343755,46.87364 54.687505,0 z m 0,0 54.68749,0 -27.34374,-46.87364 -27.34375,46.87364 z m 27.34375,-46.87364 -12.54273,-21.48374 -28.4729,0 c -0.39895,0 -0.7356,-1e-5 -1.12916,0 l -12.54271,21.48374 54.6875,0 z m 0,0 54.6875,0 -12.54273,-21.48374 -29.60205,0 -12.54272,21.48374 z m 54.6875,0 54.6875,0 -12.54273,-21.48374 c -1.67321,-0.002 -3.25633,0 -5.0354,0 l -24.56665,0 -12.54272,21.48374 z m 0,0 -27.34376,46.87364 54.68751,0 -27.34375,-46.87364 z m 27.34375,46.87364 54.6875,0 -27.34375,-46.87364 -27.34375,46.87364 z m 0,0 -27.34375,46.873607 54.6875,0 -27.34375,-46.873607 z m 27.34375,46.873607 41.01562,0 0,-23.436807 -13.67187,-23.4368 -27.34375,46.873607 z m 27.34375,-46.873607 13.67187,0 0,-9.76535 c 0,-4.89463 -0.0402,-9.34683 -0.12207,-13.45786 l -13.5498,23.22321 z m -82.03125,46.873607 -27.34376,-46.873607 -27.34374,46.873607 54.6875,0 z m 54.6875,-93.747247 38.97094,0 c -2.94957,-14.71522 -10.05142,-19.35598 -26.82494,-20.81237 l -12.146,20.81237 z m -164.0625,0 -12.2986,-21.08702 c -19.509325,1.10943 -27.416405,5.311 -30.57861,21.08702 l 42.87721,0 z M 20.578125,-136.64161 3.30517,-166.27332 C 3.074557,-160.53933 3,-153.96515 3,-146.40696 l 0,9.76535 17.578125,0 z M 102.60938,3.979243 78.68359,44.993662 l 47.85157,0 -23.92578,-41.01442 z m 54.6875,0 -23.92579,41.014419 47.85157,0 L 157.29688,3.979243 z M 13.833739,39.287042 5.288818,24.639036 c 1.572341,7.028886 4.191602,11.640722 8.544921,14.648006 z"
         style="opacity:0.05;fill:#ffffff" />
    </g>
    <path
       id="path18"
       d="m 79.290869,-161.20091 c 13.07615,-14.72146 38.948991,-21.31408 58.228531,-17.92816 12.24907,2.00585 15.82284,2.31862 26.634,9.94016 6.83515,-2.99423 13.32384,-3.63423 20.52554,-4.02969 -1.731,14.62077 -1.01931,13.30638 1.49184,21.49584 1.98962,6.48777 2.74746,13.5397 -0.19769,20.30354 -2.15715,5.14062 -3.60885,6.76562 -6.89592,10.50154 -2.74169,3.11615 -6.17862,4.77915 -13.65193,6.11838 0.51462,-3.40707 1.26808,-5.7003 2.04493,-16.24161 1.20407,-16.35462 -3.35931,-17.95677 -8.28262,-23.90062 -14.65161,-17.42654 -40.40246,-20.73454 -59.918305,-8.12923 -9.336916,6.01908 -10.736376,13.11308 -10.229376,24.33285 0.33307,7.37885 7.393836,14.44523 10.916836,17.04738 10.271765,7.58685 22.873995,12.71669 34.350225,17.91608 4.23401,1.60092 22.53401,8.46554 26.74962,10.33723 5.54562,2.46215 11.78377,5.84346 14.79854,8.13746 9.08077,6.90946 14.48092,14.01731 17.54308,22.23723 5.60961,15.05808 6.40415,44.4667 -6.89854,59.29393 -15.26639,17.016 -41.26077,24.25824 -64.28193,23.74301 -21.41338,0.10461 -25.837995,-5.84647 -57.374221,-4.95262 -0.98369,-4.431 -1.64262,-15.40939 -1.06446,-17.62862 -2.742,-4.69469 -4.28754,-11.10777 -4.88623,-21.64715 -0.38154,-6.71108 -0.0462,-12.1087 3.40692,-22.38478 4.09931,-12.20592 18.30616,-21.61846 31.38239,-22.83107 11.264451,0.16615 22.512301,1.71353 31.692451,8.778 7.93869,6.10892 9.67915,17.83961 8.41362,24.90331 -1.97124,11.00277 -8.83539,20.21692 -20.29954,20.52869 -5.83693,0.1577 -14.721535,-6.77807 -14.571535,-12.06139 0.47923,-16.86854 17.499065,-14.17 20.562915,-11.84015 2.51916,1.91561 4.95231,4.68254 3.98669,9.84 4.18693,-4.43046 7.07639,-14.38569 1.484,-20.83216 -14.03238,-16.17515 -35.882061,-12.72753 -45.857831,-1.9643 -6.21716,6.70784 -3.98231,18.35646 -2.70262,27.43839 1.49185,10.58769 9.66677,19.07315 18.142996,26.12908 8.097305,6.74053 17.662995,8.72015 20.162305,8.87407 16.31123,1.00439 23.09015,2.62962 41.16477,-5.70461 11.22408,-5.17547 17.40592,-11.00008 22.55254,-26.10862 1.38962,-4.07962 1.03162,-12.17239 -0.77962,-18.5427 -1.82561,-6.421 -5.72377,-12.38769 -10.96215,-17.06177 -11.63862,-10.98584 -25.80839,-14.741 -40.51916,-20.90561 -13.214,-5.52054 -23.28192,-9.54731 -35.609761,-16.7057 -8.60592,-5.61254 -11.0643,-7.48192 -16.92115,-15.59415 -3.82177,-5.29338 -6.43677,-19.35292 -5.62939,-25.24154 1.89054,-9.661 3.73693,-17.74708 11.29908,-25.65992 z"
       style="fill:#ffffff"
       inkscape:connector-curvature="0" />
  </g>
</svg>
