<?xml version="1.0" encoding="UTF-8" standalone="no"?>
<svg
   xmlns:dc="http://purl.org/dc/elements/1.1/"
   xmlns:cc="http://creativecommons.org/ns#"
   xmlns:rdf="http://www.w3.org/1999/02/22-rdf-syntax-ns#"
   xmlns:svg="http://www.w3.org/2000/svg"
   xmlns="http://www.w3.org/2000/svg"
   xmlns:xlink="http://www.w3.org/1999/xlink"
   xmlns:sodipodi="http://sodipodi.sourceforge.net/DTD/sodipodi-0.dtd"
   xmlns:inkscape="http://www.inkscape.org/namespaces/inkscape"
   width="48"
   height="48"
   viewBox="0 0 48 48"
   id="svg2"
   version="1.1"
   inkscape:version="0.48.4 r9939"
   sodipodi:docname="minitube (copie).svg">
  <metadata
     id="metadata21">
    <rdf:RDF>
      <cc:Work
         rdf:about="">
        <dc:format>image/svg+xml</dc:format>
        <dc:type
           rdf:resource="http://purl.org/dc/dcmitype/StillImage" />
      </cc:Work>
    </rdf:RDF>
  </metadata>
  <sodipodi:namedview
     pagecolor="#ffffff"
     bordercolor="#666666"
     borderopacity="1"
     objecttolerance="10"
     gridtolerance="10"
     guidetolerance="10"
     inkscape:pageopacity="0"
     inkscape:pageshadow="2"
     inkscape:window-width="1280"
     inkscape:window-height="1000"
     id="namedview19"
     showgrid="false"
     inkscape:zoom="4.9166667"
     inkscape:cx="20.847458"
     inkscape:cy="23.59322"
     inkscape:window-x="0"
     inkscape:window-y="24"
     inkscape:window-maximized="1"
     inkscape:current-layer="svg2" />
  <defs
     id="defs4">
    <radialGradient
       cx="148.004"
       cy="160"
       gradientTransform="matrix(.1831 0 0 .1831 -3.10029 -5.29688)"
       id="radial0"
       r="128"
       gradientUnits="userSpaceOnUse">
      <stop
         offset="0"
         style="stop-color:#f694f4"
         id="stop7" />
      <stop
         offset="1"
         style="stop-color:#800f8f"
         id="stop9" />
    </radialGradient>
    <linearGradient
       gradientTransform="matrix(1.36079,0,0,1.36217,-13.6019,991.15913)"
       xlink:href="#linearGradient4892"
       id="linearGradient3107"
       y1="37.765999"
       x1="28.513"
       y2="30.827999"
       gradientUnits="userSpaceOnUse"
       x2="28.422001" />
    <linearGradient
       id="linearGradient4892">
      <stop
         offset="0"
         style="stop-color:#fff"
         id="stop8" />
      <stop
         offset="1"
         style="stop-color:#fff;stop-opacity:0"
         id="stop10" />
    </linearGradient>
  </defs>
  <path
     style="fill:url(#radial0)"
     d="M 47.4375 11.546875 L 47.4375 36.453125 C 47.4375 46.703125 47.4375 47.4375 36.453125 47.4375 L 11.550781 47.4375 C 0.5625 47.4375 0.5625 46.703125 0.5625 36.453125 L 0.5625 11.546875 C 0.5625 1.296875 0.5625 0.5625 11.550781 0.5625 L 36.453125 0.5625 C 47.4375 0.5625 47.4375 1.296875 47.4375 11.546875 Z "
     id="path11" />
  <path
     inkscape:connector-curvature="0"
     id="path15"
     d="m 38.265625,47.4375 c 2.542969,-0.01172 4.378906,-0.08203 5.710937,-0.441406 l -4.230468,-7.25 -4.484375,7.691406 1.191406,0 c 0.640625,0 1.242187,0 1.8125,0 z m 1.480469,-7.691406 -5.125,-8.789063 -5.128906,8.789063 z m 0,0 7.652344,0 c 0.03125,-0.972656 0.03906,-2.0625 0.03906,-3.296875 l 0,-1.097657 -2.5625,-4.394531 z m 5.128906,-8.789063 -5.128906,-8.789062 -5.125,8.789062 z m 0,0 2.5625,0 0,-4.394531 z m -10.253906,0 -5.128906,-8.789062 -5.125,8.789062 z m -10.253906,0 -5.128907,8.789063 10.253907,0 z m 0,0 -5.128907,-8.789062 -5.125,8.789062 z m -10.253907,0 -5.128906,8.789063 10.253906,0 z m 0,0 -5.128906,-8.789062 -5.125,8.789062 z m -10.253906,0 -3.296875,5.648438 c 0,1.167969 0.011719,2.210937 0.039062,3.140625 l 8.382813,0 z m 0,0 -3.296875,-5.648437 0,5.648437 z m 5.125,8.789063 -4.3125,7.394531 c 1.597656,0.292969 3.808594,0.296875 6.878906,0.296875 l 1.921875,0 z m 0,-17.578125 -5.125,-8.789063 -3.296875,5.648438 0,3.140625 z m 0,0 10.253906,0 -5.125,-8.789063 z m 5.128906,-8.789063 -5.128906,-8.789062 -5.125,8.789062 z m 0,0 10.253907,0 -5.128907,-8.789062 z m 5.125,-8.789062 -2.351562,-4.027344 -5.339844,0 c -0.07422,0 -0.136719,0 -0.210937,0 L 8.984375,4.589844 z m 0,0 10.253907,0 -2.351563,-4.027344 -5.550781,0 z m 10.253907,0 10.253906,0 L 37.394531,0.5625 c -0.3125,0 -0.609375,0 -0.945312,0 l -4.605469,0 z m 0,0 -5.125,8.789062 10.253906,0 z m 5.128906,8.789062 10.253906,0 -5.128906,-8.789062 z m 0,0 -5.128906,8.789063 10.253906,0 z m 5.125,8.789063 7.691406,0 0,-4.394531 -2.5625,-4.394532 z m 5.128906,-8.789063 2.5625,0 0,-1.832031 c 0,-0.914063 -0.0078,-1.75 -0.02344,-2.523437 z m -15.382812,8.789063 -5.125,-8.789063 -5.128907,8.789063 z m 10.253906,-17.578125 7.308594,0 C 46.5,1.832031 45.167969,0.960938 42.023438,0.6875 z m -30.761719,0 L 6.679688,0.636719 C 3.019531,0.84375 1.539062,1.632812 0.945312,4.589844 z m -5.125,8.789062 L 0.621094,7.824219 C 0.578125,8.898438 0.5625,10.132812 0.5625,11.546875 l 0,1.832031 z m 15.378906,26.367188 -4.484375,7.691406 8.972656,0 z m 10.253907,0 -4.484376,7.691406 8.972657,0 z M 2.59375,46.367188 0.992188,43.621094 c 0.292968,1.316406 0.785156,2.179687 1.601562,2.746094 z"
     style="fill:#ffffff;fill-opacity:0.05100002" />
  <g
     transform="translate(0.052678,-1.7737)"
     style="color:#000000"
     id="g26">
    <g
       style="stroke-width:1.21000004"
       id="g28">
      <g
         style="fill:#ffffff;stroke:#ffffff"
         transform="translate(0,-1004.3622)"
         id="g30">
        <path
           inkscape:connector-curvature="0"
           d="m 16.76066,1024.5323 17.690233,0 c 0,0 0.255147,-6.4703 -1.445837,-8.088 -1.613813,-1.5346 -3.912263,-1.1918 -3.912263,-1.1918 l -0.08504,0.6811 c 0,0 -0.850491,-0.596 -2.381376,-0.6811 -1.530886,-0.085 -2.636525,0.085 -2.636525,0.085 l 0.510294,0.5108 c 0,0 -2.126228,-0.8513 -4.16741,-0.8513 -2.04118,0 -2.466427,0.085 -2.466427,0.085 l 0.765444,0.4256 c 0,0 -1.700985,-0.7663 -3.061772,-0.7663 -1.360786,0 -2.551476,0.596 -2.551476,0.596 0,0 1.956131,1.0217 2.721575,2.3838 0.765442,1.3621 1.020589,6.8108 1.020589,6.8108 z"
           id="path32" />
        <path
           inkscape:connector-curvature="0"
           d="m 15.825119,1024.5748 0,5.9596 c 0,1.2915 1.048558,2.3411 2.338853,2.3411 l 4.422558,0 c -0.325581,3.2669 -0.969541,5.7296 -0.807967,8.5685 0.101208,1.7784 1.640367,4.0865 4.082361,4.0865 2.18702,0 3.759738,-2.1339 3.912263,-4.2567 0.170098,-2.3674 -0.889403,-5.1253 -1.360787,-8.3983 l 4.124885,0 c 1.290299,0 2.338854,-1.0496 2.338854,-2.3411 l 0,-5.9596 c 0,0 -19.05102,0 -19.05102,0 z"
           id="path34" />
      </g>
      <g
         transform="translate(0,-1004.3622)"
         id="g36">
        <path
           inkscape:connector-curvature="0"
           style="opacity:0.57300002;fill:none;stroke:url(#linearGradient3107)"
           d="m 23.989842,1031.2282 c -0.260464,2.6134 -1.213051,7.387 -1.083793,9.6583 0.08097,1.4225 0.89922,3.3761 2.852816,3.3761 1.749615,0 2.657888,-1.7289 2.779907,-3.4273 0.136078,-1.8939 -1.042012,-6.9887 -1.41912,-9.6071 l -3.12981,0 z"
           id="path38" />
      </g>
    </g>
    <g
       style="fill:#ffffff"
       transform="translate(0,-1004.3622)"
       id="g40">
      <path
         inkscape:connector-curvature="0"
         d="m 16.505512,1025.1894 0,5.172 c 0,1.1301 0.832441,1.8358 1.961447,1.8358 l 13.852388,0 c 1.129011,0 1.876398,-0.7057 1.876398,-1.8358 l 0,-5.172 c 0,0 -17.690233,0 -17.690233,0 z"
         id="path42" />
      <path
         inkscape:connector-curvature="0"
         d="m 33.345253,1025.2559 0,2.6112 c 0,0.5579 -0.51208,1.0071 -1.148164,1.0071 l -13.69292,0 c -0.636083,0 -1.148164,-0.4492 -1.148164,-1.0071 l 0,-2.6112 c 0,0 15.989248,0 15.989248,0 z"
         id="path44" />
      <path
         inkscape:connector-curvature="0"
         d="m 14.591906,1015.5079 c 0,0 1.57341,0.9791 1.956132,2.4264 0.382721,1.4473 0.595344,2.852 0.595344,2.852 l 1.063113,-2.3413 1.19069,1.1494 0.425247,-1.873 2.551476,0.6811 -0.680395,-1.4047 2.721575,1.2769 -0.08504,-0.9364 1.148164,1.0216 0.935541,-0.8513 2.04118,0.8939 1.190689,-1.1494 1.700984,1.1068 c 0,0 -0.297672,-0.7662 -0.127574,-0.7235 0.170099,0.042 1.65846,0.5533 1.65846,0.5533 l 0.382722,0.4682 c 0,0 -0.25929,-1.3043 -0.850493,-1.8303 -1.148163,-1.0218 -2.764099,-0.9367 -2.764099,-0.9367 l -0.170099,1.192 c 0,0 -1.403311,-0.979 -2.593999,-1.1493 -1.190689,-0.1703 -2.381378,0.043 -2.381378,0.043 l -0.255148,0.511 c 0,0 -1.488361,-0.5961 -2.806622,-0.7237 -1.318264,-0.1277 -3.019247,-0.085 -3.019247,-0.085 l -0.08504,0.4682 c 0,0 -1.233213,-0.5959 -1.786032,-0.6385 -0.552821,-0.043 -1.913608,0.043 -1.956132,0 z"
         id="path46" />
      <path
         inkscape:connector-curvature="0"
         style="opacity:0.51499999"
         d="m 30.25,36.5 a 1.125,1.125 0 1 1 -2.25,0 1.125,1.125 0 1 1 2.25,0 z"
         transform="matrix(1.20959,0,0,1.21082,-10.1141,996.68348)"
         id="path48" />
    </g>
  </g>
</svg>
