<?xml version="1.0" encoding="UTF-8" standalone="no"?>
<svg
   xmlns:dc="http://purl.org/dc/elements/1.1/"
   xmlns:cc="http://creativecommons.org/ns#"
   xmlns:rdf="http://www.w3.org/1999/02/22-rdf-syntax-ns#"
   xmlns:svg="http://www.w3.org/2000/svg"
   xmlns="http://www.w3.org/2000/svg"
   xmlns:sodipodi="http://sodipodi.sourceforge.net/DTD/sodipodi-0.dtd"
   xmlns:inkscape="http://www.inkscape.org/namespaces/inkscape"
   width="48"
   height="48"
   viewBox="0 0 48 48"
   id="svg2"
   version="1.1"
   inkscape:version="0.48.4 r9939"
   sodipodi:docname="tuxpaint.svg">
  <metadata
     id="metadata25">
    <rdf:RDF>
      <cc:Work
         rdf:about="">
        <dc:format>image/svg+xml</dc:format>
        <dc:type
           rdf:resource="http://purl.org/dc/dcmitype/StillImage" />
      </cc:Work>
    </rdf:RDF>
  </metadata>
  <sodipodi:namedview
     pagecolor="#ffffff"
     bordercolor="#666666"
     borderopacity="1"
     objecttolerance="10"
     gridtolerance="10"
     guidetolerance="10"
     inkscape:pageopacity="0"
     inkscape:pageshadow="2"
     inkscape:window-width="1440"
     inkscape:window-height="838"
     id="namedview23"
     showgrid="false"
     inkscape:zoom="6.9532167"
     inkscape:cx="21.483179"
     inkscape:cy="24"
     inkscape:window-x="1272"
     inkscape:window-y="-8"
     inkscape:window-maximized="1"
     inkscape:current-layer="svg2" />
  <defs
     id="defs4">
    <radialGradient
       cx="148.004"
       cy="160"
       gradientTransform="matrix(.1831 0 0 .1831 -3.10029 -5.29688)"
       id="radial0"
       r="128"
       gradientUnits="userSpaceOnUse">
      <stop
         offset="0"
         style="stop-color:#f4bad7"
         id="stop7" />
      <stop
         offset="1"
         style="stop-color:#9f135b"
         id="stop9" />
    </radialGradient>
  </defs>
  <path
     style="fill:url(#radial0)"
     d="M 47.4375 11.546875 L 47.4375 36.453125 C 47.4375 46.703125 47.4375 47.4375 36.453125 47.4375 L 11.550781 47.4375 C 0.5625 47.4375 0.5625 46.703125 0.5625 36.453125 L 0.5625 11.546875 C 0.5625 1.296875 0.5625 0.5625 11.550781 0.5625 L 36.453125 0.5625 C 47.4375 0.5625 47.4375 1.296875 47.4375 11.546875 Z "
     id="path11" />
  <path
     inkscape:connector-curvature="0"
     id="path15"
     d="m 38.265625,47.4375 c 2.542969,-0.01172 4.378906,-0.08203 5.710937,-0.441406 l -4.230468,-7.25 -4.484375,7.691406 1.191406,0 c 0.640625,0 1.242187,0 1.8125,0 z m 1.480469,-7.691406 -5.125,-8.789063 -5.128906,8.789063 z m 0,0 7.652344,0 c 0.03125,-0.972656 0.03906,-2.0625 0.03906,-3.296875 l 0,-1.097657 -2.5625,-4.394531 z m 5.128906,-8.789063 -5.128906,-8.789062 -5.125,8.789062 z m 0,0 2.5625,0 0,-4.394531 z m -10.253906,0 -5.128906,-8.789062 -5.125,8.789062 z m -10.253906,0 -5.128907,8.789063 10.253907,0 z m 0,0 -5.128907,-8.789062 -5.125,8.789062 z m -10.253907,0 -5.128906,8.789063 10.253906,0 z m 0,0 -5.128906,-8.789062 -5.125,8.789062 z m -10.253906,0 -3.296875,5.648438 c 0,1.167969 0.011719,2.210937 0.039062,3.140625 l 8.382813,0 z m 0,0 -3.296875,-5.648437 0,5.648437 z m 5.125,8.789063 -4.3125,7.394531 c 1.597656,0.292969 3.808594,0.296875 6.878906,0.296875 l 1.921875,0 z m 0,-17.578125 -5.125,-8.789063 -3.296875,5.648438 0,3.140625 z m 0,0 10.253906,0 -5.125,-8.789063 z m 5.128906,-8.789063 -5.128906,-8.789062 -5.125,8.789062 z m 0,0 10.253907,0 -5.128907,-8.789062 z m 5.125,-8.789062 -2.351562,-4.027344 -5.339844,0 c -0.07422,0 -0.136719,0 -0.210937,0 L 8.984375,4.589844 z m 0,0 10.253907,0 -2.351563,-4.027344 -5.550781,0 z m 10.253907,0 10.253906,0 L 37.394531,0.5625 c -0.3125,0 -0.609375,0 -0.945312,0 l -4.605469,0 z m 0,0 -5.125,8.789062 10.253906,0 z m 5.128906,8.789062 10.253906,0 -5.128906,-8.789062 z m 0,0 -5.128906,8.789063 10.253906,0 z m 5.125,8.789063 7.691406,0 0,-4.394531 -2.5625,-4.394532 z m 5.128906,-8.789063 2.5625,0 0,-1.832031 c 0,-0.914063 -0.0078,-1.75 -0.02344,-2.523437 z m -15.382812,8.789063 -5.125,-8.789063 -5.128907,8.789063 z m 10.253906,-17.578125 7.308594,0 C 46.5,1.832031 45.167969,0.960938 42.023438,0.6875 z m -30.761719,0 L 6.679688,0.636719 C 3.019531,0.84375 1.539062,1.632812 0.945312,4.589844 z m -5.125,8.789062 L 0.621094,7.824219 C 0.578125,8.898438 0.5625,10.132812 0.5625,11.546875 l 0,1.832031 z m 15.378906,26.367188 -4.484375,7.691406 8.972656,0 z m 10.253907,0 -4.484376,7.691406 8.972657,0 z M 2.59375,46.367188 0.992188,43.621094 c 0.292968,1.316406 0.785156,2.179687 1.601562,2.746094 z"
     style="fill:#ffffff;fill-opacity:0.05100002" />
  <g
     id="g2988"
     transform="matrix(0.89025619,0.02702083,-0.02702083,0.89025619,4.1900766,1.8652851)">
    <path
       inkscape:connector-curvature="0"
       d="m 38.516844,15.576489 c -2.624895,1.001904 -4.7349,1.448589 -4.384553,3.499086 0.283613,1.653094 2.679856,1.580437 3.204558,-0.190513 0.505671,-1.707052 1.179995,-3.308573 1.179995,-3.308573 z m -2.892257,4.698385 -1.18453,-0.427603 -2.258889,4.211216 -0.0018,0.32163 -0.432495,0.172635 c 0.411146,0.552894 1.832432,1.294125 2.577224,1.009843 l -0.19672,-0.421413 0.208058,-0.251207 z m -1.470259,5.209028 -2.190295,-0.891344 c -1.786384,3.891163 -3.434754,12.209472 -3.434754,12.209472 0.01519,0.549225 0.733608,0.626146 0.909991,0.183144 0,0 3.305285,-7.667018 4.715058,-11.501272 z"
       style="fill:#ffffff"
       id="path21" />
    <path
       inkscape:connector-curvature="0"
       id="path3013"
       d="m 12.962233,45.524491 c -0.6297,-0.344834 -0.41769,-0.98356 0.76299,-2.298629 1.11716,-1.244314 1.34588,-1.589862 1.34588,-2.033321 0,-0.360958 -0.0331,-0.399896 -0.54174,-0.63742 -0.83739,-0.391045 -1.44707,-1.058349 -2.00139,-2.190573 -0.7613,-1.55499 -1.10262,-3.184118 -1.35646,-6.474359 l -0.13302,-1.724188 -0.2354,0.618237 c -0.22151,0.581747 -0.23117,0.714616 -0.16364,2.251128 0.0663,1.508953 0.0555,1.669658 -0.14255,2.117369 -0.2376,0.537119 -0.6392203,0.812811 -1.1840803,0.812811 -0.45152,0 -1.0465,-0.630301 -1.34297,-1.422672 -0.42434,-1.134153 -0.55808,-2.000891 -0.5625,-3.645398 -0.007,-2.571278 0.37769,-4.157452 1.54552,-6.374275 0.36332,-0.689674 0.9203,-1.747699 1.2377303,-2.351165 0.31744,-0.603466 0.89211,-1.873095 1.27707,-2.821399 0.38496,-0.948303 1.04142,-2.45305 1.45881,-3.343881 1.52965,-3.264743 1.64746,-3.616324 1.82078,-5.433806 0.26307,-2.7584779 1.44059,-5.1711762 3.18483,-6.5256082 0.80526,-0.625297 1.58611,-0.910859 2.66395,-0.974235 1.38506,-0.08144 2.30401,0.196988 3.51366,1.064566 0.61848,0.443582 0.91733,0.466987 1.95161,0.152833 1.4878,-0.451906 2.65044,0.116406 2.44781,1.196529 -0.12139,0.647036 -0.57889,1.06212 -1.3944,1.265116 -1.02261,0.254545 -1.73508,0.609344 -2.034,1.0128983 -0.14349,0.19373 -0.39523,0.745225 -0.55941,1.225543 -0.16418,0.480315 -0.5942,1.3972699 -0.9556,2.0376769 -0.81123,1.437514 -0.90813,1.722344 -0.83315,2.448823 0.12075,1.169953 3.01281,6.569413 5.66466,10.575876 1.66772,2.51963 2.20253,3.76877 2.77138,6.473022 0.30417,1.446008 0.39064,3.849286 0.16626,4.621116 -0.23355,0.803402 -0.66704,1.17963 -1.25149,1.086173 -0.8782,-0.14043 -1.3158,-0.73967 -1.53218,-2.098145 -0.0867,-0.544277 -0.23749,-0.936776 -0.59333,-1.544314 -0.2624,-0.448009 -0.48878,-0.800683 -0.50305,-0.783722 -0.0143,0.01698 -0.0552,0.407029 -0.0909,0.866813 -0.20259,2.60925 -0.62438,4.566262 -1.29876,6.025948 -0.46394,1.004201 -0.90203,1.549082 -1.55149,1.929692 -0.7855,0.460331 -0.60552,1.029989 0.70517,2.231952 0.5178,0.474858 1.01306,0.972643 1.10057,1.106195 0.37717,0.575645 -0.18585,0.944151 -1.30003,0.850877 -0.49563,-0.04149 -0.77675,-0.01635 -0.96162,0.08606 -0.34556,0.191388 -0.85926,0.188827 -1.32703,-0.0066 -0.34347,-0.143513 -0.42314,-0.142183 -0.83177,0.01388 -0.82939,0.316749 -1.83223,-0.02921 -1.65977,-0.57258 0.0383,-0.120727 0.41456,-0.595156 0.83609,-1.054288 0.76244,-0.830444 1.31054,-1.72783 1.31054,-2.145687 0,-0.172487 -0.23292,-0.339136 -1.09675,-0.784696 -1.44645,-0.746077 -1.83977,-0.75328 -3.22447,-0.05904 -0.52571,0.263575 -1.03813,0.478678 -1.13871,0.478007 -0.2338,-0.0014 -0.23854,0.320103 -0.0118,0.798024 0.0941,0.198327 0.66182,0.840251 1.26157,1.426491 1.26528,1.236787 1.44526,1.506709 1.26637,1.899314 -0.17727,0.389072 -0.5493,0.440121 -1.28496,0.176313 -0.84561,-0.303235 -1.17916,-0.284337 -1.61914,0.09173 -0.40101,0.342763 -0.82744,0.394328 -1.61697,0.195522 -0.36135,-0.09099 -0.51157,-0.08306 -0.75162,0.03966 -0.48722,0.249095 -0.90094,0.291535 -1.20717,0.123836 z"
       style="fill:#ffffff" />
  </g>
</svg>
