<?xml version="1.0" encoding="UTF-8" standalone="no"?>
<svg
   xmlns:dc="http://purl.org/dc/elements/1.1/"
   xmlns:cc="http://creativecommons.org/ns#"
   xmlns:rdf="http://www.w3.org/1999/02/22-rdf-syntax-ns#"
   xmlns:svg="http://www.w3.org/2000/svg"
   xmlns="http://www.w3.org/2000/svg"
   xmlns:sodipodi="http://sodipodi.sourceforge.net/DTD/sodipodi-0.dtd"
   xmlns:inkscape="http://www.inkscape.org/namespaces/inkscape"
   width="48"
   height="48"
   viewBox="0 0 48 48"
   id="svg2"
   version="1.1"
   inkscape:version="0.48.4 r9939"
   sodipodi:docname="unity-webapps-tumblr (copie).svg">
  <metadata
     id="metadata21">
    <rdf:RDF>
      <cc:Work
         rdf:about="">
        <dc:format>image/svg+xml</dc:format>
        <dc:type
           rdf:resource="http://purl.org/dc/dcmitype/StillImage" />
      </cc:Work>
    </rdf:RDF>
  </metadata>
  <sodipodi:namedview
     pagecolor="#ffffff"
     bordercolor="#666666"
     borderopacity="1"
     objecttolerance="10"
     gridtolerance="10"
     guidetolerance="10"
     inkscape:pageopacity="0"
     inkscape:pageshadow="2"
     inkscape:window-width="1280"
     inkscape:window-height="1000"
     id="namedview19"
     showgrid="false"
     inkscape:zoom="4.9166667"
     inkscape:cx="20.847458"
     inkscape:cy="23.59322"
     inkscape:window-x="0"
     inkscape:window-y="24"
     inkscape:window-maximized="1"
     inkscape:current-layer="svg2" />
  <defs
     id="defs4">
    <radialGradient
       cx="148.004"
       cy="160"
       gradientTransform="matrix(.1831 0 0 .1831 -3.10029 -5.29688)"
       id="radial0"
       r="128"
       gradientUnits="userSpaceOnUse">
      <stop
         offset="0"
         style="stop-color:#c1d6ff"
         id="stop7" />
      <stop
         offset="1"
         style="stop-color:#404e6a"
         id="stop9" />
    </radialGradient>
  </defs>
  <path
     style="fill:url(#radial0)"
     d="M 47.4375 11.546875 L 47.4375 36.453125 C 47.4375 46.703125 47.4375 47.4375 36.453125 47.4375 L 11.550781 47.4375 C 0.5625 47.4375 0.5625 46.703125 0.5625 36.453125 L 0.5625 11.546875 C 0.5625 1.296875 0.5625 0.5625 11.550781 0.5625 L 36.453125 0.5625 C 47.4375 0.5625 47.4375 1.296875 47.4375 11.546875 Z "
     id="path11" />
  <path
     inkscape:connector-curvature="0"
     id="path15"
     d="m 38.265625,47.4375 c 2.542969,-0.01172 4.378906,-0.08203 5.710937,-0.441406 l -4.230468,-7.25 -4.484375,7.691406 1.191406,0 c 0.640625,0 1.242187,0 1.8125,0 z m 1.480469,-7.691406 -5.125,-8.789063 -5.128906,8.789063 z m 0,0 7.652344,0 c 0.03125,-0.972656 0.03906,-2.0625 0.03906,-3.296875 l 0,-1.097657 -2.5625,-4.394531 z m 5.128906,-8.789063 -5.128906,-8.789062 -5.125,8.789062 z m 0,0 2.5625,0 0,-4.394531 z m -10.253906,0 -5.128906,-8.789062 -5.125,8.789062 z m -10.253906,0 -5.128907,8.789063 10.253907,0 z m 0,0 -5.128907,-8.789062 -5.125,8.789062 z m -10.253907,0 -5.128906,8.789063 10.253906,0 z m 0,0 -5.128906,-8.789062 -5.125,8.789062 z m -10.253906,0 -3.296875,5.648438 c 0,1.167969 0.011719,2.210937 0.039062,3.140625 l 8.382813,0 z m 0,0 -3.296875,-5.648437 0,5.648437 z m 5.125,8.789063 -4.3125,7.394531 c 1.597656,0.292969 3.808594,0.296875 6.878906,0.296875 l 1.921875,0 z m 0,-17.578125 -5.125,-8.789063 -3.296875,5.648438 0,3.140625 z m 0,0 10.253906,0 -5.125,-8.789063 z m 5.128906,-8.789063 -5.128906,-8.789062 -5.125,8.789062 z m 0,0 10.253907,0 -5.128907,-8.789062 z m 5.125,-8.789062 -2.351562,-4.027344 -5.339844,0 c -0.07422,0 -0.136719,0 -0.210937,0 L 8.984375,4.589844 z m 0,0 10.253907,0 -2.351563,-4.027344 -5.550781,0 z m 10.253907,0 10.253906,0 L 37.394531,0.5625 c -0.3125,0 -0.609375,0 -0.945312,0 l -4.605469,0 z m 0,0 -5.125,8.789062 10.253906,0 z m 5.128906,8.789062 10.253906,0 -5.128906,-8.789062 z m 0,0 -5.128906,8.789063 10.253906,0 z m 5.125,8.789063 7.691406,0 0,-4.394531 -2.5625,-4.394532 z m 5.128906,-8.789063 2.5625,0 0,-1.832031 c 0,-0.914063 -0.0078,-1.75 -0.02344,-2.523437 z m -15.382812,8.789063 -5.125,-8.789063 -5.128907,8.789063 z m 10.253906,-17.578125 7.308594,0 C 46.5,1.832031 45.167969,0.960938 42.023438,0.6875 z m -30.761719,0 L 6.679688,0.636719 C 3.019531,0.84375 1.539062,1.632812 0.945312,4.589844 z m -5.125,8.789062 L 0.621094,7.824219 C 0.578125,8.898438 0.5625,10.132812 0.5625,11.546875 l 0,1.832031 z m 15.378906,26.367188 -4.484375,7.691406 8.972656,0 z m 10.253907,0 -4.484376,7.691406 8.972657,0 z M 2.59375,46.367188 0.992188,43.621094 c 0.292968,1.316406 0.785156,2.179687 1.601562,2.746094 z"
     style="fill:#ffffff;fill-opacity:0.05100002" />
  <g
     style="fill:#ffffff"
     transform="matrix(0.13832,0,0,0.13832,-118.46747,-14.315741)"
     id="g18">
    <path
       d="m 1120,172.375 c -19.9074,0 -30.0085,6.86014 -37.9375,16.375 -7.929,9.51486 -12.6778,22.19932 -18.125,33.09375 -3.6584,7.31672 -11.8314,34.52043 -19.3437,60.1875 -3.7563,12.83354 -7.5144,25.58818 -11.0313,36.21875 -3.5169,10.63057 -6.1855,18.55944 -10.25,24.65625 -6.7068,10.06015 -17.4792,15.71875 -28.3125,15.71875 -3.81807,0 -7.62238,-0.7118 -11.25,-2.0625 12.85674,17.86293 42.553,46.84642 77.2188,-1.4375 24.0406,-33.48477 32.063,-105.60081 49.0312,-132.75 21.5774,-34.52381 32.4275,-26.35902 35,-23.46875 0.4837,-2.8262 0.7529,-5.78099 0.625,-8.59375 -0.237,-5.21349 -1.5675,-9.17047 -4.6562,-12.125 -3.089,-2.95453 -8.8855,-5.8125 -20.9688,-5.8125 z"
       id="path20"
       inkscape:connector-curvature="0"
       style="fill:#ffffff" />
    <path
       d="m 957.90625,202.8125 c 5.1243,5.80292 9.24193,13.14365 11.71875,21.8125 5.53562,19.37467 6.59645,43.45215 7.84375,64.65625 0.62365,10.60205 1.25958,20.45201 2.28125,28.1875 1.02167,7.73549 2.98262,13.47392 3.5625,14.34375 3.29323,4.93985 7.52083,6.8125 11.6875,6.8125 4.16667,0 8.3943,-1.87265 11.6875,-6.8125 0.8657,-1.29848 4.0014,-8.51468 7.125,-17.625 -5.2739,-2.21079 -12.9077,-14.57419 -18.8125,-61.8125 -3.40819,-27.26551 -23.34238,-42.31329 -37.09375,-49.5625 z"
       id="path22"
       inkscape:connector-curvature="0"
       style="fill:#ffffff" />
    <path
       d="m 926.375,207.65625 c -2.54696,0.0216 -4.67425,0.72437 -6.375,1.90625 -2.26767,1.57584 -4.23786,4.11468 -5.125,9.4375 l -0.5625,-0.0937 c 0.36118,14.53289 9.96875,24.15625 9.96875,24.15625 0,0 0,-10 10,-15 5.39359,-2.69679 12.11862,1.68476 17.1875,6.28125 -0.34044,-1.44951 -0.71052,-2.87746 -1.09375,-4.21875 -4.06698,-14.23445 -13.7801,-21.06067 -21.3125,-22.25 -0.94155,-0.14866 -1.83851,-0.22597 -2.6875,-0.21875 z"
       id="path24"
       inkscape:connector-curvature="0"
       style="fill:#ffffff" />
  </g>
</svg>
