<?xml version="1.0" encoding="UTF-8" standalone="no"?>
<svg
   xmlns:dc="http://purl.org/dc/elements/1.1/"
   xmlns:cc="http://creativecommons.org/ns#"
   xmlns:rdf="http://www.w3.org/1999/02/22-rdf-syntax-ns#"
   xmlns:svg="http://www.w3.org/2000/svg"
   xmlns="http://www.w3.org/2000/svg"
   xmlns:xlink="http://www.w3.org/1999/xlink"
   xmlns:sodipodi="http://sodipodi.sourceforge.net/DTD/sodipodi-0.dtd"
   xmlns:inkscape="http://www.inkscape.org/namespaces/inkscape"
   viewBox="0 0 48 48"
   id="svg2"
   version="1.1"
   inkscape:version="0.48.3.1 r9886"
   width="100%"
   height="100%"
   sodipodi:docname="vmware-workstation.svg">
  <metadata
     id="metadata24">
    <rdf:RDF>
      <cc:Work
         rdf:about="">
        <dc:format>image/svg+xml</dc:format>
        <dc:type
           rdf:resource="http://purl.org/dc/dcmitype/StillImage" />
      </cc:Work>
    </rdf:RDF>
  </metadata>
  <sodipodi:namedview
     pagecolor="#ffffff"
     bordercolor="#666666"
     borderopacity="1"
     objecttolerance="10"
     gridtolerance="10"
     guidetolerance="10"
     inkscape:pageopacity="0"
     inkscape:pageshadow="2"
     inkscape:window-width="1280"
     inkscape:window-height="1000"
     id="namedview22"
     showgrid="false"
     inkscape:zoom="8.7008427"
     inkscape:cx="22.237288"
     inkscape:cy="30.915254"
     inkscape:window-x="0"
     inkscape:window-y="24"
     inkscape:window-maximized="1"
     inkscape:current-layer="svg2" />
  <defs
     id="defs4">
    <linearGradient
       id="linearGradient3895-9-0-3-2-4-0">
      <stop
         offset="0"
         style="stop-color:#cfe8ff"
         id="stop7" />
      <stop
         offset="1"
         style="stop-color:#4071a0"
         id="stop9" />
    </linearGradient>
    <radialGradient
       cx="148.004"
       cy="160"
       gradientTransform="matrix(0.97656,0,0,0.97656,-16.5349,-236.25)"
       r="128"
       id="radialGradient4432"
       xlink:href="#linearGradient3895-9-0-3-2-4-0"
       gradientUnits="userSpaceOnUse" />
    <radialGradient
       inkscape:collect="always"
       xlink:href="#linearGradient3895-9-0-3-2-4-0"
       id="radialGradient2995"
       gradientUnits="userSpaceOnUse"
       gradientTransform="matrix(0.97656,0,0,0.97656,-16.5349,-236.25)"
       cx="148.004"
       cy="160"
       r="128" />
  </defs>
  <g
     id="g2989"
     transform="matrix(0.1875,0,0,0.1875,-5e-4,39.000497)">
    <g
       id="g12">
      <path
         inkscape:connector-curvature="0"
         id="path14"
         d="m 253,-146.40625 0,132.8125 C 253,41.09375 253,45 194.40625,45 L 61.59375,45 C 3,45 3,41.09375 3,-13.59375 l 0,-132.8125 C 3,-201.09375 3,-205 61.59375,-205 l 132.8125,0 C 253,-205 253,-201.09375 253,-146.40625 z"
         style="color:#bebebe;fill:url(#radialGradient2995)" />
    </g>
    <path
       style="opacity:0.05;fill:#ffffff"
       d="m 204.08032,44.99366 c 13.55517,-0.064 23.34858,-0.43514 30.45654,-2.34978 l -22.55248,-38.66464 -23.92579,41.01442 6.34766,0 c 3.41797,0 6.64139,0.0143 9.67407,0 z m 7.90406,-41.01442 -27.34375,-46.87362 -27.34375,46.87362 54.6875,0 z m 0,0 40.802,0 C 252.95094,-1.20375 253,-7.02254 253,-13.59837 l 0,-5.8592 -13.67187,-23.43681 -27.34375,46.87362 z m 27.34375,-46.87362 -27.34375,-46.87362 -27.34375,46.87362 54.6875,0 z m 0,0 13.67187,0 0,-23.43681 -13.67187,23.43681 z m -54.6875,0 -27.34375,-46.87362 -27.34376,46.87362 54.68751,0 z m -54.68751,0 -27.34374,46.87362 54.6875,0 -27.34376,-46.87362 z m 0,0 -27.34374,-46.87362 -27.34375,46.87362 54.68749,0 z m -54.68749,0 -27.34375,46.87362 54.6875,0 -27.34375,-46.87362 z m 0,0 -27.34375,-46.87362 -27.343755,46.87362 54.687505,0 z m -54.687505,0 L 3,-12.77442 c 0.0034,6.22608 0.05591,11.79835 0.213614,16.75366 l 44.708266,0 -27.343755,-46.87362 z m 0,0 L 3,-73.01435 l 0,30.11997 17.578125,0 z M 47.92188,3.97924 24.911614,43.40679 c 8.527026,1.57164 20.311776,1.58687 36.682136,1.58687 l 10.2539,0 L 47.92188,3.97924 z m 0,-93.74724 L 20.578125,-136.64161 3,-106.52166 3,-89.768 l 44.92188,0 z m 0,0 54.6875,0 -27.34375,-46.87361 -27.34375,46.87361 z m 27.34375,-46.87361 -27.34375,-46.87364 -27.343755,46.87364 54.687505,0 z m 0,0 54.68749,0 -27.34374,-46.87364 -27.34375,46.87364 z m 27.34375,-46.87364 -12.54273,-21.48374 -28.4729,0 c -0.39895,0 -0.7356,-1e-5 -1.12916,0 l -12.54271,21.48374 54.6875,0 z m 0,0 54.6875,0 -12.54273,-21.48374 -29.60205,0 -12.54272,21.48374 z m 54.6875,0 54.6875,0 -12.54273,-21.48374 c -1.67321,-0.002 -3.25633,0 -5.0354,0 l -24.56665,0 -12.54272,21.48374 z m 0,0 -27.34376,46.87364 54.68751,0 -27.34375,-46.87364 z m 27.34375,46.87364 54.6875,0 -27.34375,-46.87364 -27.34375,46.87364 z m 0,0 -27.34375,46.87361 54.6875,0 -27.34375,-46.87361 z m 27.34375,46.87361 41.01562,0 0,-23.43681 -13.67187,-23.4368 -27.34375,46.87361 z m 27.34375,-46.87361 13.67187,0 0,-9.76535 c 0,-4.89463 -0.0402,-9.34683 -0.12207,-13.45786 l -13.5498,23.22321 z m -82.03125,46.87361 -27.34376,-46.87361 -27.34374,46.87361 54.6875,0 z m 54.6875,-93.74725 38.97094,0 c -2.94957,-14.71522 -10.05142,-19.35598 -26.82494,-20.81237 l -12.146,20.81237 z m -164.0625,0 -12.2986,-21.08702 c -19.509325,1.10943 -27.416405,5.311 -30.57861,21.08702 l 42.87721,0 z M 20.578125,-136.64161 3.30517,-166.27332 C 3.074557,-160.53933 3,-153.96515 3,-146.40696 l 0,9.76535 17.578125,0 z M 102.60938,3.97924 78.68359,44.99366 l 47.85157,0 -23.92578,-41.01442 z m 54.6875,0 -23.92579,41.01442 47.85157,0 L 157.29688,3.97924 z M 13.833739,39.28704 5.288818,24.63904 c 1.572341,7.02888 4.191602,11.64072 8.544921,14.648 z"
       id="path18"
       inkscape:connector-curvature="0" />
    <path
       inkscape:connector-curvature="0"
       d="m 127.7162,-19.27047 c -1.20902,-0.42774 -2.75464,-1.41987 -3.43471,-2.20474 -1.15022,-1.32746 -1.2365,-1.94259 -1.2365,-8.81537 l 0,-7.38833 7.55637,-10e-4 c 8.26482,-10e-4 10.32556,-0.55769 12.36327,-3.3402 1.57324,-2.14828 2.19328,-5.66653 1.47584,-8.37425 -0.53086,-2.00348 -3.29943,-4.97345 -21.58114,-23.15105 -11.53469,-11.46899 -21.70755,-21.42815 -22.60635,-22.13146 -3.953935,-3.09392 -8.955517,-2.71643 -12.436007,0.93861 -2.50287,2.62863 -3.24074,5.50042 -3.24074,12.61326 l 0,5.52696 -6.34115,0 -6.34115,0 -2.31432,-2.15849 -2.31432,-2.15851 -0.15089,-30.53995 -0.15088,-30.53996 29.552002,0.003 c 18.006725,0.002 30.324945,0.21777 31.530455,0.55264 3.68119,1.02256 4.04467,1.91675 4.24472,10.44229 l 0.17808,7.58881 -8.69616,0.18641 c -7.53708,0.16155 -8.95252,0.33538 -10.6196,1.3042 -4.14277,2.40757 -4.74741,6.96773 -1.5786,11.90589 2.38237,3.7126 43.36096,44.37767 46.23771,45.88396 2.70556,1.41665 6.37688,1.61841 8.5933,0.47225 3.41165,-1.76446 5.00031,-6.758 5.00031,-15.71742 l 0,-6.01828 5.51319,0 c 6.16192,0 8.48379,0.68096 10.3316,3.03007 1.18984,1.51264 1.19138,1.55414 1.19138,32.21549 l 0,30.70091 -29.26375,-0.0241 c -23.78361,-0.0196 -29.6754,-0.16977 -31.46196,-0.80183 z m 80.13331,38.22158 c 5.18073,-1.32501 8.29008,-3.0938 11.53287,-6.5606 2.95056,-3.15438 4.31863,-5.69938 5.98424,-11.13229 1.2371,-4.03521 1.23895,-4.10151 1.42959,-51.02732 0.14059,-34.60894 0.0204,-47.7831 -0.45622,-50.00941 -1.73864,-8.12104 -6.93383,-15.26034 -13.52657,-18.58834 -6.30191,-3.18119 -8.34466,-3.4805 -25.86221,-3.78939 l -16.05388,-0.28308 -0.15796,-18.48289 -0.15797,-18.48288 -2.36604,-4.83904 c -2.67612,-5.4732 -7.04071,-10.30388 -11.11966,-12.30709 -5.78224,-2.83973 -5.48713,-2.82255 -55.64109,-3.23748 -51.853957,-0.42898 -49.645177,-0.54969 -57.391137,3.13645 -6.04867,2.87844 -9.97526,6.7226 -12.68165,12.41543 l -2.03575,4.28217 -0.14601,49.31626 c -0.15956,53.892 -0.13543,54.37602 2.9757,59.68476 3.45621,5.89759 9.16421,10.44939 15.48828,12.35103 3.2229,0.96912 5.66623,1.12999 20.28819,1.33579 l 16.624,0.23398 0.009,16.02619 c 0.008,13.86145 0.14832,16.56091 1.03776,19.98499 1.48506,5.71703 3.15711,8.82315 6.61628,12.29086 3.589012,3.59788 6.916762,5.65159 11.999887,7.40568 l 3.69268,1.27428 47.84495,0.0415 c 45.85654,0.0399 48.02064,-0.003 52.0723,-1.03961 z"
       style="fill:#ffffff"
       id="path3014" />
  </g>
</svg>
