<?xml version="1.0" encoding="UTF-8" standalone="no"?>
<svg
   xmlns:dc="http://purl.org/dc/elements/1.1/"
   xmlns:cc="http://creativecommons.org/ns#"
   xmlns:rdf="http://www.w3.org/1999/02/22-rdf-syntax-ns#"
   xmlns:svg="http://www.w3.org/2000/svg"
   xmlns="http://www.w3.org/2000/svg"
   xmlns:xlink="http://www.w3.org/1999/xlink"
   xmlns:sodipodi="http://sodipodi.sourceforge.net/DTD/sodipodi-0.dtd"
   xmlns:inkscape="http://www.inkscape.org/namespaces/inkscape"
   viewBox="0 0 48 48"
   id="svg2"
   version="1.1"
   inkscape:version="0.48.3.1 r9886"
   width="100%"
   height="100%"
   sodipodi:docname="wine-winecfg.svg">
  <metadata
     id="metadata44">
    <rdf:RDF>
      <cc:Work
         rdf:about="">
        <dc:format>image/svg+xml</dc:format>
        <dc:type
           rdf:resource="http://purl.org/dc/dcmitype/StillImage" />
      </cc:Work>
    </rdf:RDF>
  </metadata>
  <sodipodi:namedview
     pagecolor="#ffffff"
     bordercolor="#666666"
     borderopacity="1"
     objecttolerance="10"
     gridtolerance="10"
     guidetolerance="10"
     inkscape:pageopacity="0"
     inkscape:pageshadow="2"
     inkscape:window-width="1280"
     inkscape:window-height="1000"
     id="namedview42"
     showgrid="false"
     inkscape:zoom="6.195"
     inkscape:cx="25.046005"
     inkscape:cy="8.897498"
     inkscape:window-x="0"
     inkscape:window-y="24"
     inkscape:window-maximized="1"
     inkscape:current-layer="svg2" />
  <defs
     id="defs4">
    <linearGradient
       id="linearGradient3895-9-0-3-2-4-0">
      <stop
         offset="0"
         style="stop-color:#dba4aa"
         id="stop7" />
      <stop
         offset="1"
         style="stop-color:#90202c"
         id="stop9" />
    </linearGradient>
    <radialGradient
       cx="148.004"
       cy="160"
       gradientTransform="matrix(0.97656,0,0,0.97656,-16.5349,-236.25)"
       r="128"
       id="radialGradient4432"
       xlink:href="#linearGradient3895-9-0-3-2-4-0"
       gradientUnits="userSpaceOnUse" />
  </defs>
  <g
     id="g12"
     transform="matrix(0.1875,0,0,0.1875,-5e-4,39.0005)">
    <path
       style="color:#bebebe;fill:url(#radialGradient4432)"
       d="m 253,-146.40625 0,132.8125 C 253,41.09375 253,45 194.40625,45 L 61.59375,45 C 3,45 3,41.09375 3,-13.59375 l 0,-132.8125 C 3,-201.09375 3,-205 61.59375,-205 l 132.8125,0 C 253,-205 253,-201.09375 253,-146.40625 z"
       id="path14"
       inkscape:connector-curvature="0" />
    <path
       style="opacity:0.05;fill:#ffffff"
       d="m 204.08032,44.993662 c 13.55517,-0.06396 23.34858,-0.435144 30.45654,-2.349786 l -22.55248,-38.664633 -23.92579,41.014419 6.34766,0 c 3.41797,0 6.64139,0.01426 9.67407,0 z m 7.90406,-41.01442 -27.34375,-46.873624 -27.34375,46.873624 54.6875,0 z m 0,0 40.802,0 C 252.95094,-1.20375 253,-7.022538 253,-13.598368 l 0,-5.859203 -13.67187,-23.436811 -27.34375,46.873624 z m 27.34375,-46.873624 -27.34375,-46.873621 -27.34375,46.873621 54.6875,0 z m 0,0 13.67187,0 0,-23.43681 -13.67187,23.43681 z m -54.6875,0 -27.34375,-46.873621 -27.34376,46.873621 54.68751,0 z m -54.68751,0 -27.34374,46.873624 54.6875,0 -27.34376,-46.873624 z m 0,0 -27.34374,-46.873621 -27.34375,46.873621 54.68749,0 z m -54.68749,0 -27.34375,46.873624 54.6875,0 -27.34375,-46.873624 z m 0,0 -27.34375,-46.873621 -27.34376,46.873621 54.68751,0 z m -54.68751,0 L 3,-12.774415 c 0.003,6.226079 0.0559,11.79834402 0.21361,16.753658 l 44.70827,0 -27.34375,-46.873625 z m 0,0 L 3,-73.014348 l 0,30.119966 17.57813,0 z M 47.92188,3.979243 24.91161,43.406793 c 8.52703,1.571634 20.31178,1.586869 36.68214,1.586869 l 10.2539,0 L 47.92188,3.979243 z m 0,-93.747246 L 20.57813,-136.64161 3,-106.52166 l 0,16.753657 44.92188,0 z m 0,0 54.6875,0 -27.34375,-46.873607 -27.34375,46.873607 z m 27.34375,-46.873607 -27.34375,-46.87364 -27.34376,46.87364 54.68751,0 z m 0,0 54.68749,0 -27.34374,-46.87364 -27.34375,46.87364 z m 27.34375,-46.87364 -12.54273,-21.48374 -28.4729,0 c -0.39895,0 -0.7356,-1e-5 -1.12916,0 l -12.54271,21.48374 54.6875,0 z m 0,0 54.6875,0 -12.54273,-21.48374 -29.60205,0 -12.54272,21.48374 z m 54.6875,0 54.6875,0 -12.54273,-21.48374 c -1.67321,-0.002 -3.25633,0 -5.0354,0 l -24.56665,0 -12.54272,21.48374 z m 0,0 -27.34376,46.87364 54.68751,0 -27.34375,-46.87364 z m 27.34375,46.87364 54.6875,0 -27.34375,-46.87364 -27.34375,46.87364 z m 0,0 -27.34375,46.873607 54.6875,0 -27.34375,-46.873607 z m 27.34375,46.873607 41.01562,0 0,-23.436807 -13.67187,-23.4368 -27.34375,46.873607 z m 27.34375,-46.873607 13.67187,0 0,-9.76535 c 0,-4.89463 -0.0402,-9.34683 -0.12207,-13.45786 l -13.5498,23.22321 z m -82.03125,46.873607 -27.34376,-46.873607 -27.34374,46.873607 54.6875,0 z m 54.6875,-93.747247 38.97094,0 c -2.94957,-14.71522 -10.05142,-19.35598 -26.82494,-20.81237 l -12.146,20.81237 z m -164.0625,0 -12.2986,-21.08702 c -19.50933,1.10943 -27.41641,5.311 -30.57861,21.08702 l 42.87721,0 z M 20.57813,-136.64161 3.30517,-166.27332 C 3.07456,-160.53933 3,-153.96515 3,-146.40696 l 0,9.76535 17.57813,0 z m 82.03125,140.620853 -23.92579,41.014419 47.85157,0 -23.92578,-41.01442 z m 54.6875,0 -23.92579,41.014419 47.85157,0 L 157.29688,3.979243 z M 13.83374,39.287042 5.28882,24.639036 c 1.57234,7.028886 4.1916,11.640722 8.54492,14.648006 z"
       id="path16"
       inkscape:connector-curvature="0" />
  </g>
  <path
     style="fill:#ffffff"
     d="M 34.34375 8.9375 C 33.159312 8.957789 31.96773 9.7581626 31.78125 11.25 C 31.482882 13.63694 33.741045 12.75 35.53125 12.75 C 37.321455 12.75 37.916302 16.630177 37.46875 18.71875 C 37.021199 20.807322 32.256782 25.714578 21.5 20.78125 C 12.643768 16.719514 8.2231443 22.141872 8 22.25 C 8.8381394 30.319409 15.677732 39.0625 23.96875 39.0625 C 32.82588 39.0625 40 29.419599 40 20.5625 C 40 19.545187 39.868609 18.558432 39.6875 17.59375 C 39.522814 17.106218 39.37091 16.599624 39.25 16.15625 C 39.033264 15.361518 38.803583 14.717219 38.59375 14.09375 C 38.58465 14.07346 38.60295 14.02148 38.59375 14 C 37.745913 12.117062 36.53178 10.412472 35.0625 9 C 35.0559 8.988065 35.03785 9.011935 35.03125 9 C 34.801647 8.94152 34.580637 8.93392 34.34375 8.9375 z M 23.375 23.6875 L 24.625 23.6875 L 24.625 32.96875 C 25.481278 33.127996 26.09375 33.621387 26.09375 34.1875 C 26.09375 34.752754 25.479262 35.183777 24.625 35.34375 L 24.625 37.125 L 23.375 37.125 L 23.375 35.375 C 22.51331 35.21773 21.90625 34.755926 21.90625 34.1875 C 21.90625 33.619076 22.51331 33.12602 23.375 32.96875 L 23.375 23.6875 z M 18.75 24.53125 L 20 24.53125 L 20 27.125 C 20.861327 27.282403 21.46875 27.74423 21.46875 28.3125 C 21.46875 28.880772 20.861327 29.342596 20 29.5 L 20 36.28125 L 18.75 36.28125 L 18.75 29.5 C 17.893981 29.34066 17.28125 28.878505 17.28125 28.3125 C 17.28125 27.746499 17.893981 27.284341 18.75 27.125 L 18.75 24.53125 z M 27.96875 24.53125 L 29.25 24.53125 L 29.25 27.125 C 30.106018 27.284341 30.71875 27.746499 30.71875 28.3125 C 30.71875 28.878504 30.106018 29.34066 29.25 29.5 L 29.25 36.28125 L 27.96875 36.28125 L 27.96875 29.5 C 27.128331 29.335127 26.53125 28.871834 26.53125 28.3125 C 26.53125 27.753169 27.128331 27.289873 27.96875 27.125 L 27.96875 24.53125 z "
     id="path20" />
  <path
     style="fill:#ffffff"
     id="path22"
     d="m 31.868943,14.602723 c 0,0.494351 -0.400751,0.895102 -0.895103,0.895102 -0.494351,0 -0.895102,-0.400751 -0.895102,-0.895102 0,-0.494352 0.400751,-0.895103 0.895102,-0.895103 0.494352,0 0.895103,0.400751 0.895103,0.895103 z"
     inkscape:connector-curvature="0" />
  <path
     style="fill:#ffffff"
     id="path24"
     d="m 30.078738,11.357976 c 0,0.350166 -0.283866,0.634031 -0.634031,0.634031 -0.350165,0 -0.634031,-0.283865 -0.634031,-0.634031 0,-0.350165 0.283866,-0.634031 0.634031,-0.634031 0.350165,0 0.634031,0.283866 0.634031,0.634031 z"
     inkscape:connector-curvature="0" />
</svg>
