<?xml version="1.0" encoding="UTF-8" standalone="no"?>
<svg
   xmlns:dc="http://purl.org/dc/elements/1.1/"
   xmlns:cc="http://creativecommons.org/ns#"
   xmlns:rdf="http://www.w3.org/1999/02/22-rdf-syntax-ns#"
   xmlns:svg="http://www.w3.org/2000/svg"
   xmlns="http://www.w3.org/2000/svg"
   xmlns:xlink="http://www.w3.org/1999/xlink"
   xmlns:sodipodi="http://sodipodi.sourceforge.net/DTD/sodipodi-0.dtd"
   xmlns:inkscape="http://www.inkscape.org/namespaces/inkscape"
   viewBox="0 0 48 48"
   id="svg2"
   version="1.1"
   inkscape:version="0.48.3.1 r9886"
   width="100%"
   height="100%"
   sodipodi:docname="preferences-system.svg">
  <metadata
     id="metadata44">
    <rdf:RDF>
      <cc:Work
         rdf:about="">
        <dc:format>image/svg+xml</dc:format>
        <dc:type
           rdf:resource="http://purl.org/dc/dcmitype/StillImage" />
      </cc:Work>
    </rdf:RDF>
  </metadata>
  <sodipodi:namedview
     pagecolor="#ffffff"
     bordercolor="#666666"
     borderopacity="1"
     objecttolerance="10"
     gridtolerance="10"
     guidetolerance="10"
     inkscape:pageopacity="0"
     inkscape:pageshadow="2"
     inkscape:window-width="1280"
     inkscape:window-height="1000"
     id="namedview42"
     showgrid="false"
     inkscape:zoom="6.195"
     inkscape:cx="27.548023"
     inkscape:cy="9.220339"
     inkscape:window-x="0"
     inkscape:window-y="24"
     inkscape:window-maximized="1"
     inkscape:current-layer="svg2" />
  <defs
     id="defs4">
    <linearGradient
       id="linearGradient3895-9-0-3-2-4-0">
      <stop
         offset="0"
         style="stop-color:#dba4aa"
         id="stop7" />
      <stop
         offset="1"
         style="stop-color:#90202c"
         id="stop9" />
    </linearGradient>
    <radialGradient
       cx="148.004"
       cy="160"
       gradientTransform="matrix(0.97656,0,0,0.97656,-16.5349,-236.25)"
       r="128"
       id="radialGradient4432"
       xlink:href="#linearGradient3895-9-0-3-2-4-0"
       gradientUnits="userSpaceOnUse" />
  </defs>
  <g
     id="g12"
     transform="matrix(0.1875,0,0,0.1875,-5e-4,39.0005)">
    <path
       style="color:#bebebe;fill:url(#radialGradient4432)"
       d="m 253,-146.40625 0,132.8125 C 253,41.09375 253,45 194.40625,45 L 61.59375,45 C 3,45 3,41.09375 3,-13.59375 l 0,-132.8125 C 3,-201.09375 3,-205 61.59375,-205 l 132.8125,0 C 253,-205 253,-201.09375 253,-146.40625 z"
       id="path14"
       inkscape:connector-curvature="0" />
    <path
       style="opacity:0.05;fill:#ffffff"
       d="m 204.08032,44.993662 c 13.55517,-0.06396 23.34858,-0.435144 30.45654,-2.349786 l -22.55248,-38.664633 -23.92579,41.014419 6.34766,0 c 3.41797,0 6.64139,0.01426 9.67407,0 z m 7.90406,-41.01442 -27.34375,-46.873624 -27.34375,46.873624 54.6875,0 z m 0,0 40.802,0 C 252.95094,-1.20375 253,-7.022538 253,-13.598368 l 0,-5.859203 -13.67187,-23.436811 -27.34375,46.873624 z m 27.34375,-46.873624 -27.34375,-46.873621 -27.34375,46.873621 54.6875,0 z m 0,0 13.67187,0 0,-23.43681 -13.67187,23.43681 z m -54.6875,0 -27.34375,-46.873621 -27.34376,46.873621 54.68751,0 z m -54.68751,0 -27.34374,46.873624 54.6875,0 -27.34376,-46.873624 z m 0,0 -27.34374,-46.873621 -27.34375,46.873621 54.68749,0 z m -54.68749,0 -27.34375,46.873624 54.6875,0 -27.34375,-46.873624 z m 0,0 -27.34375,-46.873621 -27.34376,46.873621 54.68751,0 z m -54.68751,0 L 3,-12.774415 c 0.003,6.226079 0.0559,11.79834402 0.21361,16.753658 l 44.70827,0 -27.34375,-46.873625 z m 0,0 L 3,-73.014348 l 0,30.119966 17.57813,0 z M 47.92188,3.979243 24.91161,43.406793 c 8.52703,1.571634 20.31178,1.586869 36.68214,1.586869 l 10.2539,0 L 47.92188,3.979243 z m 0,-93.747246 L 20.57813,-136.64161 3,-106.52166 l 0,16.753657 44.92188,0 z m 0,0 54.6875,0 -27.34375,-46.873607 -27.34375,46.873607 z m 27.34375,-46.873607 -27.34375,-46.87364 -27.34376,46.87364 54.68751,0 z m 0,0 54.68749,0 -27.34374,-46.87364 -27.34375,46.87364 z m 27.34375,-46.87364 -12.54273,-21.48374 -28.4729,0 c -0.39895,0 -0.7356,-1e-5 -1.12916,0 l -12.54271,21.48374 54.6875,0 z m 0,0 54.6875,0 -12.54273,-21.48374 -29.60205,0 -12.54272,21.48374 z m 54.6875,0 54.6875,0 -12.54273,-21.48374 c -1.67321,-0.002 -3.25633,0 -5.0354,0 l -24.56665,0 -12.54272,21.48374 z m 0,0 -27.34376,46.87364 54.68751,0 -27.34375,-46.87364 z m 27.34375,46.87364 54.6875,0 -27.34375,-46.87364 -27.34375,46.87364 z m 0,0 -27.34375,46.873607 54.6875,0 -27.34375,-46.873607 z m 27.34375,46.873607 41.01562,0 0,-23.436807 -13.67187,-23.4368 -27.34375,46.873607 z m 27.34375,-46.873607 13.67187,0 0,-9.76535 c 0,-4.89463 -0.0402,-9.34683 -0.12207,-13.45786 l -13.5498,23.22321 z m -82.03125,46.873607 -27.34376,-46.873607 -27.34374,46.873607 54.6875,0 z m 54.6875,-93.747247 38.97094,0 c -2.94957,-14.71522 -10.05142,-19.35598 -26.82494,-20.81237 l -12.146,20.81237 z m -164.0625,0 -12.2986,-21.08702 c -19.50933,1.10943 -27.41641,5.311 -30.57861,21.08702 l 42.87721,0 z M 20.57813,-136.64161 3.30517,-166.27332 C 3.07456,-160.53933 3,-153.96515 3,-146.40696 l 0,9.76535 17.57813,0 z m 82.03125,140.620853 -23.92579,41.014419 47.85157,0 -23.92578,-41.01442 z m 54.6875,0 -23.92579,41.014419 47.85157,0 L 157.29688,3.979243 z M 13.83374,39.287042 5.28882,24.639036 c 1.57234,7.028886 4.1916,11.640722 8.54492,14.648006 z"
       id="path16"
       inkscape:connector-curvature="0" />
  </g>
  <g
     style="fill:#ffffff"
     transform="matrix(1.19347,0,0,1.19347,-4.9048492,-1204.5862)"
     id="g18">
    <path
       inkscape:connector-curvature="0"
       d="m 32.874998,1016.7997 c -0.992432,0.017 -1.96875,0.6875 -2.125,1.9375 -0.25,2 1.625,1.25 3.125,1.25 1.5,0 2,3.25 1.625,5 -0.375,1.75 -4.361969,5.8836 -13.375,1.75 -7.420574,-3.4033 -11.125529,1.1281 -11.3125,1.2187 0.702271,6.7613 6.428015,14.0938 13.375,14.0938 7.421326,0 13.4375,-8.0787 13.4375,-15.5 0,-0.8524 -0.09825,-1.6917 -0.25,-2.5 -0.137989,-0.4085 -0.273691,-0.816 -0.375,-1.1875 -0.181602,-0.6659 -0.386682,-1.2276 -0.5625,-1.75 -0.0076,-0.017 0.0077,-0.045 0,-0.063 -0.710396,-1.5777 -1.706401,-3.004 -2.9375,-4.1875 -0.0055,-0.01 -0.02572,0.01 -0.03125,0 -0.192383,-0.049 -0.395264,-0.066 -0.59375,-0.063 z"
       id="path20" />
    <path
       inkscape:connector-curvature="0"
       d="m 30.812498,17.187502 c 0,0.414213 -0.335786,0.75 -0.75,0.75 -0.414213,0 -0.75,-0.335787 -0.75,-0.75 0,-0.414214 0.335787,-0.75 0.75,-0.75 0.414214,0 0.75,0.335786 0.75,0.75 z"
       transform="translate(0,1004.3622)"
       id="path22" />
    <path
       inkscape:connector-curvature="0"
       d="m 29.312498,14.468752 c 0,0.293401 -0.237849,0.53125 -0.53125,0.53125 -0.293401,0 -0.53125,-0.237849 -0.53125,-0.53125 0,-0.293401 0.237849,-0.53125 0.53125,-0.53125 0.293401,0 0.53125,0.237849 0.53125,0.53125 z"
       transform="translate(0,1004.3622)"
       id="path24" />
  </g>
</svg>
