<?xml version="1.0" encoding="UTF-8" standalone="no"?>
<svg
   xmlns:dc="http://purl.org/dc/elements/1.1/"
   xmlns:cc="http://creativecommons.org/ns#"
   xmlns:rdf="http://www.w3.org/1999/02/22-rdf-syntax-ns#"
   xmlns:svg="http://www.w3.org/2000/svg"
   xmlns="http://www.w3.org/2000/svg"
   xmlns:xlink="http://www.w3.org/1999/xlink"
   xmlns:sodipodi="http://sodipodi.sourceforge.net/DTD/sodipodi-0.dtd"
   xmlns:inkscape="http://www.inkscape.org/namespaces/inkscape"
   viewBox="0 0 48 48"
   id="svg2"
   version="1.1"
   inkscape:version="0.48.3.1 r9886"
   width="100%"
   height="100%"
   sodipodi:docname="wine-winetricks.svg">
  <metadata
     id="metadata44">
    <rdf:RDF>
      <cc:Work
         rdf:about="">
        <dc:format>image/svg+xml</dc:format>
        <dc:type
           rdf:resource="http://purl.org/dc/dcmitype/StillImage" />
      </cc:Work>
    </rdf:RDF>
  </metadata>
  <sodipodi:namedview
     pagecolor="#ffffff"
     bordercolor="#666666"
     borderopacity="1"
     objecttolerance="10"
     gridtolerance="10"
     guidetolerance="10"
     inkscape:pageopacity="0"
     inkscape:pageshadow="2"
     inkscape:window-width="1280"
     inkscape:window-height="1000"
     id="namedview42"
     showgrid="false"
     inkscape:zoom="6.195"
     inkscape:cx="27.870864"
     inkscape:cy="8.897498"
     inkscape:window-x="0"
     inkscape:window-y="24"
     inkscape:window-maximized="1"
     inkscape:current-layer="svg2" />
  <defs
     id="defs4">
    <linearGradient
       id="linearGradient3895-9-0-3-2-4-0">
      <stop
         offset="0"
         style="stop-color:#dba4aa"
         id="stop7" />
      <stop
         offset="1"
         style="stop-color:#90202c"
         id="stop9" />
    </linearGradient>
    <radialGradient
       cx="148.004"
       cy="160"
       gradientTransform="matrix(0.97656,0,0,0.97656,-16.5349,-236.25)"
       r="128"
       id="radialGradient4432"
       xlink:href="#linearGradient3895-9-0-3-2-4-0"
       gradientUnits="userSpaceOnUse" />
  </defs>
  <g
     id="g3017">
    <g
       transform="matrix(0.1875,0,0,0.1875,-5e-4,39.0005)"
       id="g12">
      <path
         inkscape:connector-curvature="0"
         id="path14"
         d="m 253,-146.40625 0,132.8125 C 253,41.09375 253,45 194.40625,45 L 61.59375,45 C 3,45 3,41.09375 3,-13.59375 l 0,-132.8125 C 3,-201.09375 3,-205 61.59375,-205 l 132.8125,0 C 253,-205 253,-201.09375 253,-146.40625 z"
         style="color:#bebebe;fill:url(#radialGradient4432)" />
      <path
         inkscape:connector-curvature="0"
         id="path16"
         d="m 204.08032,44.993662 c 13.55517,-0.06396 23.34858,-0.435144 30.45654,-2.349786 l -22.55248,-38.664633 -23.92579,41.014419 6.34766,0 c 3.41797,0 6.64139,0.01426 9.67407,0 z m 7.90406,-41.01442 -27.34375,-46.873624 -27.34375,46.873624 54.6875,0 z m 0,0 40.802,0 C 252.95094,-1.20375 253,-7.022538 253,-13.598368 l 0,-5.859203 -13.67187,-23.436811 -27.34375,46.873624 z m 27.34375,-46.873624 -27.34375,-46.873621 -27.34375,46.873621 54.6875,0 z m 0,0 13.67187,0 0,-23.43681 -13.67187,23.43681 z m -54.6875,0 -27.34375,-46.873621 -27.34376,46.873621 54.68751,0 z m -54.68751,0 -27.34374,46.873624 54.6875,0 -27.34376,-46.873624 z m 0,0 -27.34374,-46.873621 -27.34375,46.873621 54.68749,0 z m -54.68749,0 -27.34375,46.873624 54.6875,0 -27.34375,-46.873624 z m 0,0 -27.34375,-46.873621 -27.34376,46.873621 54.68751,0 z m -54.68751,0 L 3,-12.774415 c 0.003,6.226079 0.0559,11.79834402 0.21361,16.753658 l 44.70827,0 -27.34375,-46.873625 z m 0,0 L 3,-73.014348 l 0,30.119966 17.57813,0 z M 47.92188,3.979243 24.91161,43.406793 c 8.52703,1.571634 20.31178,1.586869 36.68214,1.586869 l 10.2539,0 L 47.92188,3.979243 z m 0,-93.747246 L 20.57813,-136.64161 3,-106.52166 l 0,16.753657 44.92188,0 z m 0,0 54.6875,0 -27.34375,-46.873607 -27.34375,46.873607 z m 27.34375,-46.873607 -27.34375,-46.87364 -27.34376,46.87364 54.68751,0 z m 0,0 54.68749,0 -27.34374,-46.87364 -27.34375,46.87364 z m 27.34375,-46.87364 -12.54273,-21.48374 -28.4729,0 c -0.39895,0 -0.7356,-1e-5 -1.12916,0 l -12.54271,21.48374 54.6875,0 z m 0,0 54.6875,0 -12.54273,-21.48374 -29.60205,0 -12.54272,21.48374 z m 54.6875,0 54.6875,0 -12.54273,-21.48374 c -1.67321,-0.002 -3.25633,0 -5.0354,0 l -24.56665,0 -12.54272,21.48374 z m 0,0 -27.34376,46.87364 54.68751,0 -27.34375,-46.87364 z m 27.34375,46.87364 54.6875,0 -27.34375,-46.87364 -27.34375,46.87364 z m 0,0 -27.34375,46.873607 54.6875,0 -27.34375,-46.873607 z m 27.34375,46.873607 41.01562,0 0,-23.436807 -13.67187,-23.4368 -27.34375,46.873607 z m 27.34375,-46.873607 13.67187,0 0,-9.76535 c 0,-4.89463 -0.0402,-9.34683 -0.12207,-13.45786 l -13.5498,23.22321 z m -82.03125,46.873607 -27.34376,-46.873607 -27.34374,46.873607 54.6875,0 z m 54.6875,-93.747247 38.97094,0 c -2.94957,-14.71522 -10.05142,-19.35598 -26.82494,-20.81237 l -12.146,20.81237 z m -164.0625,0 -12.2986,-21.08702 c -19.50933,1.10943 -27.41641,5.311 -30.57861,21.08702 l 42.87721,0 z M 20.57813,-136.64161 3.30517,-166.27332 C 3.07456,-160.53933 3,-153.96515 3,-146.40696 l 0,9.76535 17.57813,0 z m 82.03125,140.620853 -23.92579,41.014419 47.85157,0 -23.92578,-41.01442 z m 54.6875,0 -23.92579,41.014419 47.85157,0 L 157.29688,3.979243 z M 13.83374,39.287042 5.28882,24.639036 c 1.57234,7.028886 4.1916,11.640722 8.54492,14.648006 z"
         style="opacity:0.05;fill:#ffffff" />
    </g>
    <path
       id="path22-8"
       d="M 34.375 8.96875 C 33.17365 8.98892 31.970392 9.7981349 31.78125 11.28125 C 31.478622 13.654235 33.777984 12.75 35.59375 12.75 C 37.409516 12.75 37.985191 16.611138 37.53125 18.6875 C 37.077308 20.763862 32.254119 25.654485 21.34375 20.75 C 12.361066 16.71201 7.8825804 22.111254 7.65625 22.21875 C 8.5063565 30.240981 15.434351 38.9375 23.84375 38.9375 C 32.827344 38.9375 40.125 29.336566 40.125 20.53125 C 40.125 19.519884 39.996195 18.521542 39.8125 17.5625 C 39.645463 17.077818 39.497635 16.597031 39.375 16.15625 C 39.155169 15.366164 38.900329 14.713573 38.6875 14.09375 C 38.6783 14.07358 38.6968 14.02136 38.6875 14 C 37.827558 12.128071 36.615258 10.435464 35.125 9.03125 C 35.1183 9.019385 35.10045 9.043115 35.09375 9.03125 C 34.860869 8.973112 34.615269 8.965191 34.375 8.96875 z M 15.78125 24.96875 L 16.78125 28 L 19.84375 29 L 16.78125 30.03125 L 15.78125 33.0625 L 14.75 30.03125 L 11.71875 29 L 14.75 28 L 15.78125 24.96875 z "
       style="fill:#ffffff" />
    <path
       id="path18-3"
       d="M 8.6439415,8.6950295 C 7.7958061,9.5385835 7.2352656,10.364324 8.0810129,11.210301 L 36.544236,39.686327 c 0.845744,0.84618 1.893446,0.508032 2.741596,-0.335636 0.848136,-0.843549 1.190141,-1.887849 0.344394,-2.733928 L 11.167007,8.1406595 c -0.845747,-0.846186 -1.6749163,-0.28928 -2.5230655,0.55437 z m 5.4232625,5.4256585 c 0.434053,-0.431753 0.840713,-0.698152 1.273666,-0.264996 l 23.51784,23.528553 c 0.432815,0.43286 0.09186,0.765134 -0.342139,1.196876 -0.434054,0.431841 -0.771488,0.767363 -1.200819,0.337936 L 13.797894,15.3904 c -0.432815,-0.432859 -0.164766,-0.837985 0.269288,-1.269724 z"
       style="line-height:normal;color:#000000;fill:#ffffff;fill-opacity:1"
       inkscape:connector-curvature="0" />
    <path
       id="path22-3"
       d="m 28.037555,9.556574 -1.521411,4.553168 -4.564241,1.517727 4.564241,1.517719 1.521411,4.553172 1.521417,-4.553172 4.564234,-1.517719 -4.564234,-1.517727 z"
       style="fill:#ffffff;fill-opacity:1"
       inkscape:connector-curvature="0" />
    <path
       id="path24-1"
       d="m 20.847404,7.7593045 -1.014273,3.0354455 -3.04283,1.011814 3.04283,1.011814 1.014273,3.035446 1.014277,-3.035446 3.042828,-1.011814 -3.042828,-1.011814 z"
       style="fill:#ffffff;fill-opacity:1"
       inkscape:connector-curvature="0" />
  </g>
</svg>
